<svg width="109" height="22" viewBox="0 0 109 22" fill="none" xmlns="http://www.w3.org/2000/svg">
<path d="M0.372 21V0.979999H5.412L12.412 12.88H12.468V0.979999H17.508V21H12.468L5.468 9.1H5.412V21H0.372ZM27.1603 18.088C28.7003 18.088 29.4283 17.36 29.7083 16.66H34.1603C33.3763 19.544 31.1363 21.448 27.2443 21.448C22.4843 21.448 19.6003 18.312 19.6003 13.832C19.6003 9.464 22.4283 6.216 26.9923 6.216C31.8923 6.216 34.3843 9.8 34.3843 15.008H24.0803C24.0803 17.024 25.5643 18.088 27.1603 18.088ZM26.9923 9.296C25.2843 9.296 24.0803 10.304 24.0803 12.292H29.9043C29.9043 10.304 28.7003 9.296 26.9923 9.296ZM34.5919 6.664H39.3519L41.6479 10.808H41.7039L43.9999 6.664H48.7599L44.3919 13.692L49.3199 21H44.2799L41.7039 16.576H41.6479L39.0719 21H34.0319L38.9599 13.692L34.5919 6.664ZM58.225 10.024H55.733V15.96C55.733 17.584 56.321 17.584 58.225 17.584V20.944C57.413 21.112 56.713 21.252 55.453 21.252C52.177 21.252 51.253 19.516 51.253 16.296V10.024H49.265V6.664H51.253V2.66H55.733V6.664H58.225V10.024ZM76.2174 6.02C76.2174 8.484 74.7614 9.716 73.1094 10.276V10.332C75.2094 10.696 77.0014 12.096 77.0014 15.092C77.0014 19.348 74.2854 21 70.1414 21H60.1454V0.979999H69.8614C74.0334 0.979999 76.2174 2.604 76.2174 6.02ZM65.1854 9.072H68.6574C70.0574 9.072 71.1774 8.736 71.1774 7.084C71.1774 5.432 70.0574 5.096 68.6574 5.096H65.1854V9.072ZM65.1854 12.152V16.884H68.7974C70.8974 16.884 71.9614 16.38 71.9614 14.504C71.9614 12.628 70.8974 12.152 68.7974 12.152H65.1854ZM87.9466 6.664H92.4266V21H87.9466V18.928H87.8906C87.1346 20.244 85.7346 21.448 83.1866 21.448C80.4146 21.448 78.5386 19.628 78.5386 16.352V6.664H83.0186V14.924C83.0186 17.08 83.7746 17.808 85.2586 17.808C86.9666 17.808 87.9466 16.94 87.9466 14.952V6.664ZM104.419 0.979999H108.899V21H104.419V19.572H104.363C103.803 20.328 102.291 21.448 100.219 21.448C96.4113 21.448 93.9753 18.536 93.9753 13.832C93.9753 9.128 96.4113 6.216 100.219 6.216C102.291 6.216 103.803 7.336 104.363 8.092H104.419V0.979999ZM101.395 18.088C103.215 18.088 104.335 16.632 104.335 13.832C104.335 11.032 103.215 9.576 101.395 9.576C99.5753 9.576 98.4553 11.032 98.4553 13.832C98.4553 16.632 99.5753 18.088 101.395 18.088Z" fill="#222222"/>
</svg>
