<svg width="16" height="19" viewBox="0 0 16 19" fill="none" xmlns="http://www.w3.org/2000/svg">
<path d="M11.9997 14.5C12.9331 14.5 13.3998 14.5 13.7563 14.3183C14.0699 14.1586 14.3249 13.9036 14.4847 13.59C14.6663 13.2335 14.6663 12.7668 14.6663 11.8333V3.83334C14.6663 2.89992 14.6663 2.43321 14.4847 2.07669C14.3249 1.76308 14.0699 1.50812 13.7563 1.34833C13.3998 1.16667 12.9331 1.16667 11.9997 1.16667H7.33301C6.39959 1.16667 5.93288 1.16667 5.57636 1.34833C5.26275 1.50812 5.00779 1.76308 4.848 2.07669C4.66634 2.43321 4.66634 2.89992 4.66634 3.83334M3.99967 17.8333H8.66634C9.59976 17.8333 10.0665 17.8333 10.423 17.6517C10.7366 17.4919 10.9916 17.2369 11.1514 16.9233C11.333 16.5668 11.333 16.1001 11.333 15.1667V7.16667C11.333 6.23325 11.333 5.76654 11.1514 5.41002C10.9916 5.09642 10.7366 4.84145 10.423 4.68166C10.0665 4.50001 9.59976 4.50001 8.66634 4.50001H3.99967C3.06625 4.50001 2.59954 4.50001 2.24302 4.68166C1.92942 4.84145 1.67445 5.09642 1.51466 5.41002C1.33301 5.76654 1.33301 6.23325 1.33301 7.16667V15.1667C1.33301 16.1001 1.33301 16.5668 1.51466 16.9233C1.67445 17.2369 1.92942 17.4919 2.24302 17.6517C2.59954 17.8333 3.06625 17.8333 3.99967 17.8333Z" stroke="black" stroke-width="2"/>
</svg>
