<svg width="119" height="90" viewBox="0 0 119 90" fill="none" xmlns="http://www.w3.org/2000/svg">
<mask id="mask0_1497_21843" style="mask-type:alpha" maskUnits="userSpaceOnUse" x="0" y="0" width="232" height="170">
<g clip-path="url(#clip0_1497_21843)">
<path d="M113.425 2.50759C113.317 3.24631 113.244 4.00266 113.082 4.72415C112.157 8.79432 108.23 10.629 104.664 8.6268C102.323 7.31575 100.591 5.42067 99.6624 2.80852C100.818 2.78325 101.992 2.75759 103.148 2.73231C104.134 3.92572 105.363 4.78248 106.779 5.30377C108.053 5.77296 109.18 5.26968 109.739 3.98725C109.943 3.54098 110.057 3.04146 110.224 2.57757C111.291 2.55425 112.358 2.53092 113.425 2.50759Z" fill="black"/>
<path d="M73.6488 68.471C73.7785 68.7075 73.8703 68.8343 73.9446 68.98C74.9834 70.927 75.2956 73.0004 74.791 75.1468C74.1066 78.0152 71.4065 79.8231 68.3761 79.5396C67.182 79.4368 66.0533 79.0749 65.0084 78.4718C62.1987 76.8949 59.9452 74.7167 58.4398 71.7674C56.4321 67.8166 55.5055 63.6764 56.262 59.2234C56.4666 58.0039 56.8142 56.8181 57.4128 55.7189C59.6868 51.5088 64.2218 50.6365 67.8113 53.7059C68.2642 54.0826 68.6998 54.478 69.1718 54.9095C69.2239 54.8532 69.346 54.7401 69.4676 54.6085C70.0589 53.9881 70.632 53.3497 71.26 52.7837C73.615 50.652 76.7004 51.0079 78.5894 53.5991C78.9377 54.0701 79.1978 54.5798 79.5304 55.1433C79.6698 55.0113 79.8096 54.8978 79.9313 54.7663C80.6612 53.9772 81.3725 53.1516 82.1384 52.3801C82.6783 51.8529 83.2361 51.3252 83.8681 50.9432C85.1844 50.1229 86.6727 50.661 87.2036 52.1589C87.45 52.8531 87.574 53.6419 87.5185 54.3611C87.349 56.3714 87.0724 58.3656 86.7962 60.3782C86.7509 60.7473 86.5989 61.1188 86.4106 61.4543C86.0679 62.0509 85.5227 62.3389 84.8632 62.2797C84.2214 62.2201 83.6804 61.8822 83.4889 61.2605C83.3168 60.712 83.2316 60.0695 83.308 59.4972C83.4734 58.1129 83.7455 56.7263 83.9821 55.3405C84.0302 55.1001 84.0605 54.8601 84.109 54.6382C84.0549 54.6025 84.0185 54.5665 83.9648 54.5493C83.8613 54.6988 83.7756 54.8479 83.6721 54.9975C83.0667 55.7839 82.4972 56.5879 81.8377 57.3387C81.3688 57.8644 80.8107 58.3736 80.2138 58.7364C79.1251 59.3862 77.8897 59.0266 77.2251 57.9182C76.9111 57.3912 76.7556 56.7871 76.4768 56.2409C76.1794 55.6583 75.9164 55.0198 75.4966 54.5319C74.621 53.5386 73.5541 53.5619 72.6686 54.5569C72.2345 55.0451 71.9096 55.6413 71.566 56.201C71.1885 56.8352 70.8838 57.5414 70.4881 58.1575C69.6801 59.4454 68.2257 59.6429 67.1173 58.581C66.6991 58.1667 66.3504 57.6773 66.0017 57.1879C65.4522 56.4636 64.8166 55.87 63.9728 55.5203C63.3085 55.2402 62.687 55.2906 62.0731 55.6907C60.9859 56.414 60.2609 57.4239 59.8437 58.6848C59.1937 60.6872 59.2198 62.6932 59.7441 64.7067C60.3068 66.8482 61.2212 68.798 62.4705 70.6115C63.5174 72.1166 64.8593 73.2838 66.4434 74.1328C66.8576 74.3631 67.2883 74.5377 67.7365 74.6936C69.3501 75.2658 70.516 74.8906 71.2524 72.7759C71.7375 71.3662 71.4043 69.956 70.6475 68.7023C70.5735 68.5751 70.2862 68.4525 70.1452 68.5108C69.7394 68.6669 69.2989 68.8607 68.9849 69.1437C68.5662 69.521 68.196 69.6764 67.7649 69.4833C67.3515 69.2898 67.0913 68.7801 67.1689 68.2629C67.2765 67.4874 67.7453 66.9617 68.3414 66.5621C69.762 65.629 71.3207 65.3188 72.9783 65.4666C74.7071 65.6129 76.3376 66.1479 77.8687 67.0165C82.2273 69.4616 86.0143 72.6187 89.2133 76.5435C90.895 78.6053 92.6115 80.6296 94.3627 82.6163C95.8767 84.332 97.7028 85.6728 99.6493 86.8268C100.893 87.5727 102.221 88.0776 103.648 88.2673C103.88 88.299 104.129 88.312 104.378 88.3065C105.533 88.2629 106.001 87.682 105.886 86.5063C105.862 86.2123 105.909 85.8983 105.92 85.6035C106.208 85.7445 106.512 85.8299 106.748 86.0272C108.234 87.2834 108.295 89.2518 106.919 90.6257C105.822 91.7174 104.441 92.0053 102.981 91.9452C101.343 91.8706 99.8368 91.3328 98.414 90.5355C96.1628 89.2777 94.0838 87.7585 92.3685 85.7894C90.4892 83.6398 88.6616 81.4155 86.9213 79.1156C84.2468 75.5844 81.1912 72.5217 77.4591 70.247C76.4674 69.6428 75.3727 69.2065 74.312 68.6958C74.1314 68.5709 73.9354 68.5568 73.6488 68.471Z" fill="black"/>
<path d="M20.4149 94.9471C20.1979 94.7862 20.0529 94.6605 19.8726 94.554C18.5028 93.7371 17.1499 92.8831 15.7457 92.1222C13.0629 90.6529 10.7439 88.7339 8.75347 86.3843C8.29687 85.842 7.87502 85.2621 7.5235 84.6439C6.56148 82.9529 7.05709 81.2117 8.72617 80.2547C9.83309 79.623 11.0386 79.431 12.2631 79.2938C14.7294 79.0005 17.2151 78.7805 19.6818 78.5057C20.0366 78.4611 20.3733 78.3985 20.7633 78.3347C20.7249 78.2067 20.7051 78.1151 20.6683 78.0607C19.7709 76.8837 18.8557 75.7072 17.9409 74.549C17.8128 74.3861 17.5618 74.2996 17.3638 74.1934C17.2555 74.1222 17.1291 74.0329 17.0208 73.9616C17.1069 73.8309 17.1736 73.6269 17.2795 73.5878C17.8274 73.4285 18.3916 73.1953 18.9428 73.1833C19.9571 73.1979 20.8397 73.694 21.6365 74.3393C22.6507 75.164 23.5256 76.1205 24.2258 77.2281C24.3919 77.5006 24.5717 77.5887 24.8715 77.4717C26.4432 76.9403 28.0326 76.4085 29.6039 75.8587C29.8863 75.7605 30.1494 75.5891 30.4307 75.4357C30.7645 75.2443 30.9371 75.0012 30.6789 74.5834C30.4575 74.2201 30.5775 74.015 30.9841 73.8956C32.5226 73.4754 33.776 74.663 33.3661 76.2551C33.2028 76.9214 32.8075 77.5559 32.3928 78.1173C31.736 78.9968 30.8061 79.5878 29.8196 80.0328C28.8332 80.4778 27.8095 80.8499 26.7863 81.2405C26.6452 81.2988 26.4864 81.3575 26.292 81.417C26.6128 82.2568 26.915 83.0602 27.1998 83.8823C27.2948 84.1564 27.4071 84.4116 27.4842 84.6861C27.6777 85.3998 27.4615 86.0857 26.9543 86.4833C26.3767 86.9194 25.7197 86.9706 25.1414 86.5598C24.6896 86.2383 24.2706 85.7873 23.9934 85.3147C23.4944 84.4604 23.1183 83.5298 22.707 82.6183C22.5761 82.3266 22.4145 82.2565 22.1126 82.2815C19.7865 82.4797 17.4418 82.6414 15.1157 82.8395C13.7838 82.9423 12.4522 83.0634 11.1033 83.2034C10.9259 83.2257 10.767 83.2844 10.5193 83.345C10.7391 83.6348 10.904 83.8521 11.0862 84.0506C12.7627 85.8732 14.6461 87.3968 16.8234 88.5273C18.3169 89.3047 19.7757 90.1196 21.2352 90.9713C21.938 91.3793 22.5893 91.8805 23.206 92.4193C23.5866 92.7423 23.9159 93.1586 24.1923 93.5943C25.1147 95.1021 24.6898 96.8234 23.2155 97.7393C22.1975 98.369 21.0462 98.5967 19.8743 98.6959C17.5304 98.8945 15.1671 99.0198 12.8224 99.1815C12.6624 99.185 12.5024 99.1885 12.3068 99.1928C12.4534 100.202 12.6166 101.156 12.7086 102.111C13.0033 105.013 12.9594 107.886 12.2746 110.736C11.7842 112.716 10.9156 114.484 9.5067 115.951C8.49793 117.004 7.32189 117.729 5.90344 117.944C5.07015 118.073 4.28416 117.924 3.66512 117.275C3.11922 116.716 2.96249 116.057 3.17715 115.298C3.34289 114.742 3.48392 114.683 4.0048 114.911C4.18422 114.981 4.4873 115.011 4.64531 114.916C5.0838 114.63 5.50411 114.326 5.85169 113.951C7.76133 111.792 8.61102 109.159 8.90428 106.299C9.13768 103.956 9.03325 101.621 8.89325 99.2858C8.83515 98.2562 8.79445 97.2078 8.7897 96.177C8.7934 95.5326 8.92196 94.9039 9.40977 94.433C9.8802 93.9809 10.2722 94.0092 10.6047 94.5726C10.9195 95.1363 11.1639 95.7385 11.4613 96.3211C11.5356 96.4667 11.753 96.6461 11.8952 96.6429C14.7002 96.3791 17.4636 95.8401 20.187 95.0994C20.2395 95.0614 20.2743 95.0238 20.4149 94.9471Z" fill="black"/>
<path d="M114.971 35.8124C114.827 35.7051 114.683 35.6162 114.538 35.5089C114.321 35.3664 114.087 35.2426 113.871 35.1001C113.293 34.6893 113.051 34.2344 113.202 33.7893C113.352 33.3258 113.844 33.0757 114.54 33.1709C116.253 33.4096 117.815 34.0566 119.035 35.3369C119.836 36.1846 120.498 37.1458 121.212 38.0875C121.376 38.2864 121.471 38.542 121.566 38.7977C121.848 39.5095 121.668 40.2129 121.143 40.611C120.635 40.9903 119.923 40.969 119.396 40.4651C118.76 39.8347 118.175 39.1296 117.591 38.4428C117.353 38.1535 117.174 38.1021 116.821 38.2387C114.158 39.2726 111.507 39.2754 108.916 37.9513C106.146 36.5208 104.778 33.3476 105.658 30.475C106.19 28.7697 107.338 27.6033 108.778 26.725C110.182 25.8659 111.74 25.5189 113.337 25.3183C116.299 24.9405 119.24 25.2076 122.199 25.4742C123.411 25.5766 124.623 25.679 125.818 25.8185C126.175 25.8659 126.279 25.7348 126.396 25.4193C126.868 24.194 127.267 22.9335 127.9 21.7783C129.439 18.9465 131.765 17.11 134.863 16.3979C136.243 16.0732 137.634 16.2269 138.978 16.6761C140.662 17.2284 142.124 18.1721 143.345 19.4892C146.278 22.6466 145.402 27.3416 141.527 29.1016C139.237 30.1273 136.806 30.4198 134.347 30.2342C132.066 30.0632 129.798 29.671 127.515 29.4079C123.235 28.9125 118.935 28.3254 114.615 28.475C113.407 28.5199 112.166 28.7311 110.999 29.0511C110.239 29.2703 109.502 29.7466 108.873 30.2758C108.017 30.9756 107.792 32.1035 108.26 33.1426C108.503 33.6895 108.836 34.2529 109.289 34.6296C110.938 36.011 112.898 36.1891 114.904 35.9979C114.938 35.9052 114.955 35.868 114.971 35.8124ZM130.665 26.1728C130.825 26.2061 130.915 26.2593 131.022 26.257C132.517 26.2611 134.03 26.3385 135.523 26.2506C136.944 26.1643 138.343 25.8576 139.627 25.1852C140.717 24.6091 140.996 23.5537 140.192 22.5772C139.644 21.9081 138.973 21.3153 138.269 20.852C136.897 19.9432 135.457 19.9931 134.054 20.889C132.58 21.8232 131.667 23.187 131.08 24.8382C130.929 25.2649 130.814 25.7093 130.665 26.1728Z" fill="black"/>
<path d="M57.6263 99.6377C59.6736 102.962 60.4641 106.571 60.6901 110.395C61.3981 110.232 61.9998 110.09 62.6197 109.966C63.877 109.699 65.1516 109.414 66.4274 109.183C66.9236 109.099 67.4566 109.069 67.9731 109.094C68.6322 109.135 69.105 109.604 69.1538 110.21C69.2022 110.798 68.8575 111.303 68.2214 111.501C67.656 111.679 67.0539 111.802 66.4881 111.962C64.6849 112.48 62.9391 113.181 61.2692 114.101C60.9528 114.274 60.6363 114.446 60.3013 114.582C58.9968 115.126 57.7057 114.658 57.1081 113.364C56.7902 112.653 56.6124 111.846 56.4707 111.058C56.3091 110.178 56.2183 109.278 56.1274 108.378C55.8811 106.064 55.2469 103.905 54.1705 101.867C53.7245 100.993 53.2784 100.119 52.8675 99.2263C51.9136 97.0933 52.9932 95.2104 55.2708 95.2342C56.7296 95.2391 58.1941 95.5017 59.6569 95.6906C64.9544 96.3295 70.1744 95.8656 75.2813 94.2996C77.7905 93.5268 80.1126 92.3347 82.2675 90.8149C82.8107 90.4348 83.3345 89.9816 83.7863 89.493C85.2287 87.9336 85.0669 85.4151 83.4882 83.9953C83.4155 83.9233 83.3431 83.8696 83.2704 83.7976C83.0336 83.545 83.0817 83.3047 83.4196 83.2973C83.9352 83.286 84.4686 83.2743 84.9519 83.411C86.7611 83.979 87.8836 85.6849 87.9504 87.9293C88.0129 89.9713 87.3039 91.7172 85.9665 93.2008C84.8377 94.4588 83.4701 95.3724 82.0286 96.1587C79.0226 97.8076 75.767 98.6151 72.4347 99.1666C67.702 99.9512 62.9561 100.129 58.1779 99.644C58.0171 99.6107 57.893 99.6318 57.6263 99.6377Z" fill="black"/>
<path d="M90.6598 20.6413C89.0529 17.9335 87.8683 15.014 85.6843 12.7606C84.7379 11.7872 85.1171 10.4167 86.3889 10.0023C87.3071 9.6877 88.2515 9.75908 89.1644 10.0153C89.9693 10.2186 90.7573 10.4591 91.5284 10.7367C95.9031 12.2979 100.421 13.0643 105.018 13.4056C106.728 13.5339 108.44 13.699 110.149 13.7536C111.591 13.8141 113.048 13.7455 114.507 13.732C115.236 13.716 115.963 13.6265 116.676 13.6845C117.567 13.7387 118.222 14.4055 118.329 15.25C118.454 16.0756 117.991 16.8957 117.144 17.2088C116.597 17.4049 116.03 17.5093 115.445 17.6141C111.458 18.2904 107.534 17.8239 103.587 17.1371C99.1231 16.3695 94.7422 15.3423 90.4741 13.7788C90.2947 13.7091 90.0979 13.6582 89.9189 13.6069C89.9011 13.6073 89.866 13.6265 89.8126 13.6276C89.8316 13.6824 89.851 13.7557 89.8696 13.7921C91.2482 15.8237 92.3282 18.0276 93.8996 19.9261C95.069 21.3364 94.4113 22.9892 92.6376 23.2305C88.3277 23.8218 83.9948 24.1742 79.6316 23.9567C74.2355 23.6881 68.8467 23.7507 63.4465 24.1081C61.9897 24.1952 60.5478 24.1531 59.0894 24.1666C58.876 24.1712 58.6436 24.1211 58.4286 24.0521C57.9987 23.9143 57.7603 23.5881 57.7676 23.1093C57.7745 22.6121 58.0712 22.3479 58.4955 22.2282C58.7432 22.1676 59.0099 22.1617 59.2585 22.1379C66.754 21.6058 74.2753 21.4414 81.7825 21.4429C84.5576 21.4374 87.3472 21.2844 90.0746 20.7277C90.2706 20.7418 90.4298 20.7015 90.6598 20.6413Z" fill="black"/>
<path d="M118.326 49.2695C117.566 49.4887 116.841 49.7254 116.116 49.9069C113.214 50.6331 110.263 50.716 107.309 50.6702C105.067 50.6456 102.826 50.6394 100.566 50.6335C100.335 50.6386 100.104 50.6437 99.8549 50.6491C99.8032 50.7239 99.7692 50.7982 99.7175 50.873C99.8613 50.9435 100.023 50.9952 100.132 51.1033C101.928 52.7024 103.913 53.9844 106.171 54.745C107.426 55.1778 108.697 55.5734 109.969 55.969C110.327 56.0716 110.701 56.0819 111.075 56.1289C111.967 56.2383 112.512 56.7418 112.582 57.495C112.633 58.2119 112.152 58.9772 111.336 59.1054C110.467 59.2349 109.56 59.2547 108.704 59.1262C104.92 58.5646 101.749 56.7194 98.9869 54.0737C98.2422 53.372 97.5501 52.6324 96.8401 51.8932C96.5855 51.641 96.3653 51.3329 96.1985 51.0236C95.6421 49.9865 96.0261 48.8367 97.1023 48.4266C97.6139 48.2313 98.1627 48.1089 98.7135 48.0784C100.526 47.9835 102.321 47.9075 104.135 47.8862C107.39 47.8519 110.647 47.9463 113.833 47.2139C115.179 46.9084 116.521 46.474 117.847 46.0953C118.289 45.9752 118.748 45.8179 119.21 45.7893C120.276 45.7108 121.108 46.3369 121.328 47.4367C121.428 47.9683 121.459 48.5383 121.435 49.0727C121.217 52.9617 121.196 56.8649 121.459 60.7434C121.487 61.2398 121.499 61.755 121.474 62.2526C121.389 64.0769 120.313 65.3154 118.555 65.4643C117.312 65.5651 116.031 65.5379 114.783 65.4179C110.327 65.0367 105.899 65.0783 101.505 65.9292C101.346 65.9511 101.186 65.973 101.026 65.9765C100.492 65.9697 100.111 65.6283 100.012 65.1518C99.9126 64.6754 100.151 64.1731 100.644 63.9782C101.103 63.8025 101.581 63.7 102.06 63.6159C106.915 62.755 111.814 62.2245 116.755 62.0428C118.302 61.9906 118.038 62.1436 118.006 60.6716C117.909 57.0472 118.096 53.4166 118.391 49.802C118.352 49.674 118.331 49.4903 118.326 49.2695Z" fill="black"/>
<path d="M117.73 74.9259C117.379 74.3445 117.031 73.855 116.787 73.3081C116.468 72.5419 116.202 71.7561 116.024 70.95C115.866 70.1987 116.208 69.5654 116.735 69.2961C117.281 69.0265 117.906 69.16 118.435 69.7376C118.781 70.1166 119.04 70.5527 119.351 70.9693C120.084 71.9106 120.815 72.8334 121.547 73.7747C121.858 74.1545 122.222 74.5147 122.462 74.9328C122.85 75.5871 122.778 76.3618 122.327 76.8871C121.893 77.3937 121.187 77.6116 120.504 77.2952C120.09 77.1017 119.808 77.1999 119.439 77.4105C118.349 78.0234 117.144 78.2155 115.937 78.3339C111.908 78.7718 108.013 77.9733 104.213 76.6941C101.471 75.7784 98.9502 74.3792 96.7375 72.4395C93.7085 69.7812 92.0314 66.3018 90.9504 62.4227C90.1 59.3302 90.0854 56.2195 90.5504 53.0798C90.5654 52.9506 90.5981 52.821 90.6309 52.6914C90.9931 51.3581 92.2839 50.9985 93.2302 51.9719C94.0674 52.8372 94.8873 53.7213 95.6194 54.6626C96.992 56.4182 98.572 57.8932 100.516 58.9368C100.552 58.9544 100.57 58.9724 100.606 58.9901C101.328 59.4529 101.57 59.9631 101.352 60.5385C101.116 61.1328 100.498 61.3856 99.6923 61.1271C97.9732 60.6124 96.5278 59.5947 95.2724 58.3151C94.4537 57.4862 93.7046 56.5821 92.9021 55.6792C92.8689 55.7904 92.8176 55.8836 92.8022 55.9944C92.4969 58.3022 92.759 60.5239 93.5537 62.6972C95.2957 67.519 98.5336 70.7802 103.129 72.6495C106.449 73.9944 109.896 74.6185 113.425 74.9096C114.672 75.0111 115.934 74.9651 117.197 74.9743C117.358 75.0076 117.518 74.9673 117.73 74.9259Z" fill="black"/>
<path d="M40.0793 28.5585C39.9469 31.4516 39.2588 34.1543 37.9258 36.6502C36.9008 38.5872 35.367 40.0382 33.6143 41.2363C31.1074 42.9295 28.3541 43.9285 25.3725 44.2515C23.8106 44.4145 22.2588 44.2275 20.7879 43.6706C19.2451 43.0784 18.5873 42.2828 18.5507 40.6084C18.4976 38.1796 19.1621 36.0296 20.6329 34.1382C22.3465 31.9653 24.3535 30.191 26.9666 29.287C28.6437 28.6981 30.3208 28.1092 31.9971 27.4834C33.3207 26.9943 34.6256 26.4687 35.9115 25.8883C36.5105 25.6175 37.071 25.2186 37.596 24.8206C37.8934 24.5932 38.0716 24.6077 38.3598 24.7671C39.9078 25.5984 39.976 27.088 40.0793 28.5585ZM37.0065 27.963C36.9705 27.9453 36.9345 27.9277 36.8808 27.9105C35.377 29.1031 33.5734 29.6028 31.8074 30.1937C30.3772 30.6852 28.9486 31.2503 27.5188 31.7602C25.3122 32.5448 23.6201 34.0729 22.1841 35.9267C21.0767 37.35 20.7039 39.015 20.7607 40.7994C20.7636 40.9282 20.964 41.1447 21.0888 41.1604C21.8364 41.1809 22.6212 41.2742 23.3478 41.1478C25.9002 40.7238 28.1868 39.5325 30.4176 38.2319C33.7198 36.3004 35.7184 33.3297 36.6681 29.5719C36.7987 29.0352 36.8937 28.4993 37.0065 27.963Z" fill="black"/>
<path d="M21.4565 53.0995C19.4351 53.4014 17.4315 53.7029 15.3572 54.0244C15.4133 54.1521 15.4703 54.3165 15.545 54.4805C15.9761 55.4836 16.389 56.4686 16.8023 57.4721C17.0278 58.0194 16.9861 58.5542 16.605 59.0228C16.2065 59.5101 15.6932 59.6318 15.121 59.497C14.5129 59.3446 14.0773 58.9492 13.7807 58.4034C13.392 57.7123 13.0736 56.983 12.7553 56.2536C12.3625 55.3785 12.0046 54.4659 11.5945 53.6097C11.3343 53.0999 11.0373 52.5357 10.3447 52.5877C9.59909 52.6592 9.03935 53.0949 8.77055 53.8187C8.29923 55.044 8.32699 56.3136 8.497 57.5801C8.83823 60.1683 10.1971 62.1083 12.2733 63.4988C13.1396 64.0689 14.1095 64.4895 15.0441 64.9293C15.4935 65.1404 15.8369 65.3906 15.9016 65.9046C15.9666 66.4371 15.7637 66.9201 15.3058 67.1326C14.8301 67.3455 14.2825 67.5232 13.7839 67.4973C12.0029 67.4074 10.4395 66.6868 9.1303 65.39C6.7305 63.0309 5.70635 60.1263 5.95278 56.7521C6.03492 55.6273 6.22336 54.4819 6.55604 53.4253C7.10339 51.6092 8.37767 50.4953 10.2031 50.1792C11.7981 49.905 12.989 50.6706 13.9761 51.8824C14.2872 52.2806 14.5927 52.4212 15.0716 52.3555C16.6145 52.1376 18.1764 51.9746 19.7181 51.7016C20.3207 51.5964 20.9006 51.2707 21.4632 50.9639C22.5006 50.4074 23.3965 50.7007 23.7063 51.8537C23.9188 52.6222 24.0254 53.4299 24.0783 54.2203C24.339 58.0068 24.5819 61.7937 24.807 65.581C24.8332 65.9671 24.8239 66.3538 24.7608 66.7234C24.6517 67.4253 24.2168 67.8767 23.6486 67.9259C23.0453 67.9943 22.4516 67.6943 22.2585 66.999C21.9867 65.9557 21.7318 64.8751 21.6729 63.8087C21.5612 61.1418 21.5558 58.4543 21.5153 55.7859C21.4956 54.8843 21.4758 53.9827 21.4565 53.0995Z" fill="black"/>
<path d="M42.9165 41.1433C42.9537 40.4062 42.9554 39.6698 43.0464 38.9498C43.1665 37.9347 43.9191 37.366 44.8631 37.419C46.092 37.4842 47.3035 37.5681 48.5304 37.5413C52.8859 37.4093 57.2584 37.24 61.6135 37.0896C62.2359 37.076 62.876 37.062 63.4995 37.1035C64.4084 37.1757 65.0076 37.7333 65.1348 38.6694C65.3888 40.5231 65.6251 42.3772 65.8084 44.2509C65.948 45.7574 64.9894 46.662 63.457 46.5482C61.7108 46.4207 59.9817 46.256 58.2367 46.1837C55.3526 46.0811 52.4523 46.0525 49.5689 45.9867C48.3764 45.9575 47.1842 45.9468 45.9921 45.936C45.8676 45.9387 45.7254 45.9419 45.6195 45.981C44.5066 46.3367 43.7149 45.9306 43.458 44.758C43.2007 43.5671 43.0501 42.3738 42.8458 41.1633C42.8458 41.1633 42.8809 41.1441 42.9165 41.1433ZM46.5452 43.5676C46.67 43.5833 46.7412 43.5817 46.8301 43.5798C50.2266 43.5239 53.6414 43.4861 57.0376 43.4118C58.5845 43.378 60.129 43.2338 61.6752 43.1631C62.066 43.1362 62.2236 43.0223 62.1788 42.5999C62.1126 42.0122 62.1001 41.4418 62.0872 40.853C62.0796 40.5034 61.9527 40.3957 61.6326 40.4027C57.2553 40.3512 52.8775 40.2812 48.518 40.2293C47.8241 40.226 47.1488 40.2592 46.4732 40.274C46.4985 41.4332 46.5214 42.482 46.5452 43.5676Z" fill="black"/>
<path d="M30.6591 59.0468C30.8635 60.2573 31.0678 61.4678 31.2718 62.6599C31.3942 63.3752 31.5525 64.1081 31.6927 64.823C31.7129 64.933 31.7334 65.0614 31.7359 65.1718C31.8699 66.4207 31.2499 67.3546 30.2222 67.5428C29.2119 67.7122 28.272 67.0332 28.0681 65.8411C27.8847 64.7774 27.8606 63.6734 27.7306 62.6085C27.5735 61.1208 27.416 59.6147 27.2234 58.1278C27.0526 56.8245 27.709 55.9266 28.9722 55.9358C30.6267 55.9364 32.2641 55.9742 33.9202 56.0485C36.8932 56.1491 39.8223 55.8642 42.7695 55.5972C43.391 55.5468 44.0295 55.4592 44.6526 55.4824C45.7926 55.5495 46.4702 56.4368 46.3178 57.5999C46.0771 59.6117 45.8361 61.6051 45.5777 63.6173C45.517 64.0973 45.403 64.5784 45.2167 65.0059C44.8622 65.8788 44.1982 66.4272 43.2574 66.5214C42.6536 66.5714 42.0317 66.6035 41.4272 66.6167C39.2219 66.6465 36.9989 66.6767 34.7932 66.6881C34.4198 66.6963 34.0456 66.6676 33.6876 66.565C33.079 66.3942 32.7113 65.85 32.6976 65.2244C32.6844 64.6172 33.0457 64.057 33.664 63.8594C34.0172 63.7412 34.3906 63.7331 34.7636 63.7065C37.1794 63.5432 39.5952 63.38 42.0106 63.1983C42.1529 63.1952 42.3982 63.0241 42.4131 62.8949C42.6513 61.5827 42.8539 60.2712 43.0577 59.015C38.9483 59.0128 34.8392 59.029 30.6591 59.0468Z" fill="black"/>
<path d="M83.2844 32.3631C80.0576 32.0471 76.8668 31.7486 73.6581 31.4506C73.6581 31.4506 73.6412 31.4878 73.642 31.5246C74.4589 33.0899 75.1357 34.7503 76.2864 36.1242C76.6889 36.6309 77.0396 37.2123 77.2667 37.8332C77.5495 38.5634 77.477 39.3197 76.9036 39.9398C76.3474 40.541 75.6035 40.6861 74.8862 40.4257C74.2942 40.1993 73.7175 39.8622 73.2278 39.4311C72.2297 38.5324 71.5461 37.3692 70.915 36.168C70.1356 34.694 69.6391 33.1401 69.301 31.5091C69.2222 31.161 69.196 30.775 69.2057 30.4066C69.2463 29.0067 70.2025 27.9917 71.5369 27.9993C72.3552 27.9999 73.1768 28.1476 73.9975 28.2585C77.6195 28.75 81.2335 28.8734 84.875 28.6281C85.5676 28.5762 86.2607 28.5426 86.9561 28.6194C87.8294 28.6924 88.5329 29.1372 88.8202 30.0698C89.1066 30.9656 88.8026 31.7086 88.1762 32.3482C88.1414 32.3857 88.1067 32.4233 88.0715 32.4425C86.1332 34.1049 84.2131 35.7852 82.2748 37.4476C82.0825 37.5991 81.8901 37.7505 81.6614 37.866C81.1687 38.1161 80.6693 38.0534 80.306 37.7115C79.9601 37.3509 79.8587 36.7825 80.1324 36.2795C80.286 35.9816 80.4937 35.7193 80.7018 35.4754C81.4467 34.5571 82.2275 33.6564 82.9724 32.7381C83.1114 32.5878 83.1975 32.457 83.2844 32.3631Z" fill="black"/>
<path d="M6.25882 35.7594C6.17385 32.687 6.78555 29.7466 7.70074 26.8548C8.51649 24.2965 9.36822 21.7559 10.1306 19.1988C10.4787 18.0314 10.6299 16.8132 10.8171 15.6125C10.8794 15.2061 10.7813 14.7849 10.7364 14.3625C10.6912 13.9216 10.4221 13.8171 10.0337 13.9544C8.97492 14.3457 8.1541 15.0448 7.66139 16.1049C7.54255 16.3652 7.56716 16.6776 7.55582 16.9724C7.54206 17.1568 7.61721 17.3393 7.63901 17.5229C7.66766 18.0193 7.55286 18.4636 7.09578 18.7129C6.70943 18.9423 6.13802 18.8443 5.75577 18.4477C5.10077 17.7809 4.90444 16.9384 5.02657 16.0152C5.0569 15.7753 5.12239 15.5161 5.22424 15.293C6.17331 13.1368 7.70626 11.649 9.89662 10.9384C11.6808 10.3655 13.2823 11.1957 14.0147 12.9653C14.5028 14.1328 14.6013 15.3825 14.3433 16.6031C14.0704 17.9529 13.7264 19.3043 13.2563 20.5848C12.4668 22.719 11.5517 24.8008 10.7085 26.9179C9.59535 29.7036 8.96425 32.5707 9.13732 35.6044C9.1716 36.3584 9.29439 37.0921 9.39979 37.8445C9.48218 38.3582 9.63408 38.7967 10.0866 39.155C10.7748 39.7106 10.8652 40.5922 10.4352 41.2644C10.0048 41.9181 9.1553 42.1207 8.40005 41.7507C7.69895 41.4162 7.29367 40.7808 6.99389 40.0878C6.5434 39.0115 6.35843 37.8742 6.29752 36.7158C6.2733 36.4218 6.26606 36.0906 6.25882 35.7594Z" fill="black"/>
<path d="M44.512 23.0125C44.3995 20.3088 44.3048 17.6048 44.2101 14.9008C44.1984 14.3672 44.2223 13.8328 44.2996 13.2973C44.4079 12.5585 44.8602 12.0884 45.588 12.0173C47.1507 11.8911 48.7134 11.7649 50.2773 11.6938C51.2371 11.6544 51.7814 12.1396 51.8391 13.1508C52.063 16.8829 52.6066 20.5896 52.5286 24.3467C52.4743 26.7411 52.6336 29.1491 52.7041 31.5591C52.7098 31.8167 52.7514 32.092 52.8459 32.3476C53.1497 33.2246 52.8999 34.0032 52.0726 34.4079C51.5622 34.6584 50.9787 34.8184 50.4109 34.8861C49.1508 35.0241 47.8714 35.0889 46.5916 35.1353C45.863 35.1696 45.3728 34.7201 45.2493 33.9496C45.1249 33.1424 45.0182 32.3347 44.9824 31.5071C44.8493 28.675 44.734 25.8426 44.6183 22.9917C44.5831 23.0109 44.5475 23.0117 44.512 23.0125ZM46.6744 23.4622C46.7099 23.4615 46.7455 23.4607 46.781 23.4599C46.9339 26.3836 47.1046 29.3068 47.2393 32.2125C47.2647 32.5617 47.3916 32.6694 47.7116 32.6624C48.7078 32.659 49.5884 32.2532 50.4871 31.8653C50.8573 31.71 50.9418 31.5056 50.9334 31.1192C50.7991 28.232 50.7359 25.3432 50.5305 22.4575C50.3489 19.8474 50.0073 17.2408 49.7545 14.6323C49.7097 14.2099 49.5634 14.029 49.1197 14.0755C48.4101 14.1646 47.6993 14.1986 46.988 14.2141C46.5791 14.2231 46.4756 14.3726 46.4845 14.7774C46.5654 17.6658 46.6108 20.555 46.6744 23.4622Z" fill="black"/>
<path d="M121.161 83.7792C125.447 83.6855 128.071 87.3467 127.055 91.3452C126.711 92.6966 125.988 93.7985 124.904 94.6507C124.746 94.7646 124.589 94.9152 124.504 95.0828C124.112 95.8645 123.481 96.2833 122.702 96.4844C120.579 97.0279 118.683 96.5539 117.206 94.8926C115.346 92.8163 115.061 90.3557 116.072 87.7932C117.066 85.2494 119.013 83.9735 121.161 83.7792ZM124.171 89.641C124.095 89.4034 124.013 88.9266 123.808 88.4892C122.989 86.8135 121.027 86.5803 119.921 88.0772C119.559 88.5821 119.288 89.214 119.177 89.8423C118.909 91.4129 120.059 92.7684 121.481 92.6821C121.996 92.6524 122.511 92.6044 123.025 92.5195C123.149 92.4984 123.289 92.4033 123.375 92.2909C123.894 91.58 124.179 90.7822 124.171 89.641Z" fill="black"/>
<path d="M47.2167 83.2422C47.2963 82.817 47.3222 82.3747 47.4556 81.9667C48.0211 80.1687 48.9108 78.5477 50.1067 77.1041C50.3665 76.7854 50.6434 76.4296 50.9946 76.2194C51.2581 76.0664 51.6654 75.9839 51.9346 76.0884C52.4902 76.2788 53.0648 76.5239 53.5525 76.863C54.9798 77.8627 56.4074 78.8808 57.7829 79.9553C58.2896 80.3492 58.7454 80.8547 59.1305 81.3801C59.699 82.1593 59.7894 83.0409 59.3998 83.9331C58.4002 86.2192 56.9302 88.1474 55.171 89.8611C54.5611 90.4451 53.5116 90.4497 52.8243 89.9308C52.6614 89.8055 52.4978 89.6434 52.3523 89.4993C51.0977 88.2566 49.8426 86.9954 48.5702 85.753C47.6618 84.8892 47.2913 84.2162 47.2167 83.2422ZM53.9545 87.108C54.9261 85.9822 55.7716 84.7856 56.4898 83.4628C56.6947 83.0718 56.6887 82.7958 56.3622 82.5084C54.9475 81.2691 53.5324 80.0114 52.1178 78.7721C52.0996 78.7541 52.0644 78.7733 52.1355 78.7717C51.7479 79.7559 51.3768 80.6844 50.988 81.6134C50.8021 82.0593 50.5802 82.4875 50.3583 82.9158C50.1703 83.2696 50.2127 83.5817 50.521 83.8511C51.6472 84.9126 52.7737 85.9925 53.9545 87.108Z" fill="black"/>
<path d="M45.9913 76.8259C45.9451 77.9683 45.6685 79.1525 45.0514 80.2153C44.5372 81.1102 43.952 82.0066 43.2387 82.7401C41.0118 85.0347 38.2827 86.3278 35.1201 86.5074C33.6988 86.5937 32.3734 86.1808 31.147 85.4161C30.2996 84.9007 29.6786 84.1596 29.4956 83.1143C29.3736 82.4174 29.6436 81.7488 30.1714 81.4795C30.4175 81.3453 30.6123 81.3042 30.7448 81.6695C30.8014 81.8155 31.0002 81.9584 31.1792 82.0097C32.6312 82.5118 34.1292 82.6816 35.6123 82.1705C36.8134 81.7761 38.014 81.3632 39.1593 80.8596C40.4986 80.278 41.6537 79.406 42.6248 78.2618C43.3701 77.3619 43.9356 76.3738 44.2303 75.2076C44.4102 74.4858 44.9412 74.3637 45.4334 74.9052C45.7623 75.303 45.9727 75.9795 45.9913 76.8259Z" fill="black"/>
<path d="M92.0513 40.3633C93.6516 40.3283 96.3543 40.2692 99.0393 40.2105C99.3593 40.2035 99.6794 40.1965 100 40.2263C100.659 40.2671 101.095 40.6626 101.215 41.2491C101.316 41.8359 101.01 42.4501 100.392 42.6845C99.9333 42.8603 99.4379 42.9815 98.9412 43.0476C94.2926 43.6095 89.6207 43.9141 84.9225 43.8328C83.8015 43.8205 82.697 43.7526 81.5918 43.6479C81.0927 43.6036 80.573 43.4309 80.1229 43.183C79.8707 43.0412 79.6307 42.6415 79.5883 42.3294C79.5261 41.9258 79.8583 41.6608 80.2119 41.5611C80.8133 41.4006 81.4316 41.203 82.0531 41.1526C85.0359 40.8849 87.9847 40.6915 92.0513 40.3633Z" fill="black"/>
<path d="M29.625 17.4289C30.5136 17.3911 31.3368 17.6124 32.0933 18.0376C33.5884 18.8886 35.0314 19.7959 36.32 20.9643C36.6651 21.2881 37.0789 21.4999 37.4587 21.7862C37.7484 22.0192 37.8082 22.3124 37.512 22.595C37.1984 22.8964 36.9041 23.271 36.5343 23.4448C34.2094 24.5081 31.8166 24.9102 29.3112 24.2286C27.8079 23.8197 26.5435 22.9453 25.4861 21.7718C25.3402 21.6094 25.1935 21.4101 25.0646 21.2104C24.1794 19.7754 24.666 18.4394 26.2401 18.0184C26.8414 17.8579 27.4618 17.7523 28.0817 17.6283C28.5957 17.5434 29.1106 17.4954 29.625 17.4289ZM26.9847 19.53C28.4798 21.1909 32.4169 22.2646 34.1616 21.5085C33.926 21.3112 33.7078 21.095 33.473 20.9345C32.8592 20.5245 32.2288 20.1701 31.6324 19.7413C30.1147 18.67 28.579 19.219 26.9847 19.53Z" fill="black"/>
<path d="M66.9216 17.8832C65.6591 17.9108 64.3975 17.9752 63.1516 17.9472C62.6 17.9409 62.0112 17.8617 61.5081 17.6334C60.3229 17.1255 60.1852 15.711 61.2542 14.9697C61.7274 14.6464 62.3105 14.4679 62.8597 14.3639C65.5718 13.918 68.3287 13.8945 71.0722 14.0739C71.3748 14.0857 71.6791 14.171 71.966 14.2752C72.6659 14.5545 73.089 15.1895 73.0873 15.9259C73.0852 16.6439 72.6552 17.316 71.931 17.5528C71.5248 17.6905 71.0819 17.7738 70.6552 17.7832C69.4113 17.8472 68.1662 17.856 66.9216 17.8832Z" fill="black"/>
<path d="M26.0749 14.5425C24.4193 14.4867 22.7459 14.4312 21.0902 14.3754C20.7875 14.3636 20.4845 14.3334 20.1806 14.2664C19.6265 14.1496 19.2984 13.7886 19.2702 13.3106C19.2403 12.759 19.5176 12.4216 19.9763 12.2459C20.4701 12.051 20.9825 11.8925 21.514 11.7889C24.4551 11.2459 27.4371 10.9414 30.428 11.0417C30.9978 11.066 31.5873 11.182 32.1422 11.3356C32.8045 11.5236 33.154 12.0498 33.1491 12.639C33.1438 13.2098 32.8176 13.7507 32.1811 13.9303C31.421 14.1495 30.6406 14.2586 29.8607 14.3861C29.577 14.4291 29.2743 14.4173 28.9902 14.4419C28.03 14.4629 27.0521 14.4843 26.0919 14.5053C26.0745 14.5241 26.0745 14.5241 26.0749 14.5425Z" fill="black"/>
<path d="M56.0327 31.6336C56.0182 30.9712 55.9856 30.2908 55.9889 29.628C56.0002 29.3333 56.0467 29.0193 56.1656 28.759C56.3673 28.2207 56.8761 27.8966 57.3602 28.0701C58.7228 28.5558 60.1049 28.3046 61.4902 28.2007C61.7032 28.1777 61.9161 28.1546 62.1125 28.1871C62.7543 28.2467 63.2436 28.6594 63.2759 29.3214C63.3622 30.8291 63.4489 32.3551 63.4286 33.8651C63.4168 34.9515 62.7677 35.3706 61.7336 35.2644C60.9315 35.1899 60.1313 35.2074 59.3308 35.2065C58.7791 35.2001 58.2291 35.2674 57.6957 35.2791C56.6289 35.3024 56.0474 34.7444 56.0055 33.6408C55.9732 32.9788 55.9761 32.2976 55.9616 31.6352C55.9794 31.6348 56.0149 31.634 56.0327 31.6336ZM58.4596 33.6056C59.3487 33.5861 60.167 33.5866 60.9841 33.5319C61.1086 33.5292 61.3002 33.341 61.2978 33.2306C61.3302 32.2726 61.3274 31.3338 61.3065 30.377C61.3041 30.2666 61.1401 30.0861 61.0334 30.0884C60.1617 30.0891 59.2726 30.1085 58.3658 30.1283C58.4077 31.232 58.4331 32.3911 58.4596 33.6056Z" fill="black"/>
<path d="M82.415 18.6309C81.6168 18.7404 80.322 18.916 79.0091 19.0736C78.672 19.1178 78.335 19.162 77.9967 19.1509C77.0705 19.0976 76.5028 18.3552 76.7316 17.4298C76.8465 16.9854 77.0684 16.5572 77.3274 16.2018C78.1228 15.1535 78.5598 13.9842 78.7272 12.6919C78.8202 12.0639 78.8772 11.4184 79.6022 11.2184C80.345 11.0181 80.7301 11.5435 81.0974 12.0694C82.0336 13.3927 82.9872 14.6973 83.9234 16.0207C84.0333 16.1656 84.1258 16.3292 84.2179 16.4745C84.7755 17.5668 84.1409 18.6484 82.415 18.6309ZM81.0651 16.2857C80.7705 15.8319 80.5313 15.469 80.2553 15.0516C80.0524 15.5347 79.8831 15.925 79.6975 16.3892C80.1594 16.3607 80.5502 16.3338 81.0651 16.2857Z" fill="black"/>
<path d="M95.5613 34.9113C96.6637 34.8872 97.7657 34.8447 98.8511 34.8577C99.2245 34.8496 99.6177 34.933 99.9935 35.0353C100.441 35.1543 100.715 35.4981 100.743 35.9761C100.772 36.4541 100.549 36.8272 100.126 37.0205C99.862 37.1551 99.544 37.2542 99.2603 37.2972C96.3886 37.765 93.4943 38.0123 90.5734 37.8553C90.2885 37.8431 90.0024 37.7757 89.7329 37.6528C89.3199 37.4777 89.0459 37.1523 89.0177 36.6743C88.989 36.1779 89.2303 35.8229 89.6171 35.6119C89.8806 35.4589 90.1805 35.3419 90.4823 35.3169C92.1683 35.1327 93.8547 34.967 95.5411 34.8013C95.5596 34.8377 95.5604 34.8745 95.5613 34.9113Z" fill="black"/>
<path d="M98.3105 23.9715C98.4141 23.012 98.4481 22.1276 98.607 21.2589C98.7813 20.2794 99.343 19.9358 100.274 20.2284C101.511 20.6248 102.73 21.0583 103.949 21.4919C104.415 21.6474 104.795 21.9336 104.86 22.4844C104.926 23.0721 104.56 23.4114 104.121 23.6604C103.436 24.0619 102.733 24.4455 102.066 24.865C101.61 25.1512 101.172 25.4737 100.788 25.8318C100.039 26.5294 99.0211 26.3675 98.6442 25.4001C98.4212 24.9632 98.3917 24.4299 98.3105 23.9715Z" fill="black"/>
<path d="M81.3885 85.6062C81.287 85.8477 81.156 86.366 80.9172 86.8314C80.4725 87.6512 79.8105 88.2915 79.0007 88.6774C78.0498 89.1216 77.0625 89.5298 76.072 89.7908C75.5591 89.9308 74.9517 89.8153 74.4321 89.6425C73.8409 89.453 73.5605 88.8332 73.6911 88.2965C73.7242 88.1853 73.8636 88.0534 73.9869 87.9955C74.2516 87.8976 74.5357 87.873 74.7822 87.7572C76.1551 87.0828 77.4907 86.3357 78.624 85.28C78.9032 85.0346 79.1651 84.808 79.1369 84.33C79.1094 83.8887 79.4796 83.7334 79.8704 83.7064C80.6705 83.6889 81.3627 84.4285 81.3885 85.6062Z" fill="black"/>
<path d="M35.2594 10.6969C35.3031 10.2541 35.2385 9.74011 35.7137 9.50881C36.189 9.27751 36.6383 9.4886 37.0016 9.83042C37.3281 10.1178 37.6028 10.48 37.842 10.8429C38.6134 11.949 39.35 13.0927 40.1213 14.1987C40.5989 14.8878 40.6328 15.6234 40.1821 16.1672C39.7137 16.7113 38.9511 16.82 38.2303 16.3939C38.122 16.3227 38.0137 16.2514 37.905 16.1617C36.7461 15.2298 35.275 12.2245 35.2594 10.6969Z" fill="black"/>
<path d="M13.6813 75.0104C11.957 75.0665 9.30452 73.3573 8.59304 71.7344C8.38699 71.2603 8.3232 70.7831 8.50793 70.282C8.67608 69.8365 8.95736 69.6831 9.38812 69.8578C9.72918 69.9976 10.071 70.1742 10.3781 70.3884C11.5698 71.1907 12.778 71.9375 14.158 72.4043C14.8571 72.6468 15.2074 73.2098 15.0978 73.8933C14.987 74.5216 14.4103 74.9945 13.6813 75.0104Z" fill="black"/>
<path d="M33.8627 90.0141C34.186 90.1543 34.5093 90.2945 34.8326 90.4347C34.6967 90.7322 34.6159 91.1022 34.4073 91.3276C33.9563 91.853 33.4325 92.3062 32.9447 92.7771C32.5091 93.1916 32.0556 93.6065 31.6381 94.0391C31.2732 94.4336 31.0339 94.8807 30.9752 95.4526C30.9178 96.0798 30.4999 96.4939 29.9677 96.5608C29.4003 96.6468 28.8422 96.3461 28.6516 95.7612C28.517 95.3039 28.5413 94.7879 28.5305 94.2911C28.5272 94.1439 28.5951 93.9952 28.6457 93.8652C29.3025 92.1756 32.0511 90.1458 33.8627 90.0141Z" fill="black"/>
<path d="M35.8762 75.5193C37.3657 76.1127 39.6623 75.3813 40.4896 74.1666C40.8861 73.5873 41.4729 73.5745 41.8939 74.1175C42.2782 74.6062 42.2903 75.1582 42.0894 75.7332C41.8723 76.3823 41.4378 76.852 40.8575 77.1592C39.6625 77.8297 38.3847 77.9681 37.0616 77.6656C36.4716 77.5313 36.0009 77.155 35.8446 76.5141C35.8022 76.2021 35.8664 75.8877 35.8762 75.5193Z" fill="black"/>
<path d="M20.8537 26.3462C21.2627 26.3372 21.6535 26.3103 22.0629 26.3197C22.7571 26.3414 23.2646 26.7721 23.3313 27.3781C23.3979 27.9841 23.0366 28.5443 22.3819 28.7059C20.8604 29.0889 19.3458 28.9748 17.8429 28.5842C17.4315 28.4828 17.1224 28.1766 17.1293 27.6794C17.1362 27.1822 17.4499 26.8808 17.8568 26.7799C18.8481 26.5557 19.841 26.4051 20.8332 26.2178C20.8521 26.2726 20.8529 26.3094 20.8537 26.3462Z" fill="black"/>
<path d="M97.6673 31.165C98.1486 31.2097 98.6294 31.236 99.1115 31.3175C99.683 31.4154 100.012 31.8132 100.041 32.328C100.07 32.8612 99.7967 33.3643 99.2116 33.4507C98.219 33.6197 97.2071 33.7154 96.1932 33.7192C95.4816 33.7164 95.0613 33.2101 95.0129 32.6221C94.9823 32.0337 95.3456 31.5655 96.0346 31.3479C96.1939 31.3076 96.3531 31.2673 96.5127 31.2454C96.9035 31.2185 97.2773 31.2287 97.6685 31.2202C97.6681 31.2018 97.6677 31.1834 97.6673 31.165Z" fill="black"/>
<path d="M86.4443 69.4982C86.4206 68.4126 87.1663 67.5311 88.126 67.4917C89.1391 67.4511 89.9238 68.3544 89.9512 69.6056C89.9733 70.6176 89.2434 71.4067 88.2833 71.4277C87.2871 71.4311 86.4681 70.5838 86.4443 69.4982Z" fill="black"/>
<path d="M39.7282 47.4905C39.7491 48.4473 39.0366 49.2176 38.0942 49.2382C37.1696 49.2584 36.4237 48.5016 36.4028 47.5448C36.3822 46.6064 37.077 45.8364 37.9834 45.7982C38.908 45.778 39.7073 46.5337 39.7282 47.4905Z" fill="black"/>
<path d="M4.1336 20.7474C4.11992 20.1218 4.41012 19.5632 4.85062 19.3695C5.25597 19.1949 5.86375 19.3289 6.23064 19.8363C6.57974 20.3441 6.91227 20.9075 7.08517 21.4928C7.37201 22.407 6.55278 23.1797 5.6585 22.9599C4.83615 22.7754 4.15573 21.7594 4.1336 20.7474Z" fill="black"/>
<path d="M20.5629 22.7997C21.2269 23.0613 21.9256 23.2854 22.5555 23.6213C23.1318 23.9401 23.2703 24.5814 22.9967 25.0844C22.74 25.5502 22.1403 25.7843 21.5996 25.4647C20.9866 25.0916 20.4245 24.6068 19.915 24.0841C19.7332 23.904 19.6164 23.4463 19.7187 23.2416C19.8028 23.0188 20.2109 22.9731 20.5629 22.7997Z" fill="black"/>
<path d="M79.4889 6.04782C80.2535 6.0311 80.8718 6.64348 80.8883 7.39788C80.8862 8.11587 80.3115 8.6807 79.5647 8.69703C78.8352 8.69457 78.2538 8.13661 78.2377 7.40061C78.1856 6.64698 78.7421 6.06415 79.4889 6.04782Z" fill="black"/>
<path d="M50.0551 72.3007C50.039 71.5647 50.6299 70.9259 51.3233 70.9107C52.0168 70.8955 52.5453 71.4731 52.5622 72.2459C52.5613 73.0191 52.0226 73.6015 51.2928 73.5807C50.5989 73.5774 50.0708 73.0183 50.0551 72.3007Z" fill="black"/>
<path d="M86.7413 6.58872C87.3281 6.57589 87.8368 7.06181 87.8501 7.66901C87.8637 8.29461 87.3771 8.8207 86.7726 8.83392C86.1854 8.82835 85.6945 8.34204 85.6812 7.73484C85.6675 7.10924 86.1367 6.60194 86.7413 6.58872Z" fill="black"/>
</g>
</mask>
<g mask="url(#mask0_1497_21843)">
<path fill-rule="evenodd" clip-rule="evenodd" d="M122.949 160.672C101.22 165.375 81.8135 147.03 65.7422 131.72C49.6574 116.398 35.3467 98.1777 34.1014 76.0372C32.82 53.2571 41.6494 29.7939 59.1836 15.1188C75.4447 1.50924 98.3589 2.97822 119.535 4.53434C138.123 5.90022 155.893 11.0417 169.931 23.2569C184.704 36.1124 199.782 53.037 197.599 72.4621C195.511 91.0398 172.128 97.0215 160.034 111.313C146.211 127.647 143.902 156.138 122.949 160.672Z" fill="#0FBA01"/>
</g>
<defs>
<clipPath id="clip0_1497_21843">
<rect width="228.167" height="164.591" fill="white" transform="translate(231.71 164.552) rotate(178.747)"/>
</clipPath>
</defs>
</svg>
