<svg width="33" height="32" viewBox="0 0 33 32" fill="none" xmlns="http://www.w3.org/2000/svg">
<path d="M16.3506 18.9584C18.2353 11.1443 16.4074 4.00031 12.2679 3.00193C8.12845 2.00354 3.24492 7.52881 1.36025 15.343C-0.524421 23.1571 1.30346 30.3011 5.44294 31.2995C9.58242 32.2979 14.466 26.7726 16.3506 18.9584Z" fill="black"/>
<path d="M31.5874 16.6565C33.4721 8.84231 31.6442 1.69834 27.5047 0.699955C23.3653 -0.298431 18.4817 5.22684 16.5971 13.041C14.7124 20.8551 16.5403 27.9991 20.6798 28.9975C24.8192 29.9959 29.7028 24.4706 31.5874 16.6565Z" fill="black"/>
<path d="M23.9616 28.377C27.6236 26.2054 27.269 18.8409 23.1695 11.928C19.07 5.01516 12.7781 1.17166 9.11605 3.34333C5.45401 5.515 5.80865 12.8795 9.90814 19.7923C14.0076 26.7052 20.2996 30.5487 23.9616 28.377Z" fill="black"/>
</svg>
