<svg width="201" height="48" viewBox="0 0 201 48" fill="none" xmlns="http://www.w3.org/2000/svg">
<g clip-path="url(#clip0_1143_43199)">
<path d="M75.5154 9.918H80.553V35.4718H76.7189L65.7675 19.8471V35.4718H60.73V9.918H64.5585L75.5154 25.4854V9.918Z" fill="black"/>
<path d="M89.0584 28.2842C89.6906 30.5729 91.4061 31.7165 94.205 31.7153C96.0056 31.7153 97.3686 31.1071 98.2942 29.8907L102.089 32.0813C100.289 34.6867 97.6361 35.9888 94.131 35.9875C91.1141 35.9875 88.6929 35.0749 86.8677 33.2497C85.0425 31.4245 84.1299 29.1241 84.1299 26.3487C84.1299 23.6004 85.0302 21.3068 86.8308 19.4681C88.6313 17.6293 90.9434 16.7105 93.7669 16.7117C96.4437 16.7117 98.6522 17.6361 100.392 19.4847C102.133 21.3333 103.003 23.6207 103.003 26.3469C102.998 26.9962 102.936 27.6439 102.818 28.2824L89.0584 28.2842ZM88.9844 24.6332H98.2942C98.0255 23.3933 97.4709 22.469 96.6304 21.8602C95.7994 21.2534 94.7938 20.9329 93.765 20.947C92.4981 20.947 91.4505 21.2693 90.6223 21.9138C89.7941 22.5584 89.2482 23.4636 88.9844 24.6295V24.6332Z" fill="black"/>
<path d="M122.096 35.4717H116.65L112.695 29.948L108.734 35.4791H103.295L109.994 26.1546L103.587 17.2201H109.026L112.708 22.3686L116.405 17.2275H121.809L115.42 26.149L122.096 35.4717Z" fill="black"/>
<path d="M134.871 21.7456H130.747V29.3398C130.747 29.972 130.905 30.4342 131.22 30.7263C131.536 31.0184 131.999 31.1829 132.609 31.2199C133.363 31.2545 134.118 31.2483 134.871 31.2014V35.4718C131.634 35.8415 129.354 35.5377 128.031 34.5604C126.709 33.5831 126.045 31.8429 126.041 29.3398V21.7456H122.861V17.2201H126.037V13.5228L130.747 12.0994V17.2201H134.871V21.7456Z" fill="black"/>
<path d="M154.145 22.2207C156.385 23.5111 157.504 25.4583 157.504 28.0624C157.504 30.2266 156.738 32.0031 155.205 33.3921C153.671 34.781 151.788 35.4742 149.555 35.4718H138.704V9.918H148.781C150.969 9.918 152.812 10.5958 154.31 11.9515C155.807 13.3072 156.556 15.0289 156.556 17.1166C156.556 19.2302 155.752 20.9316 154.145 22.2207ZM148.784 14.6265H143.743V20.2501H148.781C149.144 20.2589 149.505 20.192 149.841 20.0535C150.177 19.9151 150.481 19.7081 150.733 19.4459C150.992 19.1812 151.195 18.867 151.33 18.522C151.465 18.1771 151.529 17.8085 151.518 17.4383C151.529 17.0696 151.467 16.7024 151.335 16.3579C151.204 16.0133 151.005 15.6982 150.751 15.4307C150.498 15.1652 150.192 14.9564 149.852 14.8178C149.512 14.6792 149.147 14.614 148.781 14.6265H148.784ZM149.555 30.7633C149.948 30.7747 150.34 30.7043 150.704 30.5567C151.069 30.409 151.399 30.1873 151.674 29.9055C151.953 29.6178 152.171 29.2769 152.315 28.903C152.459 28.5292 152.526 28.1301 152.513 27.7297C152.524 27.3357 152.455 26.9435 152.311 26.5767C152.166 26.2099 151.95 25.8758 151.674 25.5945C151.399 25.313 151.069 25.0917 150.704 24.9447C150.34 24.7977 149.948 24.7281 149.555 24.7404H143.743V30.7633H149.555Z" fill="black"/>
<path d="M173.018 17.2201H177.728V35.4717H173.018V33.4271C171.874 35.1316 170.061 35.9838 167.579 35.9838C165.583 35.9838 163.934 35.3146 162.632 33.9762C161.331 32.6378 160.68 30.7891 160.68 28.4303V17.2201H165.389V27.8424C165.389 29.0588 165.717 29.9899 166.374 30.6357C167.031 31.2815 167.907 31.6068 169.003 31.6118C170.219 31.6118 171.193 31.2347 171.924 30.4804C172.654 29.7262 173.019 28.5942 173.018 27.0844V17.2201Z" fill="black"/>
<path d="M195.871 9.918H200.578V35.4718H195.867V33.3181C194.481 35.0953 192.509 35.9839 189.952 35.9839C187.493 35.9839 185.394 35.0528 183.655 33.1906C181.916 31.3284 181.046 29.0484 181.045 26.3506C181.045 23.6503 181.915 21.3703 183.655 19.5106C185.395 17.6509 187.494 16.7198 189.952 16.7173C192.507 16.7173 194.478 17.6059 195.867 19.383L195.871 9.918ZM187.201 30.0516C188.162 31.0129 189.373 31.4935 190.833 31.4935C192.294 31.4935 193.499 31.0129 194.448 30.0516C195.397 29.0903 195.871 27.8548 195.871 26.345C195.871 24.8353 195.397 23.6029 194.448 22.6478C193.497 21.6865 192.293 21.2058 190.833 21.2058C189.374 21.2058 188.163 21.6865 187.201 22.6478C186.24 23.609 185.759 24.8415 185.759 26.345C185.759 27.8486 186.24 29.0841 187.201 30.0516Z" fill="black"/>
<path d="M24.475 28.4284C27.2962 16.7316 24.56 6.03794 18.3638 4.54348C12.1675 3.04902 4.85742 11.3197 2.0363 23.0165C-0.784812 34.7133 1.9513 45.4069 8.14759 46.9014C14.3439 48.3959 21.6539 40.1252 24.475 28.4284Z" fill="black"/>
<path d="M47.2822 24.9826C50.1033 13.2858 47.3672 2.59217 41.1709 1.09771C34.9746 -0.396752 27.6645 7.87389 24.8434 19.5707C22.0223 31.2675 24.7584 41.9612 30.9547 43.4556C37.151 44.9501 44.4611 36.6794 47.2822 24.9826Z" fill="black"/>
<path d="M35.8675 42.5269C41.3491 39.2762 40.8183 28.2525 34.6819 17.9048C28.5454 7.55707 19.1271 1.80382 13.6455 5.05454C8.16394 8.30526 8.69477 19.329 14.8312 29.6767C20.9676 40.0244 30.3859 45.7776 35.8675 42.5269Z" fill="black"/>
</g>
<defs>
<clipPath id="clip0_1143_43199">
<rect width="200.581" height="48" fill="white"/>
</clipPath>
</defs>
</svg>
