<svg width="18" height="19" viewBox="0 0 18 19" fill="none" xmlns="http://www.w3.org/2000/svg">
<path d="M6.19336 17.8333V11.1345C6.19336 10.6059 6.61309 10.1775 7.13086 10.1775H10.8809C11.3986 10.1775 11.8184 10.6059 11.8184 11.1345V17.8333M1.50586 15.9194V8.68551C1.50586 7.53739 2.01071 6.4499 2.88122 5.72286L7.81854 1.59929C8.50922 1.02244 9.50249 1.02244 10.1932 1.59929L15.1305 5.72286C16.001 6.4499 16.5059 7.53739 16.5059 8.68551V15.9194C16.5059 16.9764 15.6664 17.8333 14.6309 17.8333H12.7559H5.25586H3.38086C2.34533 17.8333 1.50586 16.9764 1.50586 15.9194Z" stroke="white" stroke-width="2" stroke-linecap="round"/>
</svg>
