<svg width="136" height="186" viewBox="0 0 136 186" fill="none" xmlns="http://www.w3.org/2000/svg">
<mask id="mask0_1479_2147" style="mask-type:alpha" maskUnits="userSpaceOnUse" x="-129" y="0" width="265" height="282">
<g clip-path="url(#clip0_1479_2147)">
<path d="M57.2143 207.622C55.0845 205.325 53.7259 202.649 53.0478 199.664C52.7037 198.179 52.7383 196.694 53.066 195.237C53.1999 194.618 53.4955 194.023 53.7304 193.386C53.5888 193.333 53.3968 193.287 53.2348 193.198C52.9058 192.994 52.5263 192.799 52.2627 192.533C51.8469 192.098 51.7993 191.548 52.07 191.022C52.3407 190.496 52.8144 190.26 53.4156 190.326C53.7238 190.365 54.0423 190.453 54.3255 190.561C56.3887 191.326 58.292 191.184 60.0544 189.912C60.2156 189.807 60.3768 189.702 60.5583 189.632C60.9314 189.478 61.3102 189.478 61.6194 189.776C61.9285 190.074 61.9805 190.454 61.8203 190.819C61.3248 191.967 60.5001 192.846 59.3149 193.242C58.4475 193.532 57.4933 193.59 56.5697 193.734C56.3275 193.762 56.0749 193.74 55.7971 193.723C55.9315 195.84 55.8386 197.932 56.5586 199.976C57.1405 201.602 57.8888 203.149 58.8287 204.611C58.8897 204.717 59.0012 204.815 59.0975 204.902C58.4596 205.802 57.837 206.712 57.2143 207.622Z" fill="black"/>
<path d="M71.6155 186.573C71.0782 186.055 70.5057 185.555 70.0137 185.003C67.2445 181.88 68.041 177.62 71.7459 175.888C74.1754 174.748 76.7244 174.445 79.3886 175.212C78.7358 176.166 78.073 177.135 77.4202 178.089C75.8754 178.196 74.4634 178.695 73.2144 179.543C72.0912 180.304 71.8434 181.514 72.5601 182.716C72.8041 183.141 73.1439 183.524 73.4232 183.931C72.8207 184.812 72.2181 185.692 71.6155 186.573Z" fill="black"/>
<path d="M41.1747 115.816C40.9069 115.783 40.7504 115.784 40.5887 115.759C38.401 115.469 36.5339 114.515 35.0833 112.855C33.1507 110.627 33.2543 107.38 35.2501 105.082C36.0293 104.171 36.981 103.465 38.0799 102.967C40.9985 101.602 44.0817 101.039 47.3558 101.534C51.7366 102.203 55.6414 103.862 58.8201 107.071C59.692 107.948 60.4533 108.921 60.9979 110.048C63.0951 114.349 61.1621 118.543 56.5762 119.673C56.0062 119.821 55.431 119.945 54.8053 120.077C54.8208 120.152 54.8416 120.318 54.8776 120.493C55.0374 121.335 55.2225 122.173 55.3166 123.013C55.6773 126.169 53.5905 128.469 50.384 128.495C49.7983 128.504 49.2324 128.418 48.5807 128.36C48.6067 128.551 48.6175 128.73 48.6535 128.906C48.8697 129.959 49.1263 131.018 49.3072 132.09C49.4211 132.836 49.5251 133.597 49.4673 134.333C49.3673 135.881 48.0629 136.777 46.5361 136.336C45.8284 136.131 45.115 135.773 44.5627 135.309C43.0276 134 41.5679 132.613 40.093 131.216C39.8193 130.964 39.6059 130.624 39.443 130.276C39.1578 129.65 39.2413 129.039 39.6736 128.537C40.0959 128.05 40.6858 127.807 41.3027 128.014C41.8487 128.194 42.4205 128.499 42.8412 128.894C43.8699 129.835 44.8384 130.864 45.827 131.864C45.9943 132.043 46.1717 132.207 46.3239 132.376C46.3844 132.353 46.4348 132.344 46.4801 132.311C46.4189 132.139 46.3476 131.983 46.2863 131.812C45.9999 130.861 45.6781 129.93 45.4522 128.957C45.298 128.269 45.2093 127.519 45.2621 126.822C45.3683 125.559 46.3802 124.765 47.6683 124.87C48.2796 124.922 48.8612 125.147 49.4675 125.239C50.1142 125.337 50.7865 125.495 51.4276 125.438C52.7451 125.305 53.3476 124.424 53.0548 123.125C52.9109 122.488 52.6156 121.876 52.3608 121.271C52.0653 120.595 51.6689 119.935 51.3986 119.255C50.8225 117.848 51.5093 116.551 53.0181 116.269C53.5985 116.17 54.1994 116.172 54.8003 116.173C55.7092 116.149 56.5619 115.978 57.3377 115.496C57.9523 115.119 58.2735 114.585 58.306 113.853C58.3514 112.548 57.953 111.37 57.1712 110.296C55.9224 108.601 54.2767 107.454 52.3347 106.707C50.2663 105.917 48.149 105.524 45.9471 105.483C44.1139 105.457 42.3835 105.868 40.7706 106.661C40.3421 106.863 39.9492 107.112 39.5615 107.385C38.1564 108.363 37.7821 109.529 39.0719 111.36C39.935 112.575 41.2753 113.126 42.7352 113.241C42.8817 113.255 43.1487 113.093 43.1835 112.945C43.2929 112.524 43.3921 112.053 43.345 111.633C43.2822 111.073 43.3716 110.681 43.7798 110.443C44.1778 110.22 44.7437 110.306 45.1188 110.67C45.6865 111.209 45.8406 111.897 45.8182 112.614C45.749 114.312 45.0931 115.76 44.0072 117.021C42.8811 118.341 41.4964 119.354 39.8985 120.093C35.372 122.211 30.5997 123.45 25.5461 123.763C22.8905 123.929 20.2453 124.145 17.6103 124.411C15.3338 124.642 13.1802 125.345 11.1083 126.255C9.7774 126.831 8.59375 127.616 7.60805 128.665C7.44712 128.835 7.29133 129.03 7.15073 129.236C6.51314 130.2 6.71287 130.919 7.73521 131.511C7.98828 131.662 8.21638 131.883 8.44937 132.064C8.16717 132.216 7.92049 132.413 7.62285 132.49C5.73608 132.966 4.10076 131.869 3.7853 129.95C3.537 128.423 4.10768 127.132 5.00714 125.981C6.02221 124.693 7.33667 123.782 8.81357 123.09C11.1474 121.993 13.5934 121.188 16.1931 120.941C19.035 120.666 21.9076 120.476 24.7907 120.402C29.2189 120.285 33.4883 119.586 37.5114 117.878C38.5802 117.424 39.5726 116.788 40.6056 116.224C40.8124 116.15 40.938 115.998 41.1747 115.816Z" fill="black"/>
<path d="M7.91277 67.8889C8.49651 67.3616 9.13096 66.8906 9.66398 66.3071C13.3197 62.3003 15.5637 57.5863 15.8658 52.1254C16.1585 46.8737 14.3881 42.1929 10.3944 38.4477C7.72861 35.9557 4.49825 35.0386 0.955189 35.5236C-0.619506 35.7392 -1.94476 36.4703 -3.0767 37.5706C-5.64751 40.057 -4.13661 44.237 -1.23893 45.3144C0.839531 46.09 3.40958 46.0167 5.0822 45.0061C4.95039 44.8728 4.83377 44.7499 4.72719 44.6123C4.43809 44.2852 4.13895 43.9728 3.89516 43.6121C3.43282 42.8863 3.48517 42.0602 3.98781 41.4559C4.52057 40.8076 5.23687 40.608 6.03577 40.8745C6.5718 41.0688 7.10318 41.3677 7.55397 41.7193C8.76449 42.6552 9.70335 43.8579 10.5516 45.1278C10.9884 45.793 11.2185 46.5323 11.0954 47.3316C10.997 47.9969 10.7652 48.1401 10.0932 48.0466C9.12311 47.9001 8.2882 47.4581 7.53851 46.859C7.17886 46.5699 6.95177 46.6084 6.61961 46.8984C3.52896 49.46 -1.34338 49.6391 -4.70026 47.3423C-8.80143 44.5364 -9.59567 38.9504 -6.3422 35.4011C-3.86818 32.6977 -0.691422 31.5094 3.03592 31.6676C8.12191 31.8934 12.1353 34.2083 14.8736 38.4522C19.4457 45.5239 20.4741 52.8863 16.903 60.4851C15.3805 63.7534 13.5187 66.7679 11.0445 69.4065C10.778 69.6983 10.471 69.9839 10.1589 70.2445C8.54319 71.5957 7.37196 71.6779 5.51934 70.5397C5.05687 71.0852 4.61474 71.6663 4.13708 72.2014C3.36769 73.0327 2.48657 73.7012 1.42781 74.1405C-0.851126 75.0595 -2.74907 73.9549 -3.10695 71.512C-3.30918 70.1453 -3.06678 68.8458 -2.79914 67.542C-2.74453 67.2992 -2.69996 67.0711 -2.62551 66.7342C-2.84206 66.8877 -2.97801 66.9886 -3.12916 67.0792C-4.09163 67.6059 -5.0438 68.1828 -6.04694 68.6386C-6.52585 68.8496 -7.1013 68.9085 -7.63657 68.9086C-8.94451 68.8972 -9.97815 67.9961 -10.1145 66.6961C-10.1723 66.0962 -10.1293 65.4792 -9.98504 64.9098C-9.21363 61.9897 -8.08307 59.2291 -6.43141 56.7172C-6.02481 56.0903 -5.44107 55.5631 -4.87228 55.0903C-4.33876 54.6364 -3.6374 54.4913 -2.9142 54.7706C-2.66138 54.8574 -2.4132 55.0487 -2.24071 55.2529C-1.93127 55.6155 -1.98538 55.9879 -2.41408 56.1256C-3.78591 56.5662 -4.39262 57.6811 -4.91824 58.8731C-5.81957 60.8423 -6.35686 62.9314 -6.70209 65.0656C-6.71678 65.1849 -6.71628 65.3145 -6.73046 65.5634C-6.28168 65.3964 -5.87821 65.263 -5.52546 65.0733C-3.71614 64.1563 -2.17069 62.9078 -0.767349 61.476C-0.616457 61.3206 -0.45552 61.1506 -0.25906 61.0264C0.159094 60.7738 0.613519 60.7614 1.05891 61.0231C1.5043 61.2847 1.71796 61.6895 1.6744 62.1769C1.64528 62.4802 1.5505 62.7817 1.44053 63.0728C0.610743 65.2634 0.190326 67.5401 0.189313 69.8883C0.195714 70.2375 0.227347 70.5824 0.269023 70.9126C0.284464 70.9878 0.325133 71.0588 0.36091 71.1694C1.39518 70.9289 2.18567 70.3276 2.80882 69.5472C3.34648 68.8591 3.77782 68.0983 4.19912 67.3521C4.32453 67.1363 4.35365 66.8329 4.36269 66.559C4.40739 65.0595 4.83621 63.6505 5.41668 62.2806C5.46175 62.1821 5.53205 62.0794 5.57712 61.9809C6.03883 61.2409 6.69926 60.9601 7.39208 61.2186C8.06971 61.4667 8.44091 62.1301 8.29768 62.9588C8.14465 63.8669 7.91077 64.7628 7.66171 65.6483C7.45257 66.4103 7.58664 67.127 7.78636 67.8455C7.80645 67.8161 7.85202 67.8473 7.91277 67.8889Z" fill="black"/>
<path d="M-37.4845 74.3682C-35.3444 71.5009 -32.2275 69.1942 -27.9882 68.539C-25.6213 68.1759 -23.3476 68.5031 -21.167 69.5856C-19.1887 70.5728 -17.8243 72.1312 -16.938 74.0952C-15.7511 76.7605 -15.1546 79.5391 -15.2898 82.442C-15.5118 87.7206 -16.9979 92.5654 -19.667 97.0532C-20.6553 98.7259 -21.5172 100.442 -22.2272 102.262C-23.1822 104.733 -22.6034 106.853 -20.8587 108.801C-20.1335 109.599 -19.3279 110.28 -18.2211 110.52C-18.0594 110.544 -17.8365 110.74 -17.8208 110.88C-17.8051 111.02 -17.9557 111.24 -18.1069 111.33C-18.5956 111.621 -19.1615 111.536 -19.6872 111.391C-21.1936 110.986 -22.4392 110.133 -23.4738 108.973C-24.9801 107.296 -25.5834 105.375 -25.2485 103.19C-24.9135 101.006 -23.9514 99.0783 -22.7666 97.2814C-19.8246 92.8509 -18.354 87.931 -17.8745 82.6346C-17.6856 80.5658 -17.9913 78.5681 -18.7362 76.593C-19.9861 73.3028 -22.6878 71.9715 -25.9384 72.355C-30.794 72.9333 -35.0746 77.2668 -35.6974 82.0557C-35.9278 83.8591 -35.6736 85.6061 -34.9853 87.3054C-34.6334 88.1926 -34.1304 88.9893 -33.3856 89.6282C-32.732 90.2047 -31.9786 90.44 -31.1717 90.1732C-30.5363 89.9614 -29.9466 89.6537 -29.3722 89.3356C-29.1505 89.2071 -28.995 88.9472 -28.8595 88.7166C-28.6689 88.3729 -28.7253 88.162 -29.1756 87.9401C-29.975 87.544 -30.7546 87.0537 -31.4535 86.5109C-31.808 86.2468 -32.0925 85.8151 -32.291 85.4207C-32.7031 84.6216 -32.5045 83.7446 -31.9007 83.188C-31.3069 82.6461 -30.4235 82.5609 -29.6442 82.9863C-28.9256 83.3702 -28.3933 83.9284 -27.9564 84.5936C-27.6161 85.1066 -27.1601 85.4832 -26.569 85.5644C-26.2709 85.6175 -25.852 85.5594 -25.681 85.3746C-25.5502 85.2486 -25.6328 84.7827 -25.7499 84.5302C-26.0197 83.9792 -26.4202 83.5543 -27.0575 83.3123C-27.5682 83.1137 -28.0898 82.7353 -28.46 82.3311C-29.0331 81.702 -28.9506 80.8318 -28.4377 80.2777C-27.9096 79.7339 -27.0563 79.6928 -26.3524 80.1959C-26.1398 80.3414 -25.9725 80.5205 -25.7698 80.6807C-25.4861 80.9179 -25.2238 80.8604 -24.9925 80.5876C-24.51 80.0127 -24.6392 79.2562 -25.3675 78.9519C-25.8683 78.7386 -26.4241 78.6384 -26.9445 78.5841C-27.6113 78.5157 -28.2176 78.4241 -28.5131 77.7479C-28.8238 77.0612 -28.5686 76.46 -28.111 75.9542C-26.8944 74.567 -24.7378 74.6418 -23.2727 76.1183C-21.4122 77.9946 -21.5915 81.2552 -23.6454 82.8884C-23.9174 83.0903 -23.9874 83.2578 -23.8649 83.6002C-22.9921 86.0076 -24.2266 88.0075 -26.7652 88.3609C-27.0327 88.3934 -27.1435 88.49 -27.2081 88.7475C-27.8657 91.0775 -29.5319 92.4372 -31.8069 93.0572C-33.3657 93.4776 -34.8322 92.9484 -36.1436 92.0296C-38.4728 90.4145 -39.739 88.1259 -40.1787 85.4114C-40.8087 81.8342 -39.8796 77.9014 -37.4845 74.3682Z" fill="black"/>
<path d="M-25.9885 183.408C-25.8568 184.813 -25.806 186.205 -25.5633 187.578C-24.9903 190.815 -23.7568 193.771 -21.3639 196.205C-20.8214 196.749 -20.1935 197.2 -19.6009 197.67C-19.1653 198.011 -18.6751 198.109 -18.1405 197.915C-17.9843 197.849 -17.7719 197.93 -17.5901 197.925C-17.6045 198.109 -17.6038 198.304 -17.6638 198.457C-18.134 199.6 -19.1874 200.129 -20.5568 199.882C-21.9515 199.639 -23.0907 198.859 -24.1244 197.958C-28.0612 194.554 -30.1481 190.303 -30.294 185.204C-30.323 184.236 -30.2712 183.28 -30.2193 182.324C-30.1954 181.996 -30.2919 181.843 -30.6106 181.69C-34.415 179.884 -37.5561 177.24 -40.0033 173.841C-40.643 172.951 -41.182 171.979 -41.5949 170.985C-42.3033 169.315 -41.5052 168.051 -39.7032 167.862C-39.2187 167.806 -38.7187 167.824 -38.2187 167.843C-35.1224 168.044 -32.032 168.025 -28.9575 167.801C-27.9529 167.734 -26.9174 167.818 -25.8921 167.851C-25.3417 167.861 -24.7611 167.827 -24.2253 167.957C-22.9668 168.236 -22.5498 168.996 -23.0098 170.189C-23.2148 170.717 -23.4906 171.218 -23.7715 171.694C-24.3888 172.694 -24.834 173.768 -25.0113 174.94C-25.2921 176.752 -25.5173 178.58 -25.7982 180.392C-25.8523 180.765 -25.6852 180.879 -25.3466 180.938C-23.118 181.364 -20.9321 181.2 -18.8646 180.46C-13.1007 178.391 -9.56652 174.301 -8.0793 168.444C-6.90065 163.756 -7.17617 159.106 -8.99162 154.524C-9.109 154.207 -9.30207 153.902 -9.46991 153.594C-9.71394 153.168 -9.76101 152.748 -9.48986 152.352C-9.22875 151.97 -8.70427 151.79 -8.2187 151.993C-7.81913 152.159 -7.38893 152.41 -7.12506 152.741C-6.60736 153.419 -6.1046 154.151 -5.728 154.904C-4.77634 156.805 -4.12721 158.822 -4.03834 160.909C-3.63039 169.764 -7.05774 176.664 -14.6247 181.271C-17.9447 183.287 -21.6484 184.007 -25.6301 183.373C-25.7158 183.401 -25.7815 183.399 -25.9885 183.408ZM-29.8526 179.213C-29.465 177.603 -29.1729 176.101 -28.7291 174.638C-28.2954 173.189 -27.7252 171.769 -27.2307 170.361C-30.8857 170.619 -34.6064 170.875 -38.4028 171.144C-36.2134 174.495 -33.3702 177.151 -29.8526 179.213Z" fill="black"/>
<path d="M50.6681 57.1237C50.9254 57.0411 51.112 56.9964 51.3036 56.912C52.7656 56.2745 54.2479 55.6724 55.6843 54.9744C58.4414 53.6499 61.3522 52.883 64.4215 52.6341C65.1282 52.5789 65.8453 52.5738 66.5526 52.6483C68.4874 52.8515 69.6139 54.2687 69.4193 56.1828C69.2879 57.4505 68.7417 58.5422 68.1399 59.6173C66.9414 61.7927 65.6722 63.9412 64.4585 66.1063C64.288 66.4206 64.1428 66.7307 63.9674 67.0848C64.0938 67.1282 64.1798 67.1655 64.2454 67.1673C65.7249 67.1236 67.2143 67.0651 68.6886 66.9963C68.8956 66.9871 69.1121 66.8336 69.3137 66.7344C69.4348 66.6879 69.581 66.6372 69.702 66.5907C69.7581 66.7368 69.885 66.9098 69.8552 67.0187C69.6653 67.5569 69.5263 68.1513 69.2149 68.6063C68.6121 69.4222 67.6947 69.8505 66.706 70.1222C65.4449 70.4661 64.1578 70.6199 62.8496 70.5438C62.5314 70.52 62.355 70.6148 62.2754 70.9267C61.7917 72.5137 61.298 74.1153 60.8295 75.7127C60.7448 75.9995 60.7308 76.3132 60.6917 76.6312C60.6528 77.014 60.7498 77.2959 61.2398 77.3294C61.6641 77.3611 61.7608 77.5782 61.621 77.9782C61.0663 79.4734 59.3708 79.8004 58.3156 78.5397C57.8692 78.0187 57.5837 77.3278 57.3691 76.6637C57.0368 75.6175 57.0982 74.5174 57.3112 73.4564C57.5242 72.3954 57.8181 71.3466 58.0968 70.2874C58.1316 70.1387 58.1764 69.9755 58.2413 69.7828C57.3718 69.5543 56.5428 69.3319 55.7086 69.0844C55.4306 69.0019 55.1577 68.9445 54.8897 68.8473C54.1968 68.5888 53.7654 68.0135 53.7377 67.3695C53.7197 66.6461 54.0609 66.0823 54.7316 65.8516C55.2561 65.6717 55.8668 65.5939 56.4124 65.6439C57.3975 65.736 58.373 65.9724 59.3534 66.1691C59.6667 66.2327 59.8179 66.1421 59.9734 65.8822C61.1675 63.8762 62.402 61.8763 63.5961 59.8703C64.2885 58.7278 64.9658 57.575 65.6379 56.397C65.7231 56.2399 65.768 56.0766 65.863 55.8399C65.4994 55.8498 65.2268 55.8572 64.9593 55.8896C62.5012 56.1904 60.1656 56.8336 57.9783 57.9446C56.4764 58.7057 54.9643 59.4166 53.4217 60.1067C52.6807 60.4401 51.8938 60.6776 51.0967 60.8649C50.6124 60.9861 50.0823 61.0112 49.5671 60.982C47.8042 60.8533 46.6527 59.5052 46.7672 57.7734C46.8484 56.5791 47.3341 55.5107 47.9362 54.5003C49.1403 52.4796 50.4152 50.4858 51.6497 48.4859C51.7401 48.3538 51.8305 48.2217 51.941 48.0602C51.0352 47.5914 50.165 47.1684 49.335 46.6867C46.8045 45.2356 44.4952 43.5263 42.5778 41.3093C41.2538 39.757 40.323 38.0211 39.9517 36.0216C39.6835 34.5882 39.7792 33.2099 40.4307 31.9317C40.8116 31.1794 41.3902 30.6271 42.2784 30.5022C43.0506 30.384 43.6778 30.6407 44.17 31.2576C44.5252 31.7161 44.4905 31.8647 44.0018 32.1553C43.8406 32.2605 43.6395 32.4893 43.625 32.6733C43.6018 33.1962 43.6038 33.7148 43.7068 34.2162C44.3489 37.0259 45.9936 39.2502 48.1471 41.1546C49.9155 42.7093 51.8747 43.9851 53.854 45.2316C54.7247 45.7842 55.6005 46.3619 56.4411 46.9585C56.9627 47.3369 57.3988 47.8077 57.4973 48.4785C57.5907 49.1242 57.3394 49.4264 56.6878 49.3684C56.0462 49.2958 55.4143 49.1437 54.7676 49.046C54.6059 49.0216 54.3335 49.0938 54.2532 49.2112C52.8335 51.6447 51.6618 54.2048 50.6772 56.8498C50.6774 56.9146 50.6877 56.9647 50.6681 57.1237Z" fill="black"/>
<path d="M43.6451 168.428C43.8166 168.373 43.9729 168.307 44.1443 168.252C44.3864 168.159 44.6232 168.041 44.8653 167.948C45.536 167.717 46.0463 167.786 46.3205 168.168C46.6098 168.56 46.5261 169.106 46.0433 169.616C44.8513 170.869 43.4156 171.762 41.6643 172.007C40.5085 172.165 39.3419 172.142 38.1604 172.174C37.9029 172.192 37.64 172.12 37.3772 172.048C36.6341 171.863 36.1674 171.307 36.1497 170.648C36.1372 170.014 36.5692 169.448 37.2858 169.313C38.1689 169.163 39.0827 169.099 39.9812 169.024C40.3548 169 40.5008 168.884 40.5954 168.518C41.3068 165.75 42.8487 163.595 45.4341 162.26C48.211 160.842 51.5871 161.578 53.4092 163.967C54.4853 165.393 54.7642 167.006 54.6394 168.688C54.5195 170.33 53.894 171.798 53.1269 173.213C51.708 175.841 49.7775 178.075 47.837 180.325C47.0477 181.25 46.2585 182.176 45.4489 183.066C45.2025 183.328 45.2486 183.489 45.4365 183.768C46.1578 184.865 46.9497 185.924 47.5199 187.112C48.9248 190.012 49.0625 192.973 47.8367 195.905C47.2964 197.216 46.3611 198.257 45.213 199.088C43.7829 200.135 42.1644 200.773 40.3827 200.998C36.1077 201.543 32.8019 198.096 33.629 193.921C34.1295 191.462 35.3079 189.316 36.8913 187.425C38.359 185.671 39.999 184.056 41.5427 182.354C44.439 179.164 47.4214 176.011 49.8162 172.413C50.4839 171.404 51.035 170.273 51.4548 169.138C51.7195 168.392 51.7616 167.516 51.6978 166.697C51.6279 165.593 50.8419 164.753 49.7251 164.528C49.1388 164.407 48.4872 164.349 47.9171 164.498C45.8336 165.033 44.5467 166.523 43.5334 168.265C43.5892 168.346 43.6096 168.382 43.6451 168.428ZM42.3376 186.798C42.2168 186.91 42.121 186.952 42.0608 187.04C41.1868 188.252 40.242 189.438 39.444 190.702C38.6862 191.907 38.1206 193.223 37.9191 194.658C37.7522 195.88 38.4473 196.722 39.7094 196.637C40.5727 196.581 41.4455 196.381 42.2321 196.079C43.77 195.493 44.5683 194.294 44.6578 192.631C44.7571 190.889 44.1805 189.352 43.1802 187.914C42.9212 187.543 42.6269 187.19 42.3376 186.798Z" fill="black"/>
<path d="M25.1775 84.6357C21.2831 84.3632 17.889 82.903 14.6493 80.8588C14.3691 81.5291 14.134 82.1009 13.8736 82.677C13.358 83.8543 12.8476 85.0567 12.2916 86.2278C12.0712 86.6804 11.7851 87.1311 11.4635 87.536C11.0463 88.048 10.3903 88.1594 9.86893 87.8458C9.36278 87.5426 9.15352 86.9684 9.36316 86.3361C9.54782 85.7728 9.79814 85.2114 9.99799 84.6586C10.6274 82.8912 11.0748 81.0639 11.2998 79.1706C11.3439 78.8128 11.3879 78.4551 11.4724 78.1034C11.7903 76.7263 12.9235 75.95 14.3233 76.2181C15.0864 76.3739 15.8451 76.6991 16.5686 77.0432C17.378 77.4246 18.1625 77.8751 18.9469 78.3256C20.9713 79.4736 23.0951 80.2155 25.3788 80.5281C26.3489 80.6747 27.319 80.8212 28.2842 81.0075C30.5736 81.4748 31.475 83.4492 30.1288 85.2865C29.2749 86.4693 28.2084 87.5067 27.2026 88.5856C23.5971 92.519 20.9332 97.032 19.2308 102.095C18.3971 104.585 18.0132 107.167 17.9931 109.803C17.9856 110.466 18.0489 111.156 18.1827 111.808C18.6099 113.889 20.7511 115.224 22.8248 114.768C22.9257 114.751 23.0114 114.724 23.1124 114.707C23.4556 114.661 23.6229 114.84 23.4321 115.119C23.1409 115.545 22.8396 115.985 22.4469 116.299C20.9313 117.438 18.8909 117.357 17.0278 116.103C15.3317 114.965 14.3257 113.371 13.899 111.42C13.5341 109.77 13.5883 108.126 13.789 106.496C14.2 103.092 15.4403 99.9758 16.9334 96.946C19.0528 92.6423 21.6735 88.6816 24.851 85.0803C24.9718 84.969 25.0269 84.8559 25.1775 84.6357Z" fill="black"/>
<path d="M70.1398 157.506C73.2767 157.777 76.3398 158.515 79.4436 158.053C80.786 157.851 81.6791 158.958 81.275 160.233C80.9958 161.162 80.3876 161.888 79.6476 162.481C79.0134 163.017 78.3588 163.517 77.6839 163.982C73.8665 166.628 70.6117 169.854 67.6562 173.391C66.5554 174.707 65.4242 176.002 64.3841 177.359C63.4947 178.496 62.7016 179.72 61.8629 180.913C61.4511 181.515 61.1001 182.159 60.6377 182.704C60.0748 183.397 59.1512 183.54 58.4023 183.136C57.6585 182.756 57.2613 181.903 57.5003 181.032C57.6598 180.473 57.9052 179.951 58.1607 179.415C59.9342 175.78 62.5993 172.862 65.4567 170.055C68.6813 166.873 72.0683 163.911 75.8256 161.353C75.9867 161.248 76.1428 161.117 76.2888 161.002C76.2988 160.987 76.3037 160.947 76.3338 160.903C76.2782 160.887 76.2074 160.86 76.167 160.854C73.7126 160.791 71.2922 160.385 68.8336 160.556C67.0061 160.685 66.0459 159.187 66.8831 157.605C68.9133 153.758 71.1511 150.031 73.8698 146.611C77.2317 142.382 80.3203 137.965 83.1758 133.368C83.9537 132.133 84.8279 130.986 85.6666 129.793C85.7871 129.616 85.9633 129.457 86.1445 129.322C86.5071 129.053 86.911 129.049 87.2959 129.334C87.696 129.629 87.7379 130.024 87.588 130.439C87.493 130.676 87.3424 130.896 87.217 131.112C83.2827 137.514 79.0346 143.723 74.6599 149.824C73.0477 152.082 71.5469 154.439 70.4104 156.98C70.2848 157.131 70.2248 157.284 70.1398 157.506Z" fill="black"/>
<path d="M30.754 163.314C31.0187 162.569 31.2482 161.842 31.5232 161.147C32.6234 158.365 34.2753 155.918 36.0336 153.544C37.3597 151.736 38.6707 149.918 39.9917 148.085C40.1222 147.894 40.2528 147.703 40.3934 147.498C40.3627 147.412 40.3221 147.341 40.2914 147.256C40.1503 147.331 40.0144 147.432 39.863 147.458C37.5169 147.986 35.3185 148.853 33.3848 150.245C32.3021 151.013 31.2397 151.816 30.1773 152.619C29.8853 152.85 29.6592 153.148 29.4028 153.425C28.7943 154.086 28.0677 154.236 27.4148 153.854C26.8023 153.478 26.4607 152.64 26.8316 151.903C27.2325 151.121 27.7447 150.373 28.3483 149.751C31.009 147.003 34.3562 145.501 38.1156 144.797C39.1197 144.601 40.1241 144.469 41.1385 144.323C41.4918 144.263 41.8705 144.263 42.2191 144.308C43.3862 144.46 44.097 145.442 43.8034 146.555C43.664 147.085 43.4438 147.602 43.1477 148.068C42.1689 149.596 41.185 151.099 40.1454 152.586C38.2772 155.252 36.3027 157.844 35.0418 160.86C34.5064 162.132 34.0773 163.476 33.6127 164.774C33.4528 165.204 33.3132 165.668 33.0673 166.061C32.5103 166.972 31.5167 167.284 30.4948 166.822C30.0041 166.594 29.5232 166.286 29.1028 165.956C26.0686 163.513 22.9086 161.222 19.6032 159.176C19.183 158.91 18.7577 158.619 18.3677 158.309C16.9342 157.178 16.5544 155.582 17.4575 154.066C18.0997 152.997 18.8684 151.971 19.6929 151.027C22.5985 147.628 25.1447 144.004 27.0125 139.937C27.0877 139.795 27.1629 139.652 27.2533 139.52C27.5698 139.09 28.0693 138.98 28.5144 139.176C28.9595 139.373 29.2291 139.859 29.0998 140.374C28.9754 140.849 28.7802 141.298 28.5698 141.736C26.4408 146.184 24.0184 150.474 21.2873 154.596C20.4287 155.883 20.4578 155.58 21.673 156.411C24.6754 158.444 27.5171 160.712 30.2833 163.057C30.4098 163.1 30.5717 163.189 30.754 163.314Z" fill="black"/>
<path d="M19.8554 170.899C19.9774 171.112 20.0791 171.289 20.1959 171.477C21.3649 173.419 21.3268 175.332 20.0156 177.086C19.1314 178.248 18.0952 179.306 17.0843 180.36C15.4397 182.079 13.6784 183.676 12.0946 185.437C10.1487 187.596 8.80519 190.147 7.85639 192.902C7.32714 194.458 7.30793 196.018 7.77868 197.611C8.33102 199.412 9.46709 200.685 11.207 201.401C11.7785 201.641 12.4155 201.818 13.027 201.935C14.9322 202.312 16.2278 201.754 17.1556 200.105C17.5267 199.432 17.8319 198.693 18.021 197.96C18.3045 196.861 18.4517 195.734 18.6796 194.618C18.7587 194.177 18.6115 193.968 18.1916 193.767C17.0534 193.247 15.9401 192.658 14.8622 192.049C13.9462 191.53 13.6808 190.81 14.0114 190.131C14.3321 189.467 15.0937 189.234 16.0396 189.644C17.6582 190.342 19.2469 191.149 20.8607 191.887C21.3362 192.104 21.7965 192.311 22.287 192.475C22.7522 192.642 22.9487 192.518 23.0883 192.053C23.3275 191.247 22.6569 190.206 21.8127 189.974C20.9685 189.741 20.1292 189.468 19.3048 189.141C18.5664 188.852 18.2256 188.209 18.4051 187.621C18.5947 187.018 19.1691 186.7 19.9575 186.851C20.4325 186.939 20.8926 187.081 21.3527 187.224C21.752 187.325 22.1464 187.465 22.5457 187.566C23.2988 187.736 23.3441 187.703 23.3058 186.944C23.3004 186.854 23.2698 186.768 23.2948 186.699C23.3999 186.448 23.4692 186.086 23.6659 186.027C23.8474 185.957 24.2217 186.127 24.3891 186.306C24.6527 186.572 24.8661 186.912 25.0391 187.246C25.5737 188.388 25.1436 189.473 23.9788 189.904C23.7368 189.997 23.4744 190.055 23.1768 190.131C23.3191 190.379 23.4816 190.598 23.5735 190.855C23.7572 191.369 23.9915 191.874 24.0339 192.398C24.1555 193.818 23.2654 194.76 21.8161 194.76C21.2404 194.754 20.6794 194.629 20.063 194.552C20.0839 194.717 20.0795 194.886 20.0903 195.066C20.1845 197.242 20.1323 199.405 19.1249 201.366C17.9972 203.568 16.1791 204.824 13.573 204.722C10.9013 204.618 8.40908 203.926 6.52772 201.884C4.15953 199.316 3.58724 196.274 4.44339 193.067C5.19007 190.281 6.7462 187.876 8.3986 185.558C10.6487 182.4 13.573 179.919 16.4973 177.437C17.2775 176.786 17.9663 176.007 18.5439 175.195C19.3926 173.987 19.2254 172.537 18.2212 171.397C18.0335 171.183 17.7099 171.069 17.4318 170.987C17.0729 170.892 16.6741 170.921 16.3051 170.841C15.5925 170.676 15.1206 170.095 15.1029 169.436C15.0852 168.778 15.5425 168.207 16.2387 168.037C16.4759 167.984 16.7333 167.966 16.9707 167.977C19.4759 168.097 21.9597 167.921 24.4124 167.531C24.8161 167.462 25.2808 167.5 25.6902 167.586C26.4332 167.771 26.6628 168.381 26.1447 168.91C25.8128 169.265 25.3545 169.576 24.9006 169.718C23.4579 170.132 21.9695 170.449 20.5114 170.788C20.3196 170.807 20.1177 170.842 19.8554 170.899Z" fill="black"/>
<path d="M10.2477 147.883C10.9245 147.937 11.5255 147.939 12.1117 148.06C12.9204 148.247 13.7141 148.488 14.4729 148.813C15.176 149.122 15.4916 149.769 15.4029 150.355C15.3043 150.955 14.8313 151.386 14.054 151.479C13.5442 151.54 13.039 151.496 12.5189 151.506C11.3274 151.553 10.151 151.61 8.95942 151.657C8.46971 151.688 7.96507 151.774 7.48515 151.726C6.72743 151.66 6.13969 151.15 5.97549 150.477C5.81644 149.83 6.05107 149.128 6.70611 148.757C7.10418 148.534 7.18891 148.247 7.23272 147.825C7.36931 146.582 7.91551 145.49 8.52247 144.44C10.5136 140.911 13.432 138.21 16.6851 135.867C19.0267 134.172 21.6326 132.938 24.4983 132.27C28.4235 131.356 32.2285 132.02 36.0111 133.401C39.02 134.512 41.5569 136.312 43.8378 138.519C43.9341 138.607 44.0204 138.709 44.1066 138.811C44.9793 139.882 44.5196 141.141 43.1772 141.343C41.9861 141.519 40.7899 141.671 39.5983 141.717C37.3717 141.81 35.2525 142.235 33.2717 143.207C33.2364 143.226 33.2112 143.23 33.1759 143.249C32.3793 143.566 31.8234 143.466 31.4831 142.953C31.1376 142.415 31.2916 141.766 31.9714 141.262C33.3912 140.164 35.0604 139.582 36.8318 139.307C37.9825 139.125 39.1537 139.043 40.3551 138.916C40.284 138.825 40.2382 138.729 40.1571 138.652C38.4592 137.059 36.5008 135.978 34.2714 135.357C29.3375 133.964 24.8006 134.696 20.6043 137.342C17.5768 139.257 15.0614 141.695 12.7691 144.394C11.9598 145.348 11.262 146.401 10.5186 147.422C10.3978 147.534 10.3378 147.686 10.2477 147.883Z" fill="black"/>
<path d="M0.376492 112.964C-0.186905 113.527 -0.789972 114.278 -1.54518 114.861C-3.36279 116.246 -5.53063 115.862 -6.86617 113.935C-7.31307 113.285 -7.64925 112.538 -7.91462 111.817C-8.43019 110.387 -8.64296 108.905 -8.64873 107.415C-8.67934 102.114 -7.7092 97.0455 -5.46025 92.2917C-4.87927 91.0515 -4.16159 89.9047 -3.12493 88.9762C-2.88341 88.7536 -2.60146 88.537 -2.30921 88.3706C-0.697107 87.3833 1.06651 87.7064 2.19869 89.2784C2.65049 89.8892 3.01679 90.5923 3.22656 91.2961C3.54855 92.2922 3.81518 93.3366 3.91008 94.3713C4.42111 99.8497 3.80033 105.157 1.7344 110.23C1.38931 111.093 0.882521 111.932 0.376492 112.964ZM-2.14134 110.875C-2.15652 110.865 -2.17171 110.855 -2.20209 110.834C-2.10166 110.687 -1.98605 110.551 -1.90081 110.394C-1.72029 110.065 -1.52458 109.746 -1.3693 109.421C0.529162 105.44 1.46729 101.234 1.47032 96.7964C1.46556 95.5649 1.28906 94.3235 1.07729 93.1012C0.953518 92.4346 0.673201 91.7688 0.377948 91.1573C0.00649665 90.4291 -0.433243 90.3222 -0.98145 90.8953C-1.65532 91.6195 -2.28851 92.4146 -2.77496 93.2885C-3.83798 95.2334 -4.4206 97.356 -4.84642 99.5429C-5.46029 102.722 -5.60943 105.938 -5.08685 109.183C-4.94713 110.055 -4.67095 110.955 -4.34457 111.782C-4.04882 112.523 -3.74063 112.561 -3.18213 112.038C-2.81494 111.664 -2.49333 111.26 -2.14134 110.875Z" fill="black"/>
<path d="M93.1715 111.783C90.8972 109.99 89.1014 107.856 87.8493 105.319C86.8721 103.357 86.5863 101.265 86.6337 99.1425C86.7179 96.1186 87.5099 93.2987 88.9844 90.6872C89.7619 89.3228 90.8179 88.1705 92.1274 87.2994C93.5075 86.3904 94.5374 86.3192 95.9197 87.2649C97.9247 88.6367 99.285 90.4294 99.9655 92.7267C100.733 95.3854 101.006 98.0503 100.219 100.701C99.7201 102.407 99.2218 104.113 98.7538 105.84C98.3803 107.201 98.0473 108.568 97.7698 109.951C97.641 110.596 97.6386 111.284 97.6563 111.942C97.6679 112.316 97.5523 112.453 97.2549 112.594C95.6773 113.368 94.4269 112.556 93.1715 111.783ZM95.4457 109.632C95.481 109.613 95.5163 109.594 95.5616 109.561C95.4683 107.644 96.1129 105.887 96.6615 104.107C97.0952 102.658 97.4682 101.168 97.8867 99.7088C98.5345 97.4583 98.2783 95.1927 97.6081 92.9455C97.0964 91.2163 95.9603 89.9433 94.4769 88.95C94.3706 88.8772 94.0778 88.914 93.9923 89.0063C93.5402 89.602 93.0071 90.1855 92.6865 90.8497C91.5442 93.1713 91.1804 95.7238 90.9378 98.2946C90.5839 102.104 91.8341 105.459 94.3351 108.42C94.6953 108.839 95.0755 109.228 95.4457 109.632Z" fill="black"/>
<path d="M84.074 82.3498C85.0062 80.531 85.9284 78.7268 86.8755 76.8535C86.7391 76.8248 86.5722 76.7753 86.3954 76.7405C85.3289 76.5065 84.2878 76.2682 83.2314 76.0196C82.6552 75.884 82.2448 75.5386 82.086 74.9558C81.9221 74.348 82.1222 73.86 82.5651 73.4734C83.0432 73.0679 83.6184 72.9442 84.2348 73.0211C85.0229 73.1078 85.8012 73.2739 86.5795 73.4401C87.5195 73.6307 88.4698 73.8714 89.4047 74.0369C89.9706 74.1224 90.6021 74.2097 90.9634 73.6165C91.3396 72.9688 91.3116 72.2601 90.8799 71.6199C90.1586 70.523 89.1105 69.806 87.9821 69.2063C85.6797 67.9758 83.3113 67.9501 80.9716 68.8275C80.0035 69.1995 79.0966 69.7427 78.1946 70.2462C77.7613 70.4884 77.3578 70.6218 76.9024 70.3749C76.4318 70.1175 76.1574 69.6712 76.2514 69.1752C76.3555 68.6646 76.5301 68.116 76.8416 67.7258C77.9522 66.3307 79.4487 65.4798 81.2655 65.1712C84.5809 64.595 87.5384 65.4548 90.1373 67.6208C91.0036 68.3428 91.8248 69.1633 92.4898 70.0492C93.647 71.5521 93.81 73.2367 93.0034 74.9045C92.2971 76.3607 90.9811 76.8826 89.4211 76.9789C88.9162 76.9998 88.624 77.1662 88.3984 77.5937C87.6765 78.9747 86.8991 80.3391 86.2229 81.7512C85.9574 82.3023 85.8842 82.9633 85.8058 83.5993C85.6538 84.7667 84.8934 85.324 83.7758 84.9041C83.0274 84.6291 82.3088 84.2452 81.6356 83.8277C78.4061 81.8337 75.1867 79.825 71.9773 77.8016C71.6483 77.598 71.3394 77.3651 71.0757 77.0985C70.5688 76.6008 70.4553 75.9845 70.7463 75.494C71.0422 74.9637 71.6319 74.656 72.3095 74.9041C73.3159 75.291 74.3426 75.7133 75.2437 76.2867C77.4763 77.7496 79.6639 79.3109 81.8563 80.8325C82.6006 81.3417 83.3449 81.851 84.074 82.3498Z" fill="black"/>
<path d="M81.2899 106.757C81.8673 107.217 82.4649 107.647 82.997 108.14C83.7521 108.829 83.7759 109.772 83.1829 110.509C82.414 111.47 81.64 112.405 80.947 113.418C78.5169 117.035 76.1072 120.688 73.6923 124.315C73.3408 124.829 72.9792 125.357 72.5822 125.84C71.994 126.537 71.1917 126.699 70.3568 126.257C68.7022 125.383 67.0576 124.495 65.4279 123.553C64.1221 122.788 63.9453 121.482 64.9305 120.303C66.0514 118.958 67.1926 117.649 68.268 116.272C70.0316 113.988 71.7445 111.647 73.4778 109.342C74.1962 108.39 74.8995 107.427 75.6027 106.465C75.673 106.362 75.7533 106.244 75.7832 106.136C76.1425 105.024 76.9337 104.617 78.0364 105.091C79.1543 105.576 80.2119 106.149 81.3149 106.688C81.3149 106.688 81.31 106.728 81.2899 106.757ZM77.2055 108.294C77.12 108.386 77.0798 108.445 77.0296 108.518C75.0963 111.312 73.1377 114.109 71.2195 116.913C70.3458 118.19 69.5632 119.529 68.7199 120.827C68.5141 121.16 68.5149 121.355 68.8843 121.564C69.4005 121.853 69.8714 122.175 70.3575 122.508C70.6461 122.705 70.8075 122.665 70.9883 122.4C73.5803 118.873 76.1875 115.355 78.7695 111.842C79.1764 111.28 79.5428 110.712 79.9244 110.154C78.9675 109.499 78.1017 108.907 77.2055 108.294Z" fill="black"/>
<path d="M26.1297 77.5725C21.4158 74.3258 19.8007 69.3203 21.8078 64.7244C22.8841 62.2714 24.7614 60.6682 27.3439 59.8922C30.1836 59.0337 33.0222 59.1871 35.7991 60.3759C38.3888 61.4797 40.0429 63.4949 40.8055 66.1286C41.1637 67.365 41.3152 68.6754 41.4868 69.9565C41.5596 70.5019 41.4406 71.067 41.3265 71.5923C41.2225 72.1029 40.8393 72.2718 40.3988 71.9704C40.0343 71.721 39.6744 71.367 39.4507 70.9769C39.166 70.4804 38.9971 69.9124 38.8334 69.3694C38.5573 68.4693 38.3568 67.5563 38.0302 66.6648C37.0804 63.9463 35.2826 62.6301 32.409 62.5604C30.3333 62.4978 28.3807 62.9074 26.8512 64.3607C24.0236 67.0593 24.3543 71.5954 27.5507 74.1918C28.7715 75.1779 30.1275 75.8686 31.6687 76.1257C32.4923 76.2582 32.8927 76.6183 33.011 77.195C33.1194 77.7863 32.7885 78.4003 32.1535 78.7417C31.2263 79.2494 30.2315 79.2368 29.2256 78.9796C28.0024 78.6814 26.9144 78.0879 26.1297 77.5725Z" fill="black"/>
<path d="M12.4137 168.739C13.4289 171.394 11.6828 173.001 9.38294 172.419C9.44445 172.655 9.49078 172.88 9.56234 173.102C9.96228 174.668 10.0592 176.222 9.51964 177.727C8.97519 179.273 7.65897 179.73 6.19613 178.837C5.03194 178.126 4.1242 177.139 3.31715 176.07C2.60149 175.127 1.95637 174.147 1.2505 173.126C1.17041 173.308 1.09522 173.45 1.02517 173.618C0.555166 174.826 -0.142681 175.879 -1.07841 176.79C-1.28466 176.994 -1.53649 177.167 -1.78856 177.274C-2.2927 177.49 -2.83877 177.31 -3.17369 176.887C-3.49342 176.474 -3.49568 175.891 -3.10841 175.488C-1.80549 174.203 -1.22602 172.573 -0.82368 170.845C-0.714464 170.359 -0.676047 169.847 -0.647675 169.349C-0.61541 168.552 -0.223744 167.979 0.462423 167.824C1.13855 167.683 1.78115 168.015 2.17784 168.739C3.05255 170.329 3.91207 171.908 4.82206 173.479C5.54902 174.731 6.43716 175.877 7.5573 176.945C7.64743 176.748 7.77309 176.597 7.76744 176.442C7.77498 175.779 7.86825 175.089 7.72439 174.452C7.55479 173.689 7.1733 172.976 6.87755 172.235C6.58694 171.519 6.22064 170.816 5.99054 170.076C5.73496 169.276 5.99996 168.596 6.60453 168.234C7.18387 167.876 7.97197 167.962 8.59009 168.493C8.95489 168.807 9.28956 169.166 9.65436 169.48C9.83174 169.644 10.0444 169.79 10.2318 169.94C10.2671 169.921 10.3124 169.887 10.3477 169.868C10.1901 169.609 10.0578 169.346 9.90029 169.088C9.65136 168.702 9.35196 168.325 9.1383 167.92C8.8536 167.423 8.85159 166.905 9.17295 166.435C9.49432 165.965 9.98353 165.805 10.5443 165.865C10.8373 165.893 11.1305 165.986 11.4186 166.054C12.0504 166.206 12.5546 165.991 12.921 165.422C13.2573 164.898 13.2499 164.29 12.829 163.829C12.5147 163.507 12.1046 163.226 11.7199 163.006C11.2493 162.749 10.7336 162.59 10.238 162.401C8.68552 161.835 7.21125 161.904 5.82084 162.763C5.70497 162.834 5.56387 162.91 5.43282 162.971C4.59601 163.347 3.72041 162.834 3.71175 161.901C3.72029 161.498 3.8398 161.062 4.0556 160.714C5.00401 159.165 6.4351 158.377 8.30429 158.579C10.6686 158.839 12.7833 159.855 14.4613 161.541C16.7629 163.849 15.8078 167.591 12.7665 168.549C12.6557 168.646 12.56 168.688 12.4137 168.739Z" fill="black"/>
<path d="M73.8792 86.3649C72.7763 85.8257 71.6733 85.2866 70.5856 84.7579C69.9329 84.4407 69.245 84.1424 68.5823 83.8399C68.4811 83.7922 68.3648 83.7341 68.2736 83.6718C67.1805 83.0531 66.7826 82.0051 67.2283 81.0602C67.6792 80.1404 68.7787 79.772 69.8664 80.3008C70.8378 80.7714 71.7492 81.395 72.6904 81.9096C73.9911 82.6487 75.3069 83.3981 76.6276 84.1078C77.7864 84.7282 78.1339 85.7848 77.3905 86.8062C76.4261 88.1505 75.4415 89.4594 74.4163 90.7621C72.6025 93.1199 71.1277 95.6666 69.6277 98.2175C69.3066 98.752 69.0058 99.322 68.6239 99.815C67.9053 100.702 66.7894 100.736 65.9329 99.9348C64.4379 98.5672 62.9581 97.21 61.4732 95.8277C61.1184 95.4987 60.7938 95.1258 60.5549 94.7253C60.0519 93.9286 59.993 93.0694 60.4645 92.2499C60.7756 91.7301 61.1119 91.2059 61.4534 90.7069C62.7139 88.8971 63.9844 87.0727 65.2601 85.2734C65.471 84.9651 65.7122 84.6776 66.0042 84.4464C66.4976 84.0513 67.1541 84.0695 67.6706 84.4228C68.1718 84.7658 68.4166 85.3858 68.217 86.0035C68.1073 86.3594 67.8964 86.6676 67.7007 86.9863C66.426 89.0449 65.1513 91.1035 63.8918 93.1725C63.8115 93.29 63.8076 93.589 63.9039 93.6764C64.8317 94.6345 65.7796 95.5632 66.6819 96.4607C69.0778 93.1219 71.4584 89.7727 73.8792 86.3649Z" fill="black"/>
<path d="M64.909 144.682C67.0457 142.244 69.1472 139.824 71.2586 137.39C71.2586 137.39 71.2383 137.354 71.2079 137.334C69.4598 137.086 67.716 136.668 65.9289 136.803C65.2826 136.835 64.6057 136.782 63.9688 136.604C63.2106 136.409 62.638 135.909 62.4682 135.082C62.3035 134.28 62.6189 133.591 63.2485 133.159C63.7774 132.81 64.3873 132.538 65.023 132.391C66.3349 132.103 67.6786 132.225 69.0225 132.412C70.6747 132.637 72.2269 133.139 73.7495 133.814C74.0783 133.953 74.4073 134.157 74.701 134.379C75.8153 135.228 76.0831 136.596 75.2996 137.676C74.8224 138.341 74.2237 138.923 73.6554 139.525C71.1459 142.183 68.9401 145.048 67.0181 148.151C66.6568 148.744 66.2803 149.327 65.8127 149.848C65.2447 150.515 64.4733 150.827 63.5479 150.518C62.653 150.229 62.2262 149.549 62.0713 148.667C62.061 148.617 62.0507 148.567 62.0556 148.527C61.8337 145.983 61.5865 143.444 61.3646 140.9C61.3535 140.655 61.3425 140.41 61.3819 140.157C61.4656 139.611 61.8076 139.242 62.297 139.146C62.7916 139.075 63.3127 139.323 63.5622 139.839C63.7148 140.137 63.807 140.459 63.8839 140.77C64.1964 141.91 64.4735 143.07 64.786 144.21C64.8272 144.411 64.8833 144.557 64.909 144.682Z" fill="black"/>
<path d="M107.022 80.0994C109.568 81.8202 111.602 84.0304 113.419 86.4589C115.023 88.6123 116.592 90.7847 118.226 92.8941C118.972 93.857 119.874 94.6897 120.741 95.5413C121.035 95.8287 121.435 95.9943 121.804 96.204C122.189 96.4241 122.43 96.2662 122.545 95.8706C122.844 94.782 122.754 93.7076 122.179 92.6896C122.037 92.4413 121.769 92.2793 121.536 92.0984C121.394 91.9798 121.202 91.9346 121.04 91.8453C120.62 91.5794 120.325 91.2272 120.389 90.7105C120.428 90.2629 120.84 89.8555 121.385 89.7759C122.309 89.632 123.108 89.9632 123.787 90.6003C123.964 90.7647 124.137 90.9689 124.259 91.1817C125.459 93.2092 125.775 95.3219 125.076 97.5162C124.502 99.3001 122.895 100.118 121.03 99.6825C119.796 99.399 118.723 98.751 117.882 97.8303C116.943 96.8221 116.046 95.7552 115.279 94.6271C114.004 92.7421 112.845 90.7855 111.615 88.8669C110 86.3392 108.037 84.1559 105.471 82.5293C104.838 82.1179 104.17 81.7902 103.497 81.4375C103.031 81.2053 102.587 81.0733 102.032 81.2324C101.179 81.468 100.41 81.0279 100.114 80.2868C99.8337 79.5561 100.164 78.7476 100.905 78.3494C101.585 77.9744 102.337 78.0152 103.075 78.1752C104.213 78.4361 105.245 78.9483 106.222 79.5737C106.475 79.7253 106.748 79.9123 107.022 80.0994Z" fill="black"/>
<path d="M-4.89064 182.069C-5.3767 181.736 -5.82724 181.45 -6.25769 181.134C-6.4603 180.973 -6.65802 180.774 -6.80527 180.565C-7.1353 180.102 -7.22819 179.586 -6.91197 179.091C-6.61094 178.586 -6.10654 178.436 -5.54553 178.561C-4.91372 178.713 -4.29196 178.88 -3.67998 179.126C-2.8708 179.443 -2.0665 179.799 -1.31757 180.204C-0.846943 180.461 -0.406197 180.827 -0.0612321 181.236C0.481698 181.909 0.222339 182.744 -0.620368 182.9C-1.23599 183.018 -1.88788 182.895 -2.52409 182.912C-2.70586 182.917 -2.94813 182.945 -3.08409 183.046C-5.73599 185.456 -8.41338 187.804 -11.5524 189.622C-11.5977 189.656 -11.653 189.704 -11.7084 189.752C-11.0118 190.983 -10.3304 192.203 -9.6135 193.47C-9.28649 193.155 -8.98471 192.844 -8.6474 192.579C-7.69083 191.833 -6.71907 191.097 -5.75735 190.376C-4.69496 189.573 -3.62742 188.795 -2.55988 188.017C-2.16207 187.728 -1.77944 187.43 -1.34095 187.213C-0.736127 186.915 -0.139584 187.087 0.155167 187.568C0.449918 188.05 0.320361 188.5 -0.223201 188.969C-2.03516 190.509 -3.88264 192.003 -5.62355 193.635C-6.4689 194.414 -7.09619 195.429 -7.80973 196.342C-8.08113 196.673 -8.30182 197.061 -8.58841 197.382C-9.53883 198.413 -11.0697 198.206 -11.8067 196.969C-11.9949 196.624 -12.1478 196.261 -12.3159 195.888C-13.1568 193.89 -14.2295 192.036 -15.6449 190.356C-16.7153 189.085 -16.2877 187.352 -14.7233 187.086C-11.3221 186.482 -8.58197 184.694 -5.89278 182.784C-5.57556 182.548 -5.25318 182.338 -4.89064 182.069Z" fill="black"/>
<path d="M95.0966 118.617C97.3596 120.1 99.6125 121.599 101.865 123.097C102.306 123.399 102.726 123.729 103.117 124.104C103.654 124.622 103.773 125.264 103.406 125.897C102.599 127.241 101.791 128.584 100.937 129.897C100.41 130.7 99.6988 130.86 98.8433 130.317C95.6795 128.325 92.3501 126.607 89.3418 124.355C87.4275 122.916 85.3774 121.643 83.3775 120.296C83.1649 120.151 82.9169 120.024 82.6541 119.952C81.7643 119.688 81.277 119.031 81.43 118.123C81.5238 117.563 81.7337 116.995 82.0095 116.494C82.6314 115.39 83.324 114.312 84.0319 113.245C84.4285 112.632 85.0794 112.496 85.7776 112.844C86.5062 113.214 87.2248 113.597 87.9183 114.05C90.2977 115.592 92.667 117.149 95.0515 118.715C95.0564 118.676 95.0765 118.646 95.0966 118.617ZM93.4713 120.112C93.4512 120.142 93.4311 120.171 93.411 120.2C90.9457 118.621 88.4703 117.057 86.0302 115.474C85.7315 115.291 85.5701 115.331 85.3893 115.596C84.8117 116.407 84.6286 117.359 84.4202 118.316C84.3308 118.707 84.4477 118.895 84.7667 119.113C87.1916 120.686 89.5763 122.318 92.0414 123.832C94.2687 125.205 96.5863 126.446 98.8536 127.76C99.2231 127.97 99.4553 127.956 99.676 127.568C100.017 126.94 100.403 126.342 100.805 125.755C101.036 125.417 100.975 125.246 100.641 125.018C98.2459 123.401 95.8712 121.754 93.4713 120.112Z" fill="black"/>
<path d="M1.05281 145.514C-1.36749 149.052 -5.87188 149.052 -8.53017 145.897C-9.42811 144.83 -9.9025 143.6 -9.96338 142.223C-9.96413 142.028 -9.99526 141.813 -10.0818 141.646C-10.4887 140.872 -10.4614 140.115 -10.1714 139.365C-9.37636 137.323 -7.88653 136.058 -5.67564 135.825C-2.90448 135.523 -0.738525 136.725 0.755066 139.04C2.24351 141.33 2.14647 143.655 1.05281 145.514ZM-5.46514 144.546C-5.2275 144.622 -4.7924 144.834 -4.31739 144.922C-2.47807 145.232 -1.14552 143.773 -1.71795 142.003C-1.91717 141.414 -2.27293 140.826 -2.71908 140.369C-3.83946 139.237 -5.61137 139.382 -6.36922 140.587C-6.64527 141.023 -6.90613 141.47 -7.13661 141.937C-7.19172 142.05 -7.19612 142.22 -7.1552 142.355C-6.87927 143.191 -6.39685 143.887 -5.46514 144.546Z" fill="black"/>
<path d="M44.5678 85.7267C44.8669 86.0392 45.2114 86.3179 45.4652 86.664C46.5971 88.1711 47.3964 89.8385 47.8731 91.6516C47.9806 92.0484 48.1086 92.4807 48.0748 92.8886C48.0457 93.1919 47.8754 93.5711 47.6337 93.7289C47.1552 94.0696 46.6212 94.3939 46.0615 94.5927C44.4175 95.1703 42.7583 95.7376 41.0837 96.2296C40.4683 96.412 39.7919 96.4879 39.1405 96.4948C38.1761 96.503 37.4068 96.0628 36.9087 95.2264C35.6329 93.0821 34.922 90.764 34.5541 88.3358C34.4347 87.4999 35.0424 86.6442 35.8645 86.3878C36.0612 86.3285 36.2883 86.2899 36.4902 86.2556C38.2312 85.9599 39.9874 85.6745 41.7385 85.3641C42.9697 85.129 43.7326 85.22 44.5678 85.7267ZM37.5005 88.9509C37.8495 90.3965 38.3295 91.7808 38.9862 93.1352C39.1846 93.5296 39.4125 93.6855 39.8363 93.5875C41.6677 93.1597 43.5143 92.7422 45.3457 92.3144C45.3709 92.3101 45.3758 92.2703 45.3356 92.3291C44.7616 91.4407 44.223 90.5981 43.6946 89.7409C43.4405 89.33 43.2217 88.9002 43.0029 88.4703C42.8247 88.1114 42.5464 87.9641 42.1479 88.0577C40.629 88.3547 39.095 88.6412 37.5005 88.9509Z" fill="black"/>
<path d="M7.17103 13.141C7.43654 12.59 7.65184 12.1123 7.90755 11.6408C8.07803 11.3264 8.27374 11.0078 8.53045 10.7955C9.29056 10.1735 10.3073 10.6105 10.4575 11.5968C10.4938 11.8371 10.4696 12.1007 10.4098 12.3184C10.1255 13.2229 9.8311 14.1421 9.49115 15.03C8.97633 16.4018 7.61969 16.8528 6.30874 16.0636C5.77221 15.7396 5.28074 15.3172 4.77434 14.9491C4.54135 14.7682 4.30837 14.5872 4.02466 14.35C3.76945 14.9512 3.54437 15.5083 3.31414 16.0404C3.21911 16.2771 3.09884 16.518 2.95824 16.7235C2.39585 17.5455 1.42724 17.7879 0.586667 17.1912C-0.253904 16.5946 -1.03422 15.9099 -1.80449 15.2105C-3.56798 13.616 -5.33661 11.9965 -7.12559 10.3415C-6.64354 9.63697 -6.10124 8.84435 -5.5288 8.00768C-2.94194 9.66981 -1.05392 12.1252 1.26694 14.2087C1.52755 13.6975 1.78841 13.251 1.97847 12.7777C2.02354 12.6792 1.9167 12.4768 1.80523 12.379C1.46052 12.0354 1.08568 11.7358 0.730928 11.4069C0.518024 11.1966 0.305112 10.9863 0.147568 10.7277C-0.147183 10.2459 -0.169268 9.75664 0.167288 9.29732C0.498699 8.81293 0.997944 8.63732 1.54401 8.81699C2.01928 8.96976 2.48476 9.20203 2.8596 9.50159C4.0956 10.4981 5.27624 11.5429 6.49215 12.5688C6.69991 12.754 6.89248 12.9289 7.17103 13.141Z" fill="black"/>
<path d="M50.4967 88.4687C49.5952 87.7656 48.7938 86.851 48.2895 85.7302C47.8617 84.791 47.474 83.7931 47.2934 82.786C46.7257 79.6393 47.2647 76.6678 48.9611 73.9927C49.719 72.7872 50.8267 71.9504 52.1627 71.3992C53.0753 71.0107 54.0395 70.9377 54.9957 71.3979C55.6331 71.7048 56.0193 72.3138 55.9306 72.8996C55.8964 73.1779 55.8163 73.3601 55.4422 73.255C55.2905 73.2159 55.0586 73.2942 54.9126 73.4098C53.6586 74.2974 52.6479 75.4161 52.1993 76.9193C51.8201 78.1253 51.4562 79.3416 51.1984 80.5659C50.8908 81.9933 50.9267 83.4401 51.2909 84.896C51.5881 86.026 52.0618 87.0612 52.8379 87.9802C53.3199 88.5469 53.1097 89.0496 52.3829 89.1342C51.8679 89.1698 51.1955 88.9467 50.4967 88.4687Z" fill="black"/>
<path d="M22.483 31.6335C21.2194 33.9367 20.6527 36.2643 21.4352 38.8037C21.742 39.7894 22.3307 40.5586 23.2519 41.1026C23.4898 41.2438 23.7428 41.3954 23.9606 41.566C24.3051 41.8447 24.4328 42.2122 24.3081 42.6226C24.1734 43.0476 23.8413 43.3375 23.4018 43.2954C22.9775 43.2637 22.5073 43.136 22.1279 42.941C20.3416 41.9991 19.3511 40.4809 18.9499 38.5902C18.3842 35.9621 18.8999 33.5135 20.2143 31.2665C20.6858 30.447 21.3192 29.7167 21.9122 28.9803C22.0781 28.7705 22.3502 28.6334 22.5871 28.5154C23.2372 28.1844 23.6772 28.3562 24.0232 29.0238C24.6032 30.1318 25.163 31.2691 25.8035 32.3538C26.7539 33.9306 28.1364 34.9412 29.9858 35.2367C30.0262 35.2428 30.0818 35.2593 30.1374 35.2758C30.8097 35.4341 31.1289 35.7171 31.1507 36.1415C31.1677 36.6056 30.8412 37.0503 30.2459 37.2033C28.46 37.6623 26.8373 37.1985 25.4288 35.9978C24.2381 34.9677 23.42 33.6537 22.7883 32.2303C22.6766 32.0676 22.5901 31.9007 22.483 31.6335Z" fill="black"/>
<path d="M53.299 147.147C52.3951 148.468 50.8686 150.7 49.3522 152.916C49.1714 153.18 48.9907 153.444 48.7795 153.688C48.3624 154.2 47.7872 154.323 47.2408 154.079C46.7046 153.82 46.3841 153.213 46.5533 152.574C46.6777 152.099 46.8678 151.626 47.1034 151.183C49.3549 147.078 51.829 143.103 54.6322 139.332C55.2953 138.428 55.9939 137.57 56.7228 136.733C57.0496 136.353 57.4927 136.031 57.9565 135.81C58.2186 135.687 58.6833 135.725 58.9616 135.872C59.3259 136.057 59.3477 136.481 59.2228 136.827C59.0029 137.409 58.8033 138.027 58.4822 138.561C56.9621 141.142 55.4013 143.651 53.299 147.147Z" fill="black"/>
<path d="M41.4722 179.72C40.507 180.87 39.5821 181.961 38.6371 183.081C38.4852 182.977 38.3385 182.899 38.2118 182.79C36.1146 181.097 33.8068 179.777 31.2582 178.873C30.4694 178.592 29.6852 178.206 28.9715 177.783C28.5362 177.507 28.1508 177.092 27.8764 176.646C27.2869 175.682 27.6614 174.581 28.7358 174.281C29.3916 174.105 30.1588 174.027 30.8159 174.175C32.1755 174.501 33.5357 174.958 34.8356 175.502C37.0914 176.443 39.1418 177.781 41.0415 179.339C41.1681 179.447 41.2847 179.57 41.4722 179.72Z" fill="black"/>
<path d="M17.0363 21.7654C17.5986 22.2148 18.1709 22.6494 18.6979 23.1177C19.4074 23.7756 19.3693 24.3529 18.7407 25.0434C17.6847 26.1957 16.9781 27.587 16.327 28.9949C16.0716 29.5312 15.8465 30.0884 15.5911 30.6247C15 31.8797 13.784 32.1252 12.7249 31.1635C11.615 30.1456 10.5405 29.1087 9.48598 28.0424C8.73065 27.2886 8.80283 26.3683 9.52691 25.5707C10.6632 24.3009 11.7641 22.9853 12.8548 21.6844C12.9905 21.5187 13.0907 21.307 13.1757 21.085C13.4407 20.4044 13.9546 20.1095 14.6729 20.4286C15.4873 20.7702 16.2668 21.2605 17.0461 21.6859C17.0665 21.7214 17.0564 21.7361 17.0363 21.7654ZM16.775 24.6897C15.9244 24.1078 15.0737 23.5258 14.2079 22.9334C13.5914 24.1279 12.995 25.2929 12.4238 26.4537C12.3788 26.5522 12.3947 26.757 12.4758 26.834C12.9374 27.3653 13.4242 27.8924 13.9414 28.4402C14.8808 27.165 15.8153 25.9295 16.775 24.6897Z" fill="black"/>
<path d="M108.308 109.77C107.821 110.514 107.162 111.054 106.375 111.421C104.813 112.141 103.235 112.785 101.534 113.152C101.07 113.243 100.657 113.456 100.203 113.598C99.8448 113.698 99.5716 113.576 99.5145 113.17C99.4523 112.74 99.3192 112.283 99.3934 111.881C99.8836 109.372 100.951 107.193 102.964 105.553C104.172 104.57 105.62 104.051 107.19 103.876C107.407 103.852 107.654 103.849 107.891 103.86C109.573 103.977 110.376 105.15 109.801 106.675C109.581 107.257 109.306 107.823 109.045 108.399C108.815 108.866 108.554 109.313 108.308 109.77ZM108.139 106.4C105.918 106.647 102.751 109.222 102.349 111.08C102.647 111.004 102.95 110.952 103.217 110.855C103.908 110.595 104.563 110.289 105.259 110.054C107.014 109.445 107.463 107.877 108.139 106.4Z" fill="black"/>
<path d="M86.2105 139.819C86.9235 138.776 87.6062 137.713 88.3547 136.717C88.6812 136.273 89.0886 135.84 89.5672 135.564C90.6706 134.897 91.9004 135.609 91.8802 136.91C91.8673 137.483 91.6726 138.061 91.4372 138.568C90.2196 141.032 88.6326 143.286 86.8886 145.411C86.7027 145.65 86.456 145.848 86.2042 146.021C85.5695 146.427 84.8068 146.401 84.2093 145.97C83.627 145.55 83.3312 144.809 83.5607 144.083C83.6853 143.672 83.8757 143.264 84.1167 142.911C84.7893 141.863 85.5075 140.846 86.2105 139.819Z" fill="black"/>
<path d="M33.0026 46.2439C32.1972 46.8996 31.3547 47.1205 30.4132 46.541C29.3553 45.9034 29.0069 44.5875 29.5734 43.5313C30.1098 42.5192 31.4415 42.1373 32.5292 42.666C34.8615 43.7876 36.241 46.6278 35.5989 49.033C35.1561 50.7557 34.2831 52.2272 32.8989 53.3705C32.3654 53.8243 31.7608 54.1865 31.0188 54.2606C30.3272 54.3262 29.6954 54.1741 29.2387 53.603C28.9748 53.2716 28.9128 52.906 29.1134 52.5476C29.314 52.1892 29.6619 52.0393 30.0712 52.1254C30.6222 52.2653 31.081 52.0836 31.4837 51.7558C32.6718 50.8015 33.3689 49.5545 33.5549 48.044C33.6585 47.4038 33.535 46.8021 33.0026 46.2439Z" fill="black"/>
<path d="M112.722 108.566C113.732 107.253 114.752 105.925 115.762 104.612C115.948 104.373 116.149 104.144 116.38 103.936C116.798 103.554 117.283 103.497 117.688 103.753C118.153 104.05 118.266 104.472 118.142 104.947C118.012 105.462 117.843 105.971 117.617 106.463C116.345 109.17 114.855 111.771 113.031 114.143C112.68 114.592 112.242 115.004 111.794 115.365C111.255 115.794 110.624 115.772 110.148 115.424C109.687 115.088 109.437 114.507 109.662 113.885C109.927 113.14 110.293 112.442 110.644 111.734C110.774 111.478 110.96 111.239 111.105 110.994C111.648 110.201 112.2 109.394 112.742 108.601C112.737 108.576 112.737 108.576 112.722 108.566Z" fill="black"/>
<path d="M81.3779 122.958C81.9248 123.332 82.4968 123.702 83.0336 124.091C83.2666 124.272 83.4947 124.492 83.637 124.741C83.957 125.218 83.924 125.82 83.5009 126.113C82.3124 126.937 81.7113 128.207 80.9888 129.394C80.8834 129.58 80.7781 129.767 80.6373 129.907C80.215 130.394 79.5944 130.551 79.0376 130.192C77.7619 129.384 76.4711 128.565 75.2556 127.669C74.3795 127.027 74.417 126.255 75.1058 125.476C75.6336 124.868 76.0856 124.207 76.5527 123.557C76.8792 123.112 77.1449 122.626 77.4462 122.186C78.0488 121.305 78.841 121.158 79.7624 121.766C80.3193 122.126 80.8713 122.525 81.4181 122.899C81.4081 122.914 81.388 122.943 81.3779 122.958ZM78.3614 123.782C77.8592 124.516 77.3821 125.18 76.9505 125.876C76.8802 125.979 76.9216 126.245 77.0127 126.307C77.7725 126.891 78.5371 127.436 79.3269 127.976C79.4181 128.039 79.6604 128.011 79.7206 127.923C80.2279 127.214 80.73 126.48 81.2422 125.731C80.3208 125.122 79.3639 124.468 78.3614 123.782Z" fill="black"/>
<path d="M76.577 151.976C76.953 151.263 77.5646 150.109 78.2014 148.95C78.3618 148.65 78.5223 148.35 78.7283 148.082C79.3112 147.36 80.2453 147.331 80.8642 148.056C81.1585 148.409 81.3773 148.838 81.5152 149.256C81.9039 150.513 82.5997 151.55 83.5525 152.438C84.0087 152.88 84.5002 153.302 84.2403 154.008C83.9704 154.728 83.319 154.735 82.6777 154.728C81.0566 154.717 79.4408 154.733 77.8198 154.722C77.638 154.727 77.4511 154.707 77.2793 154.698C76.0667 154.514 75.5573 153.368 76.577 151.976ZM79.2695 152.245C79.81 152.27 80.2443 152.287 80.7443 152.306C80.4699 151.859 80.2513 151.494 79.9821 151.073C79.7362 151.465 79.5304 151.798 79.2695 152.245Z" fill="black"/>
<path d="M0.832232 24.6216C2.10803 24.1584 3.33826 23.664 4.60426 23.2804C5.21963 23.098 5.88597 23.0367 6.53736 23.0298C6.94133 23.0261 7.31101 23.3006 7.3429 23.7103C7.3542 24.0197 7.16364 24.3634 7.02844 24.6588C6.96329 24.7866 6.78177 24.8563 6.64067 24.9322C6.41898 25.0607 6.18209 25.1788 5.95525 25.2821C4.38746 25.9766 2.81967 26.671 1.24673 27.3403C0.93415 27.4712 0.606381 27.5918 0.263172 27.6371C-0.761308 27.7982 -1.5769 27.1324 -1.62134 26.0892C-1.63288 25.7149 -1.57877 25.3425 -1.59032 24.9683C-1.65095 23.6554 -1.73681 22.3467 -1.80748 21.0485C-1.83422 20.6639 -1.89134 20.2585 -1.87766 19.8799C-1.84464 19.2776 -1.39686 18.8513 -0.846394 18.8615C-0.28074 18.8822 0.119841 19.3071 0.198046 19.9425C0.385589 21.4284 0.583179 22.8996 0.780764 24.3709C0.786161 24.4608 0.796455 24.5109 0.832232 24.6216Z" fill="black"/>
<path d="M55.6856 153.177C55.0629 154.087 54.4555 155.007 53.8125 155.882C53.6016 156.19 53.3047 156.461 53.0026 156.707C52.6453 157.001 52.206 157.024 51.801 156.768C51.3961 156.513 51.2228 156.114 51.312 155.658C51.3563 155.365 51.4611 155.049 51.5914 154.793C52.8842 152.186 54.3692 149.69 56.1985 147.407C56.3744 147.183 56.5958 146.99 56.8528 146.842C57.2357 146.609 57.6597 146.575 58.0647 146.831C58.4849 147.097 58.6329 147.5 58.579 147.937C58.5499 148.24 58.4703 148.552 58.3148 148.812C57.4822 150.29 56.6345 151.757 55.7867 153.224C55.7463 153.218 55.7159 153.197 55.6856 153.177Z" fill="black"/>
<path d="M6.58678 81.398C5.71721 82.4408 4.90299 83.4353 4.0584 84.409C3.39972 85.1436 2.33872 84.9995 1.90576 84.0352C1.51861 83.167 1.28776 82.2332 1.05691 81.2995C0.923592 80.7773 0.901253 80.2233 0.884056 79.6943C0.856316 79.0504 1.32857 78.4253 1.96478 78.4081C3.47947 78.3454 4.97997 78.5316 6.25639 79.5342C7.15797 80.2372 7.18445 80.557 6.58678 81.398Z" fill="black"/>
<path d="M62.9753 161.784C63.6949 162.428 64.3939 162.97 65.0073 163.606C65.7019 164.318 65.654 164.975 64.8735 165.561C63.8312 166.335 62.7686 167.073 61.7059 167.812C61.3081 168.1 60.8542 168.242 60.3684 167.974C59.8522 167.686 59.7897 167.19 59.8433 166.688C59.9159 165.897 60.0139 165.102 60.0613 164.316C60.0946 163.779 60.0874 163.235 60.0198 162.715C59.8896 161.699 60.6139 160.966 61.6198 161.223C62.1049 161.297 62.5554 161.583 62.9753 161.784Z" fill="black"/>
<path d="M22.7387 112.124C22.6015 111.901 22.2565 111.492 22.0174 111.027C21.6102 110.188 21.4754 109.277 21.6335 108.394C21.8265 107.362 22.0699 106.322 22.4348 105.365C22.6197 104.866 23.0675 104.44 23.5107 104.118C24.0092 103.748 24.6762 103.881 25.0364 104.3C25.1074 104.392 25.1334 104.582 25.1087 104.716C25.034 104.988 24.8885 105.233 24.839 105.501C24.5873 107.01 24.4165 108.531 24.6143 110.067C24.6511 110.437 24.6827 110.782 25.0877 111.037C25.4623 111.272 25.3729 111.663 25.1672 111.997C24.7152 112.657 23.7108 112.789 22.7387 112.124Z" fill="black"/>
<path d="M110.497 118.271C110.832 118.564 111.287 118.811 111.198 119.332C111.109 119.853 110.676 120.096 110.186 120.192C109.763 120.29 109.308 120.302 108.874 120.285C107.525 120.268 106.167 120.2 104.818 120.183C103.98 120.169 103.363 119.768 103.183 119.085C103.014 118.387 103.37 117.704 104.136 117.367C104.257 117.32 104.378 117.274 104.514 117.238C105.947 116.839 109.246 117.394 110.497 118.271Z" fill="black"/>
<path d="M70.7952 63.2655C71.7542 61.8313 74.6887 60.6712 76.4221 61.0384C76.9275 61.1471 77.3526 61.3733 77.6522 61.8153C77.9164 62.2115 77.8772 62.5295 77.4843 62.7779C77.1719 62.9736 76.8292 63.1486 76.4762 63.2734C75.1299 63.7746 73.8191 64.3215 72.6357 65.1712C72.0313 65.5982 71.3696 65.5549 70.8779 65.0676C70.4318 64.6115 70.3835 63.8673 70.7952 63.2655Z" fill="black"/>
<path d="M46.8435 70.9277C46.5412 71.1088 46.239 71.2899 45.9367 71.471C45.774 71.1872 45.5204 70.906 45.4586 70.6052C45.2945 69.9325 45.2312 69.2428 45.1326 68.572C45.0495 67.9764 44.9765 67.3661 44.8681 66.7748C44.7601 66.2483 44.5361 65.7934 44.1054 65.4125C43.6291 65.0004 43.536 64.4195 43.7917 63.948C44.0523 63.4367 44.6219 63.1584 45.2084 63.3441C45.6584 63.5012 46.0636 63.8215 46.4737 64.1021C46.5952 64.1853 46.6766 64.3271 46.7528 64.4439C47.7434 65.9621 47.7919 69.3786 46.8435 70.9277Z" fill="black"/>
<path d="M2.95202 7.3453C2.19744 6.78593 1.52911 6.32866 0.92617 5.80839C0.262476 5.24656 0.13845 4.51522 0.555348 3.93847C0.962203 3.37641 1.79976 3.19523 2.44801 3.68185C3.88637 4.77369 5.27941 5.89918 6.63229 7.08338C7.23522 7.60365 7.28305 8.21821 6.98666 8.61881C6.67509 9.00902 6.15525 9.08435 5.44185 8.72555C4.55646 8.29218 3.7061 7.77503 2.95202 7.3453Z" fill="black"/>
<path d="M37.1318 53.7023C37.0507 53.6253 36.99 53.5837 36.9444 53.5525C36.3113 53.0763 36.0568 52.5358 36.2159 51.912C36.3651 51.3029 36.9086 50.8343 37.5698 50.748C38.2462 50.672 38.9846 50.9617 39.2546 51.5774C39.4533 52.0366 39.6121 52.6194 39.523 53.0756C39.2218 54.8521 38.1257 56.0631 36.4618 56.7349C36.0888 56.8891 35.6292 56.8764 35.2049 56.8446C34.6189 56.7885 34.2235 56.3887 34.1913 55.9142C34.1491 55.4543 34.4406 55.0935 35.0511 54.9508C35.8583 54.7489 36.5841 54.405 37.1318 53.7023Z" fill="black"/>
<path d="M28.7964 31.9879C28.056 31.1796 27.3055 30.386 26.5904 29.5735C26.4534 29.4151 26.3466 29.2127 26.2902 29.0018C26.0704 28.3127 26.6235 27.6998 27.3112 27.9332C27.7461 28.0799 28.1412 28.4149 28.5261 28.6998C29.3667 29.2965 30.1872 29.9225 31.0478 30.4898C31.4124 30.7392 31.7965 30.8296 32.199 30.4369C32.4907 30.1409 32.9354 30.2081 33.2999 30.4575C33.6948 30.7277 33.8428 31.1306 33.7537 31.5868C33.6301 32.2565 32.9001 32.8345 32.0319 32.9301C31.1385 33.03 30.3445 32.7238 29.5551 32.313C29.3476 32.1926 29.145 32.0324 28.9323 31.8869C28.8718 31.9102 28.8265 31.9438 28.7964 31.9879Z" fill="black"/>
<path d="M13.7568 17.2373C13.3502 17.8642 12.7552 18.082 12.2089 17.8375C11.6625 17.593 11.3673 16.9816 11.597 16.3199C12.2615 14.4687 13.189 12.7544 14.4101 11.1979C14.792 10.7049 15.2966 10.6192 15.7117 10.86C16.1367 11.0862 16.3661 11.631 16.1057 12.2071C15.475 13.6504 14.7887 15.0772 14.1176 16.5144C14.0025 16.7805 13.847 17.0404 13.7568 17.2373Z" fill="black"/>
<path d="M4.55969 50.8548C5.06308 50.445 5.51575 49.9789 6.06496 49.6651C7.10287 49.0607 8.40152 49.2811 9.2279 50.1267C9.95286 50.8597 9.8503 51.7593 8.97357 52.2585C8.8577 52.33 8.71146 52.3808 8.5804 52.442C7.71836 52.8219 6.85631 53.2019 5.99941 53.6069C5.11729 54.0162 4.32794 53.6054 4.16764 52.6338C4.05905 51.9776 4.27409 51.4352 4.55969 50.8548Z" fill="black"/>
<path d="M6.86669 115.832C7.292 116.123 7.75258 116.395 8.13257 116.719C8.41627 116.956 8.69019 117.273 8.84798 117.597C9.25006 118.41 8.73788 119.159 7.83881 119.104C7.47012 119.089 7.09088 118.959 6.74692 118.81C5.68955 118.302 4.65227 117.765 3.61499 117.227C3.41263 117.132 3.21002 116.972 3.04783 116.818C2.57645 116.366 2.46297 115.749 2.69835 115.242C2.96386 114.691 3.52826 114.388 4.15492 114.515C4.56429 114.601 4.969 114.792 5.34849 114.987C5.90485 115.217 6.37573 115.539 6.86669 115.832Z" fill="black"/>
<path d="M8.76139 95.2985C8.18908 94.8639 7.6523 94.4751 7.1356 94.0569C6.96337 93.9175 6.82642 93.7591 6.6995 93.5861C6.344 93.0627 6.3214 92.4439 6.62783 92.0286C6.95435 91.584 7.53444 91.4206 8.13123 91.6565C8.5308 91.8221 8.94582 92.063 9.29028 92.3417C10.1514 93.0387 10.9673 93.7692 11.7831 94.4998C12.0872 94.7725 12.3662 95.1143 12.5796 95.4542C12.9912 96.1237 12.6199 96.7317 11.8269 96.6848C11.4582 96.6695 11.0689 96.5541 10.735 96.3902C10.052 96.0522 9.39395 95.6451 8.76139 95.2985Z" fill="black"/>
<path d="M57.4516 81.0085C56.1016 81.8735 55.358 84.1662 55.8633 85.5463C56.1032 86.206 55.7718 86.6904 55.0851 86.7163C54.4641 86.7439 54.0084 86.4322 53.658 85.9339C53.257 85.3793 53.1283 84.7525 53.2167 84.1019C53.3679 82.74 53.9999 81.6208 55.0165 80.7216C55.4694 80.3204 56.0495 80.157 56.6615 80.4033C56.9398 80.5506 57.1578 80.786 57.4516 81.0085Z" fill="black"/>
<path d="M42.7012 49.6687C41.9111 49.0635 41.3584 48.4698 41.1734 47.6321C41.0244 46.9698 41.1483 46.365 41.7274 45.9424C42.1705 45.6206 42.5747 45.6817 43.0054 46.0625C43.6642 46.6641 44.3632 47.207 44.9867 47.8275C45.4125 48.2482 45.7729 48.7318 46.1081 49.2197C46.4991 49.7889 46.3142 50.2874 45.6378 50.3633C45.0624 50.4222 44.4661 50.3159 43.8899 50.1803C43.435 50.0629 43.0148 49.797 42.7012 49.6687Z" fill="black"/>
<path d="M106.17 97.4458C105.939 97.7834 105.733 98.1167 105.487 98.4439C105.065 98.9956 104.419 99.1572 103.888 98.8583C103.356 98.5594 103.112 97.9393 103.362 97.3131C103.937 95.8533 104.912 94.6888 106.105 93.6948C106.427 93.4195 106.856 93.3467 107.256 93.6419C107.656 93.9372 107.718 94.3677 107.563 94.7573C107.168 95.6936 106.712 96.5883 106.286 97.5039C106.231 97.4874 106.2 97.4666 106.17 97.4458Z" fill="black"/>
<path d="M6.54061 121.686C6.30912 121.894 6.11831 122.173 5.8562 122.295C4.93365 122.698 4.01625 123.126 3.05277 123.394C2.65935 123.513 2.07801 123.352 1.69337 123.132C0.954483 122.713 0.924983 121.615 1.69124 121.277C3.04224 120.671 4.47973 120.233 6.0361 120.5C6.85972 120.633 6.98224 120.975 6.54061 121.686Z" fill="black"/>
<path d="M21.2192 18.3565C21.8772 17.4275 22.957 17.2181 23.8836 17.852C24.7646 18.4548 24.9915 19.6875 24.3586 20.5475C23.7509 21.4031 22.6507 21.577 21.7849 20.9847C20.8784 20.3214 20.6368 19.2078 21.2192 18.3565Z" fill="black"/>
<path d="M57.5036 157.071C57.1869 157.436 56.8853 157.812 56.5382 158.156C56.1257 158.563 55.6108 158.599 55.1754 158.323C54.7249 158.036 54.4755 157.52 54.7461 156.994C55.187 156.089 55.6987 155.211 56.2863 154.385C56.7032 153.808 57.3595 153.761 57.8656 154.065C58.3617 154.382 58.5306 154.951 58.306 155.637C58.246 155.79 58.186 155.943 58.1108 156.086C57.905 156.419 57.6789 156.717 57.458 157.04C57.4732 157.05 57.4884 157.06 57.5036 157.071Z" fill="black"/>
<path d="M32.8854 125.617C33.7816 126.23 34.0637 127.35 33.5366 128.153C32.9793 129 31.788 129.111 30.7551 128.405C29.9197 127.833 29.7035 126.78 30.2458 125.987C30.8234 125.176 31.9893 125.004 32.8854 125.617Z" fill="black"/>
<path d="M28.1051 68.6881C28.3925 68.5614 28.6391 68.3639 28.9218 68.3418C29.0884 68.3265 29.3822 68.549 29.4434 68.7202C29.8421 69.9627 30.6487 70.9024 31.6316 71.7473C31.8393 71.9326 32.1488 72.2951 32.0888 72.448C31.9889 72.7244 31.6819 73.0101 31.3843 73.0866C30.5722 73.3283 29.8338 73.0386 29.2157 72.508C28.3494 71.786 27.9517 70.8027 27.9122 69.7197C27.9209 69.381 28.0258 69.0648 28.1051 68.6881Z" fill="black"/>
<path d="M55.6598 186.948C55.9435 187.186 56.2272 187.423 56.5009 187.675C56.8556 188.004 56.8515 188.238 56.3975 188.38C55.8326 188.554 55.2373 188.707 54.6264 188.719C53.9497 188.731 53.2675 188.587 52.6156 188.464C51.8576 188.334 51.4061 187.788 51.444 187.146C51.4919 186.489 52.0404 185.98 52.7878 185.996C53.8383 186.025 54.7541 186.479 55.6598 186.948Z" fill="black"/>
<path d="M-2.14179 155.073C-1.55931 154.222 -0.479473 154.013 0.315529 154.578C1.12057 155.129 1.37252 156.292 0.85519 157.016C0.367992 157.695 -1.07539 157.915 -1.7893 157.426C-2.53873 156.892 -2.69414 155.881 -2.14179 155.073Z" fill="black"/>
<path d="M77.9888 100.468C77.1989 99.928 76.9879 98.9001 77.5202 98.1222C78.0424 97.3589 79.0921 97.1936 79.882 97.734C80.6566 98.264 80.8777 99.2772 80.3807 100.036C79.8585 100.799 78.7787 101.009 77.9888 100.468Z" fill="black"/>
<path d="M120.461 87.1176C120.977 87.471 121.262 88.0323 121.163 88.5032C121.069 88.9343 120.606 89.3502 119.98 89.3528C119.364 89.3407 118.712 89.2828 118.135 89.0823C117.225 88.7829 117.075 87.6669 117.774 87.0681C118.403 86.5072 119.625 86.5461 120.461 87.1176Z" fill="black"/>
<path d="M12.4691 153.045C13.107 153.482 13.1227 153.622 12.5833 153.856C11.7514 154.192 10.9195 154.528 10.0518 154.753C9.19926 154.989 8.4905 154.525 8.36648 153.794C8.22727 153.052 8.79041 152.425 9.66375 152.354C10.7441 152.275 11.7199 152.576 12.4691 153.045Z" fill="black"/>
<path d="M22.3284 181.039C22.6981 181.313 22.9674 181.734 22.9897 182.288C22.9853 182.458 22.9457 182.646 22.8857 182.799C22.6302 183.335 21.3889 183.585 20.7008 183.222C20.0278 182.869 19.7722 182.07 20.108 181.416C20.5092 180.699 21.5234 180.488 22.3284 181.039Z" fill="black"/>
<path d="M109.222 99.2753C108.622 99.6625 108.033 100.1 107.393 100.416C106.798 100.699 106.196 100.438 105.947 99.9224C105.718 99.4424 105.877 98.8186 106.452 98.5653C107.112 98.2845 107.834 98.1101 108.555 98.0005C108.808 97.9576 109.248 98.1293 109.355 98.3317C109.487 98.5298 109.286 98.8882 109.222 99.2753Z" fill="black"/>
<path d="M41.5208 174.042C41.9728 173.382 42.7851 173.205 43.4179 173.616C44.0507 174.028 44.2206 174.855 43.7887 175.486C43.3569 176.117 42.4184 176.316 41.7804 175.879C41.1881 175.474 41.079 174.688 41.5208 174.042Z" fill="black"/>
<path d="M88.5084 156.928C88.0766 157.559 87.2187 157.705 86.5959 157.279C86.0136 156.859 85.8893 156.063 86.3111 155.446C86.738 154.855 87.5303 154.707 88.1379 155.123C88.7807 155.52 88.9302 156.312 88.5084 156.928Z" fill="black"/>
<path d="M51.8074 94.4079C52.415 94.8236 52.59 95.676 52.1983 96.2485C51.8066 96.8209 51.0293 96.9141 50.3914 96.4776C49.7635 96.0264 49.6039 95.2492 50.046 94.6682C50.4529 94.1061 51.215 94.0026 51.8074 94.4079Z" fill="black"/>
<path d="M83.8441 162.507C83.5127 162.992 82.8214 163.122 82.3202 162.779C81.8037 162.426 81.6596 161.724 82.0011 161.225C82.3477 160.751 83.0289 160.635 83.5302 160.978C84.0466 161.332 84.1856 162.008 83.8441 162.507Z" fill="black"/>
<path d="M24.4015 52.4269C24.7128 51.9719 25.3184 51.869 25.7792 52.2058C26.2249 52.5323 26.3433 53.1089 26.042 53.5493C25.7306 54.0043 25.1251 54.1072 24.6642 53.7703C24.2085 53.4586 24.1002 52.8672 24.4015 52.4269Z" fill="black"/>
</g>
</mask>
<g mask="url(#mask0_1479_2147)">
<path fill-rule="evenodd" clip-rule="evenodd" d="M-86.0991 103.162C-77.2626 82.7616 -51.046 77.6759 -29.2402 73.5323C-7.41611 69.3852 15.7301 68.3687 34.4509 80.255C53.7125 92.4846 67.6392 113.33 69.3518 136.131C70.94 157.276 56.3968 175.044 42.7953 191.349C30.8565 205.661 16.3254 217.109 -1.78108 221.402C-20.8366 225.921 -43.3764 228.316 -57.8928 215.225C-71.7759 202.705 -63.0156 180.215 -67.5855 162.059C-72.8085 141.308 -94.6198 122.834 -86.0991 103.162Z" fill="#9864F1"/>
</g>
<defs>
<clipPath id="clip0_1479_2147">
<rect width="228.167" height="164.591" fill="white" transform="translate(-129 188.31) rotate(-55.6208)"/>
</clipPath>
</defs>
</svg>
