<svg width="67" height="67" viewBox="0 0 67 67" fill="none" xmlns="http://www.w3.org/2000/svg">
<g clip-path="url(#clip0_1479_2302)">
<path fill-rule="evenodd" clip-rule="evenodd" d="M15.4387 37.2096C15.1847 36.9603 14.9288 36.7109 14.671 36.4633C12.0431 33.9443 9.43568 31.4225 6.98925 28.7211C6.39648 28.0669 5.28354 26.7977 4.16595 26.1444C3.3666 25.6773 2.5393 25.4819 1.78276 25.5787C1.30073 25.6401 0.596332 25.883 0.242721 26.807C0.183165 26.9624 0.112459 27.2294 0.0845424 27.57C0.0398757 28.1209 0.0835905 29.1092 0.0975488 29.246C0.292965 31.2392 0.488375 33.145 0.846639 35.1169C1.17606 36.9314 1.40124 38.76 1.75578 40.5718C2.2862 43.2825 2.96925 45.8917 3.96494 48.4731C4.33437 49.4316 5.41289 49.9089 6.37136 49.5395C7.3289 49.1701 7.8072 48.0925 7.43777 47.1341C6.52117 44.7565 5.89678 42.3538 5.40917 39.8571C5.05742 38.0621 4.835 36.2493 4.50837 34.4515C4.29621 33.2818 4.14544 32.1363 4.01703 30.9805L4.23013 31.2196C6.73611 33.9862 9.40404 36.5704 12.0952 39.1499C13.1021 40.1158 14.0745 41.1096 15.0972 42.0597C15.18 42.1807 15.5624 42.7353 15.7504 42.9251C16.0631 43.2415 16.4009 43.4183 16.6949 43.5058C17.4422 43.7291 18.2006 43.6463 18.8631 42.8088C19.3591 42.1816 19.6448 41.2092 19.6234 40.0478C19.5945 38.4519 18.9888 36.348 18.8604 35.3784C18.0471 29.2432 16.7313 23.1322 16.3814 16.944C16.3237 15.9186 15.4443 15.1332 14.4188 15.1909C13.3933 15.2495 12.607 16.1288 12.6656 17.1543C13.0202 23.4356 14.3444 29.6396 15.1698 35.8678C15.2144 36.1991 15.3205 36.6709 15.4387 37.2096Z" fill="white"/>
<path fill-rule="evenodd" clip-rule="evenodd" d="M31.7008 11.7781C29.5903 12.3374 27.4761 12.825 25.7806 14.2748C24.007 15.7926 23.1053 17.9971 22.7843 20.4537C22.3748 23.5878 22.9239 27.1435 23.2644 29.6774C23.4413 30.9895 23.5166 32.818 23.8991 34.4381C24.2285 35.8312 24.7896 37.079 25.6448 37.9528C26.9885 39.3254 29.0506 39.464 31.1658 38.6079C33.6094 37.6187 36.0428 35.3361 36.7045 34.0054C37.1623 33.086 36.7872 31.9675 35.8669 31.5106C34.9475 31.0528 33.83 31.4278 33.3721 32.3472C32.9525 33.1912 31.3193 34.5302 29.769 35.1584C29.4229 35.2979 29.0804 35.4021 28.7566 35.4282C28.5881 35.4422 28.4197 35.4664 28.3053 35.35C27.7441 34.7759 27.5469 33.8426 27.384 32.8999C27.156 31.586 27.0927 30.2134 26.9541 29.1805C26.6488 26.9146 26.1092 23.7386 26.4749 20.9358C26.6712 19.4329 27.1151 18.0324 28.201 17.1037C29.461 16.0262 31.0839 15.7926 32.6537 15.3766C33.6466 15.1142 34.2394 14.0943 33.9761 13.1014C33.7136 12.1085 32.6937 11.5157 31.7008 11.7781Z" fill="white"/>
<path fill-rule="evenodd" clip-rule="evenodd" d="M31.5582 21.5849C29.9232 22.4755 28.1756 23.3911 26.4234 24.0202C25.4565 24.3673 24.9531 25.4337 25.2992 26.4006C25.6463 27.3674 26.7127 27.8708 27.6796 27.5237C29.6096 26.8314 31.5386 25.8348 33.3383 24.8549C34.24 24.3636 34.5741 23.232 34.0827 22.3303C33.5914 21.4276 32.4608 21.0945 31.5582 21.5849Z" fill="white"/>
<path fill-rule="evenodd" clip-rule="evenodd" d="M54.0352 22.5729C52.6766 20.9296 51.2407 19.3123 49.7239 17.8346C49.6001 17.7145 48.0703 16.4545 47.1612 15.9837C46.548 15.6663 46.0045 15.6087 45.6862 15.6394C44.7603 15.7287 44.1955 16.2303 43.9638 17.0882C43.7423 17.9109 43.6623 18.7679 43.6623 19.6426C42.286 17.0622 41.027 14.4083 40.2621 11.6138C40.1988 11.383 40.1476 11.2751 40.1392 11.2555C39.8814 10.686 39.5157 10.4924 39.3855 10.4161C38.7452 10.0402 38.1683 10.1035 37.6816 10.3222C37.6221 10.3482 36.31 10.9308 36.6235 12.4187C36.6487 12.5388 36.8627 13.3939 36.9251 13.728C36.98 14.0183 37.0991 14.2798 37.2656 14.5013C38.5479 18.1844 40.5096 21.6638 42.3921 25.0612C42.7987 25.7954 43.1161 26.552 43.3254 27.3643C43.3869 27.6016 43.412 28.1386 43.4659 28.4019C43.5581 28.8476 43.7404 29.1463 43.8568 29.299C44.4616 30.0936 45.207 30.1746 45.8947 29.9709C46.1887 29.8843 46.7778 29.6861 47.136 28.8328C47.9419 26.9158 47.8507 24.7988 47.6172 22.666C47.5483 22.035 47.4627 21.4041 47.4106 20.7807C49.066 22.4259 50.6154 24.2405 52.0717 26.0541C52.2318 26.2532 53.8528 28.066 54.2837 28.3358C55.3612 29.0133 56.1978 28.5043 56.5561 28.2009C57.1023 27.7375 57.5322 26.9419 57.7072 25.9285C57.9324 24.6174 57.7546 22.813 57.7369 22.0871C57.6188 17.2017 57.4419 12.0949 56.3448 7.32486C56.115 6.32358 55.1156 5.69821 54.1143 5.92806C53.113 6.1579 52.4877 7.15828 52.7175 8.15863C53.7588 12.6886 53.903 17.5396 54.0156 22.1775C54.0184 22.2845 54.0259 22.4185 54.0352 22.5729Z" fill="white"/>
<path fill-rule="evenodd" clip-rule="evenodd" d="M61.4718 6.08726C62.1465 9.34886 62.822 12.5807 63.2631 15.9344C63.3971 16.9533 64.3323 17.6717 65.3513 17.5377C66.3693 17.4037 67.0877 16.4685 66.9537 15.4496C66.3321 10.7195 65.2564 6.22871 64.3556 1.5629C64.0085 -0.240516 62.2944 0.0116897 62.1893 0.0303008C61.9576 0.0712452 60.6948 0.340173 60.6529 1.81883C60.6501 1.90909 60.7106 2.5474 60.7209 2.79493C60.7432 3.36164 60.732 3.91535 60.7031 4.48298C60.6696 5.13716 60.9777 5.72993 61.4718 6.08726Z" fill="white"/>
<path fill-rule="evenodd" clip-rule="evenodd" d="M66.2885 25.3208C66.4774 24.7457 66.3816 24.0888 65.9758 23.5797C65.3347 22.7767 64.1631 22.6455 63.36 23.2866C62.6184 23.8784 62.4797 24.5996 62.5793 25.4818C62.6947 26.5026 63.6178 27.2377 64.6386 27.1214C65.572 27.0163 66.2662 26.2346 66.2885 25.3208Z" fill="white"/>
<path fill-rule="evenodd" clip-rule="evenodd" d="M31.1552 61.2217C30.9653 60.8197 30.8127 60.5023 30.7765 60.4344C29.0475 57.2007 27.1715 54.0098 25.1289 50.9641C24.5566 50.1108 23.3999 49.8828 22.5466 50.4551C21.6933 51.0274 21.4653 52.1841 22.0376 53.0374C24.0113 55.9798 25.8231 59.0647 27.4944 62.1895C27.6218 62.4277 28.4715 64.5447 29.0782 65.4278C29.6281 66.2271 30.3186 66.5128 30.7141 66.5714C31.3422 66.6645 32.3249 66.4393 33.1224 65.3747C34.1637 63.9854 35.5139 60.2734 35.7363 59.6574C36.1439 58.524 36.4891 57.3347 36.8092 56.1781C37.4159 53.9838 37.7649 51.7505 38.0766 49.5004C38.2181 48.4823 37.5062 47.5425 36.4882 47.4011C35.4711 47.2605 34.5303 47.9724 34.3898 48.9895C34.1004 51.0768 33.7849 53.15 33.2219 55.1851C32.926 56.2525 32.6096 57.3515 32.2337 58.3974C32.1202 58.711 31.6791 60.0063 31.1552 61.2217Z" fill="white"/>
</g>
<defs>
<clipPath id="clip0_1479_2302">
<rect width="67" height="67" fill="white"/>
</clipPath>
</defs>
</svg>
