<svg width="18" height="18" viewBox="0 0 18 18" fill="none" xmlns="http://www.w3.org/2000/svg">
<path d="M2.24302 15.985L2.69701 15.094H2.69701L2.24302 15.985ZM1.51466 15.2566L2.40567 14.8027L2.40567 14.8027L1.51466 15.2566ZM13.7563 15.985L13.3023 15.094H13.3023L13.7563 15.985ZM14.4847 15.2566L13.5937 14.8027V14.8027L14.4847 15.2566ZM13.7563 4.68165L13.3023 5.57266L13.3023 5.57266L13.7563 4.68165ZM14.4847 5.41001L13.5937 5.864L14.4847 5.41001ZM2.24302 4.68165L1.78903 3.79065H1.78903L2.24302 4.68165ZM1.51466 5.41001L0.623657 4.95602H0.623657L1.51466 5.41001ZM10.9547 11.9092L11.4087 11.0182L10.9547 11.9092ZM10.5905 11.545L11.4815 11.091L10.5905 11.545ZM16.2422 11.545L15.3512 11.091L16.2422 11.545ZM15.878 11.9092L15.424 11.0182L15.878 11.9092ZM15.878 8.75749L15.424 9.6485L15.878 8.75749ZM16.2422 9.12167L15.3512 9.57566L16.2422 9.12167ZM10.9547 8.75749L11.4087 9.6485L10.9547 8.75749ZM10.5905 9.12167L11.4815 9.57566L10.5905 9.12167ZM2.62828 3.57152C2.1155 3.77663 1.86608 4.3586 2.0712 4.87139C2.27631 5.38417 2.85828 5.63359 3.37107 5.42847L2.62828 3.57152ZM10.1902 1.62379L9.81879 0.695318V0.695318L10.1902 1.62379ZM10.333 4.5C10.333 5.05228 10.7807 5.5 11.333 5.5C11.8853 5.5 12.333 5.05228 12.333 4.5H10.333ZM3.99967 5.5H11.9997V3.5H3.99967V5.5ZM11.9997 15.1667H3.99967V17.1667H11.9997V15.1667ZM2.33301 13.5V7.16666H0.333008V13.5H2.33301ZM13.6663 7.16666V8.875H15.6663V7.16666H13.6663ZM13.6663 12.1562V13.5H15.6663V12.1562H13.6663ZM3.99967 15.1667C3.51646 15.1667 3.2142 15.1659 2.98644 15.1473C2.77036 15.1296 2.71081 15.101 2.69701 15.094L1.78903 16.876C2.13176 17.0506 2.48382 17.1129 2.82358 17.1406C3.15167 17.1674 3.54946 17.1667 3.99967 17.1667V15.1667ZM0.333008 13.5C0.333008 13.9502 0.33223 14.348 0.359036 14.6761C0.386795 15.0159 0.449029 15.3679 0.623657 15.7106L2.40567 14.8027C2.39864 14.7889 2.37005 14.7293 2.35239 14.5132C2.33379 14.2855 2.33301 13.9832 2.33301 13.5H0.333008ZM2.69701 15.094C2.57157 15.0301 2.46959 14.9281 2.40567 14.8027L0.623657 15.7106C0.87932 16.2124 1.28727 16.6204 1.78903 16.876L2.69701 15.094ZM11.9997 17.1667C12.4499 17.1667 12.8477 17.1674 13.1758 17.1406C13.5155 17.1129 13.8676 17.0506 14.2103 16.876L13.3023 15.094C13.2885 15.101 13.229 15.1296 13.0129 15.1473C12.7852 15.1659 12.4829 15.1667 11.9997 15.1667V17.1667ZM13.6663 13.5C13.6663 13.9832 13.6656 14.2855 13.647 14.5132C13.6293 14.7293 13.6007 14.7889 13.5937 14.8027L15.3757 15.7106C15.5503 15.3679 15.6126 15.0159 15.6403 14.6761C15.6671 14.348 15.6663 13.9502 15.6663 13.5H13.6663ZM14.2103 16.876C14.7121 16.6204 15.12 16.2124 15.3757 15.7106L13.5937 14.8027C13.5298 14.9281 13.4278 15.0301 13.3023 15.094L14.2103 16.876ZM11.9997 5.5C12.4829 5.5 12.7852 5.50078 13.0129 5.51938C13.229 5.53704 13.2885 5.56563 13.3023 5.57266L14.2103 3.79065C13.8676 3.61602 13.5155 3.55378 13.1758 3.52603C12.8477 3.49922 12.4499 3.5 11.9997 3.5V5.5ZM15.6663 7.16666C15.6663 6.71645 15.6671 6.31866 15.6403 5.99057C15.6126 5.65081 15.5503 5.29875 15.3757 4.95602L13.5937 5.864C13.6007 5.8778 13.6293 5.93735 13.647 6.15343C13.6656 6.38119 13.6663 6.68345 13.6663 7.16666H15.6663ZM13.3023 5.57266C13.4278 5.63658 13.5298 5.73856 13.5937 5.864L15.3757 4.95602C15.12 4.45426 14.7121 4.04631 14.2103 3.79065L13.3023 5.57266ZM3.99967 3.5C3.54947 3.5 3.15167 3.49922 2.82358 3.52603C2.48382 3.55378 2.13176 3.61602 1.78903 3.79065L2.69701 5.57266C2.71081 5.56563 2.77036 5.53704 2.98644 5.51938C3.2142 5.50078 3.51646 5.5 3.99967 5.5V3.5ZM2.33301 7.16666C2.33301 6.68345 2.33379 6.38119 2.35239 6.15343C2.37005 5.93735 2.39864 5.8778 2.40567 5.864L0.623657 4.95602C0.449029 5.29875 0.386795 5.65081 0.359036 5.99057C0.33223 6.31866 0.333008 6.71645 0.333008 7.16666H2.33301ZM1.78903 3.79065C1.28727 4.04631 0.879319 4.45426 0.623657 4.95602L2.40567 5.864C2.46959 5.73856 2.57157 5.63658 2.69701 5.57266L1.78903 3.79065ZM11.833 9.66666H14.9997V7.66666H11.833V9.66666ZM15.333 10V10.6667H17.333V10H15.333ZM14.9997 11H11.833V13H14.9997V11ZM11.4997 10.6667V10H9.49967V10.6667H11.4997ZM11.833 11C11.714 11 11.6205 11 11.5397 10.9987C11.4588 10.9974 11.4051 10.9951 11.3671 10.992C11.29 10.9857 11.3333 10.9798 11.4087 11.0182L10.5007 12.8002C10.7543 12.9294 11.0034 12.9689 11.2042 12.9853C11.3934 13.0008 11.6162 13 11.833 13V11ZM9.49967 10.6667C9.49967 10.8835 9.4989 11.1063 9.51435 11.2954C9.53076 11.4962 9.57028 11.7454 9.6995 11.999L11.4815 11.091C11.5199 11.1663 11.514 11.2097 11.5077 11.1326C11.5046 11.0946 11.5022 11.0409 11.501 10.96C11.4997 10.8792 11.4997 10.7856 11.4997 10.6667H9.49967ZM11.4087 11.0182C11.44 11.0341 11.4655 11.0596 11.4815 11.091L9.6995 11.999C9.87526 12.3439 10.1557 12.6244 10.5007 12.8002L11.4087 11.0182ZM15.333 10.6667C15.333 10.7856 15.333 10.8792 15.3317 10.96C15.3304 11.0409 15.3281 11.0946 15.325 11.1326C15.3187 11.2097 15.3128 11.1663 15.3512 11.091L17.1332 11.999C17.2624 11.7454 17.3019 11.4962 17.3183 11.2954C17.3338 11.1063 17.333 10.8835 17.333 10.6667H15.333ZM14.9997 13C15.2165 13 15.4393 13.0008 15.6284 12.9853C15.8292 12.9689 16.0784 12.9294 16.332 12.8002L15.424 11.0182C15.4993 10.9798 15.5427 10.9857 15.4656 10.992C15.4276 10.9951 15.3739 10.9974 15.293 10.9987C15.2122 11 15.1186 11 14.9997 11V13ZM15.3512 11.091C15.3672 11.0596 15.3926 11.0341 15.424 11.0182L16.332 12.8002C16.677 12.6244 16.9574 12.3439 17.1332 11.999L15.3512 11.091ZM14.9997 9.66666C15.1186 9.66666 15.2122 9.66669 15.293 9.66796C15.3739 9.66923 15.4276 9.6716 15.4656 9.6747C15.5427 9.681 15.4993 9.68688 15.424 9.6485L16.332 7.86649C16.0784 7.73727 15.8292 7.69774 15.6284 7.68134C15.4393 7.66589 15.2165 7.66666 14.9997 7.66666V9.66666ZM17.333 10C17.333 9.78314 17.3338 9.56036 17.3183 9.37123C17.3019 9.17043 17.2624 8.92128 17.1332 8.66768L15.3512 9.57566C15.3128 9.50032 15.3187 9.45698 15.325 9.5341C15.3281 9.57205 15.3304 9.62579 15.3317 9.70665C15.333 9.78748 15.333 9.88104 15.333 10H17.333ZM15.424 9.6485C15.3926 9.63252 15.3672 9.60702 15.3512 9.57566L17.1332 8.66768C16.9574 8.32272 16.677 8.04225 16.332 7.86649L15.424 9.6485ZM11.833 7.66666C11.6162 7.66666 11.3934 7.66589 11.2042 7.68134C11.0034 7.69774 10.7543 7.73727 10.5007 7.86649L11.4087 9.6485C11.3333 9.68688 11.29 9.681 11.3671 9.6747C11.4051 9.6716 11.4588 9.66923 11.5397 9.66796C11.6205 9.66669 11.714 9.66666 11.833 9.66666V7.66666ZM11.4997 10C11.4997 9.88104 11.4997 9.78748 11.501 9.70665C11.5022 9.62579 11.5046 9.57205 11.5077 9.5341C11.514 9.45698 11.5199 9.50032 11.4815 9.57566L9.6995 8.66768C9.57028 8.92128 9.53076 9.17043 9.51435 9.37123C9.4989 9.56036 9.49967 9.78314 9.49967 10H11.4997ZM10.5007 7.86649C10.1557 8.04225 9.87526 8.32272 9.6995 8.66768L11.4815 9.57566C11.4655 9.60702 11.44 9.63252 11.4087 9.6485L10.5007 7.86649ZM3.37107 5.42847L10.5616 2.55227L9.81879 0.695318L2.62828 3.57152L3.37107 5.42847ZM10.333 2.39752V4.5H12.333V2.39752H10.333ZM10.5616 2.55227C10.4521 2.59606 10.333 2.51544 10.333 2.39752H12.333C12.333 1.10051 11.023 0.213618 9.81879 0.695318L10.5616 2.55227Z" fill="white"/>
</svg>
