<svg width="20" height="16" viewBox="0 0 20 16" fill="none" xmlns="http://www.w3.org/2000/svg">
<path d="M9.46162 5.79463L10.1687 5.08752L9.46162 5.79463ZM12.2057 8.53871L11.4986 9.24582H11.4986L12.2057 8.53871ZM12.795 8.53871L13.5021 9.24582L13.5021 9.24581L12.795 8.53871ZM18.2074 4.54044C18.598 4.14992 18.598 3.51675 18.2074 3.12623C17.8169 2.7357 17.1837 2.7357 16.7932 3.12623L18.2074 4.54044ZM4.29322 8.95956C3.90269 9.35009 3.90269 9.98325 4.29322 10.3738C4.68374 10.7643 5.31691 10.7643 5.70743 10.3738L4.29322 8.95956ZM8.87236 5.79463L9.57947 6.50174L9.57947 6.50174L8.87236 5.79463ZM14.167 2C13.6147 2 13.167 2.44772 13.167 3C13.167 3.55229 13.6147 4 14.167 4V2ZM17.3337 7.16667C17.3337 7.71895 17.7814 8.16667 18.3337 8.16667C18.8859 8.16667 19.3337 7.71895 19.3337 7.16667H17.3337ZM18.3337 15.6667C18.8859 15.6667 19.3337 15.219 19.3337 14.6667C19.3337 14.1144 18.8859 13.6667 18.3337 13.6667V15.6667ZM2.66699 1.33334C2.66699 0.781051 2.21928 0.333336 1.66699 0.333336C1.11471 0.333336 0.666992 0.781051 0.666992 1.33334H2.66699ZM3.48702 14.3034L3.94101 13.4124H3.94101L3.48702 14.3034ZM2.0303 12.8466L1.1393 13.3006L2.0303 12.8466ZM8.75451 6.50174L11.4986 9.24582L12.9128 7.8316L10.1687 5.08752L8.75451 6.50174ZM13.5021 9.24581L18.2074 4.54044L16.7932 3.12623L12.0878 7.8316L13.5021 9.24581ZM5.70743 10.3738L9.57947 6.50174L8.16526 5.08752L4.29322 8.95956L5.70743 10.3738ZM11.4986 9.24582C12.0518 9.79906 12.9488 9.79905 13.5021 9.24582L12.0878 7.8316C12.3157 7.6038 12.685 7.60379 12.9128 7.8316L11.4986 9.24582ZM10.1687 5.08752C9.61549 4.53428 8.7185 4.53428 8.16526 5.08752L9.57947 6.50174C9.35166 6.72954 8.98232 6.72954 8.75451 6.50174L10.1687 5.08752ZM14.167 4H17.917V2H14.167V4ZM17.3337 3.41667V7.16667H19.3337V3.41667H17.3337ZM17.917 4C17.5948 4 17.3337 3.73884 17.3337 3.41667H19.3337C19.3337 2.63427 18.6994 2 17.917 2V4ZM18.3337 13.6667H7.00033V15.6667H18.3337V13.6667ZM2.66699 9.33334V1.33334H0.666992V9.33334H2.66699ZM7.00033 13.6667C6.0504 13.6667 5.3981 13.6659 4.89243 13.6246C4.39843 13.5842 4.13307 13.5102 3.94101 13.4124L3.03303 15.1944C3.55402 15.4598 4.11189 15.5675 4.72957 15.6179C5.33557 15.6674 6.08341 15.6667 7.00033 15.6667V13.6667ZM0.666992 9.33334C0.666992 10.2503 0.666214 10.9981 0.715727 11.6041C0.766194 12.2218 0.873841 12.7796 1.1393 13.3006L2.92131 12.3926C2.82346 12.2006 2.74945 11.9352 2.70909 11.4412C2.66777 10.9356 2.66699 10.2833 2.66699 9.33334H0.666992ZM3.94101 13.4124C3.50197 13.1886 3.14501 12.8317 2.92131 12.3926L1.1393 13.3006C1.55475 14.116 2.21766 14.7789 3.03303 15.1944L3.94101 13.4124Z" fill="#189B62"/>
</svg>
