<svg width="98" height="115" viewBox="0 0 98 115" fill="none" xmlns="http://www.w3.org/2000/svg">
<mask id="mask0_1497_21695" style="mask-type:alpha" maskUnits="userSpaceOnUse" x="0" y="0" width="232" height="170">
<g clip-path="url(#clip0_1497_21695)">
<path d="M73.6493 68.471C73.779 68.7075 73.8708 68.8343 73.9451 68.98C74.9839 70.927 75.2961 73.0004 74.7915 75.1468C74.1071 78.0152 71.407 79.8231 68.3766 79.5396C67.1825 79.4368 66.0538 79.0749 65.0089 78.4718C62.1992 76.8949 59.9457 74.7167 58.4403 71.7674C56.4326 67.8166 55.506 63.6764 56.2625 59.2234C56.4671 58.0039 56.8147 56.8181 57.4133 55.7189C59.6873 51.5088 64.2223 50.6365 67.8117 53.7059C68.2647 54.0826 68.7003 54.478 69.1723 54.9095C69.2244 54.8532 69.3465 54.7401 69.4681 54.6085C70.0594 53.9881 70.6325 53.3497 71.2605 52.7837C73.6155 50.652 76.7009 51.0079 78.5898 53.5991C78.9381 54.0701 79.1983 54.5798 79.5309 55.1433C79.6703 55.0113 79.8101 54.8978 79.9318 54.7663C80.6617 53.9772 81.373 53.1516 82.1389 52.3801C82.6788 51.8529 83.2365 51.3252 83.8686 50.9432C85.1849 50.1229 86.6732 50.661 87.204 52.1589C87.4505 52.8531 87.5745 53.6419 87.519 54.3611C87.3495 56.3714 87.0729 58.3656 86.7967 60.3782C86.7514 60.7473 86.5994 61.1188 86.4111 61.4543C86.0683 62.0509 85.5232 62.3389 84.8637 62.2797C84.2219 62.2201 83.6809 61.8822 83.4894 61.2605C83.3173 60.712 83.2321 60.0695 83.3085 59.4972C83.4739 58.1129 83.746 56.7263 83.9826 55.3405C84.0307 55.1001 84.061 54.8601 84.1095 54.6382C84.0554 54.6025 84.019 54.5665 83.9653 54.5493C83.8618 54.6988 83.7761 54.8479 83.6726 54.9975C83.0672 55.7839 82.4977 56.5879 81.8381 57.3387C81.3693 57.8644 80.8112 58.3736 80.2143 58.7364C79.1255 59.3862 77.8902 59.0266 77.2255 57.9182C76.9116 57.3912 76.7561 56.7871 76.4773 56.2409C76.1799 55.6583 75.9169 55.0198 75.4971 54.5319C74.6215 53.5386 73.5546 53.5619 72.6691 54.5569C72.235 55.0451 71.9101 55.6413 71.5665 56.201C71.189 56.8352 70.8842 57.5414 70.4886 58.1575C69.6806 59.4454 68.2262 59.6429 67.1178 58.581C66.6996 58.1667 66.3509 57.6773 66.0022 57.1879C65.4527 56.4636 64.8171 55.87 63.9733 55.5203C63.309 55.2402 62.6874 55.2906 62.0736 55.6907C60.9864 56.414 60.2614 57.4239 59.8442 58.6848C59.1942 60.6872 59.2203 62.6932 59.7446 64.7067C60.3073 66.8482 61.2216 68.798 62.471 70.6115C63.5179 72.1166 64.8598 73.2838 66.4439 74.1328C66.8581 74.3631 67.2888 74.5377 67.737 74.6936C69.3505 75.2658 70.5164 74.8906 71.2529 72.7759C71.738 71.3662 71.4048 69.956 70.648 68.7023C70.574 68.5751 70.2867 68.4525 70.1457 68.5108C69.7399 68.6669 69.2994 68.8607 68.9854 69.1437C68.5667 69.521 68.1965 69.6764 67.7654 69.4833C67.352 69.2898 67.0918 68.7801 67.1694 68.2629C67.277 67.4874 67.7458 66.9617 68.3419 66.5621C69.7625 65.629 71.3212 65.3188 72.9788 65.4666C74.7076 65.6129 76.3381 66.1479 77.8692 67.0165C82.2277 69.4616 86.0148 72.6187 89.2138 76.5435C90.8955 78.6053 92.6119 80.6296 94.3632 82.6163C95.8772 84.332 97.7033 85.6728 99.6498 86.8268C100.894 87.5727 102.221 88.0776 103.648 88.2673C103.88 88.299 104.13 88.312 104.379 88.3065C105.534 88.2629 106.002 87.682 105.887 86.5063C105.863 86.2123 105.909 85.8983 105.921 85.6035C106.208 85.7445 106.513 85.8299 106.748 86.0272C108.234 87.2834 108.295 89.2518 106.92 90.6257C105.823 91.7174 104.442 92.0053 102.982 91.9452C101.343 91.8706 99.8373 91.3328 98.4144 90.5355C96.1633 89.2777 94.0843 87.7585 92.369 85.7894C90.4897 83.6398 88.6621 81.4155 86.9218 79.1156C84.2473 75.5844 81.1917 72.5217 77.4595 70.247C76.4679 69.6428 75.3732 69.2065 74.3125 68.6958C74.1318 68.5709 73.9358 68.5568 73.6493 68.471Z" fill="black"/>
<path d="M20.4149 94.9471C20.1979 94.7862 20.0529 94.6605 19.8726 94.554C18.5028 93.7371 17.1499 92.8831 15.7457 92.1222C13.0629 90.6529 10.7439 88.7339 8.75347 86.3843C8.29687 85.842 7.87502 85.2621 7.5235 84.6439C6.56148 82.9529 7.05709 81.2117 8.72617 80.2547C9.83309 79.623 11.0386 79.431 12.2631 79.2938C14.7294 79.0005 17.2151 78.7805 19.6818 78.5057C20.0366 78.4611 20.3733 78.3985 20.7633 78.3347C20.7249 78.2067 20.7051 78.1151 20.6683 78.0607C19.7709 76.8837 18.8557 75.7072 17.9409 74.549C17.8128 74.3861 17.5618 74.2996 17.3638 74.1934C17.2555 74.1222 17.1291 74.0329 17.0208 73.9616C17.1069 73.8309 17.1736 73.6269 17.2795 73.5878C17.8274 73.4285 18.3916 73.1953 18.9428 73.1833C19.9571 73.1979 20.8397 73.694 21.6365 74.3393C22.6507 75.164 23.5256 76.1205 24.2258 77.2281C24.3919 77.5006 24.5717 77.5887 24.8715 77.4717C26.4432 76.9403 28.0326 76.4085 29.6039 75.8587C29.8863 75.7605 30.1494 75.5891 30.4307 75.4357C30.7645 75.2443 30.9371 75.0012 30.6789 74.5834C30.4575 74.2201 30.5775 74.015 30.9841 73.8956C32.5226 73.4754 33.776 74.663 33.3661 76.2551C33.2028 76.9214 32.8075 77.5559 32.3928 78.1173C31.736 78.9968 30.8061 79.5878 29.8196 80.0328C28.8332 80.4778 27.8095 80.8499 26.7863 81.2405C26.6452 81.2988 26.4864 81.3575 26.292 81.417C26.6128 82.2568 26.915 83.0602 27.1998 83.8823C27.2948 84.1564 27.4071 84.4116 27.4842 84.6861C27.6777 85.3998 27.4615 86.0857 26.9543 86.4833C26.3767 86.9194 25.7197 86.9706 25.1414 86.5598C24.6896 86.2383 24.2706 85.7873 23.9934 85.3147C23.4944 84.4604 23.1183 83.5298 22.707 82.6183C22.5761 82.3266 22.4145 82.2565 22.1126 82.2815C19.7865 82.4797 17.4418 82.6414 15.1157 82.8395C13.7838 82.9423 12.4522 83.0634 11.1033 83.2034C10.9259 83.2257 10.767 83.2844 10.5193 83.345C10.7391 83.6348 10.904 83.8521 11.0862 84.0506C12.7627 85.8732 14.6461 87.3968 16.8234 88.5273C18.3169 89.3047 19.7757 90.1196 21.2352 90.9713C21.938 91.3793 22.5893 91.8805 23.206 92.4193C23.5866 92.7423 23.9159 93.1586 24.1923 93.5943C25.1147 95.1021 24.6898 96.8234 23.2155 97.7393C22.1975 98.369 21.0462 98.5967 19.8743 98.6959C17.5304 98.8945 15.1671 99.0198 12.8224 99.1815C12.6624 99.185 12.5024 99.1885 12.3068 99.1928C12.4534 100.202 12.6166 101.156 12.7086 102.111C13.0033 105.013 12.9594 107.886 12.2746 110.736C11.7842 112.716 10.9156 114.484 9.5067 115.951C8.49793 117.004 7.32189 117.729 5.90344 117.944C5.07015 118.073 4.28416 117.924 3.66512 117.275C3.11922 116.716 2.96249 116.057 3.17715 115.298C3.34289 114.742 3.48392 114.683 4.0048 114.911C4.18422 114.981 4.4873 115.011 4.64531 114.916C5.0838 114.63 5.50411 114.326 5.85169 113.951C7.76133 111.792 8.61102 109.159 8.90428 106.299C9.13768 103.956 9.03325 101.621 8.89325 99.2858C8.83515 98.2562 8.79445 97.2078 8.7897 96.177C8.7934 95.5326 8.92196 94.9039 9.40977 94.433C9.8802 93.9809 10.2722 94.0092 10.6047 94.5726C10.9195 95.1363 11.1639 95.7385 11.4613 96.3211C11.5356 96.4667 11.753 96.6461 11.8952 96.6429C14.7002 96.3791 17.4636 95.8401 20.187 95.0994C20.2395 95.0614 20.2743 95.0238 20.4149 94.9471Z" fill="black"/>
<path d="M57.6263 99.6379C59.6736 102.962 60.4641 106.571 60.6901 110.395C61.3981 110.233 61.9998 110.091 62.6197 109.967C63.877 109.7 65.1516 109.414 66.4274 109.184C66.9236 109.099 67.4566 109.069 67.9731 109.095C68.6322 109.136 69.105 109.604 69.1538 110.21C69.2022 110.798 68.8575 111.303 68.2214 111.501C67.656 111.679 67.0539 111.802 66.4881 111.962C64.6849 112.48 62.9391 113.181 61.2692 114.101C60.9528 114.274 60.6363 114.446 60.3013 114.583C58.9968 115.127 57.7057 114.658 57.1081 113.364C56.7902 112.653 56.6124 111.847 56.4707 111.058C56.3091 110.178 56.2183 109.278 56.1274 108.378C55.8811 106.064 55.2469 103.906 54.1705 101.867C53.7245 100.993 53.2784 100.12 52.8675 99.2265C51.9136 97.0935 52.9932 95.2106 55.2708 95.2345C56.7296 95.2394 58.1941 95.5019 59.6569 95.6908C64.9544 96.3297 70.1744 95.8658 75.2813 94.2999C77.7905 93.5271 80.1126 92.3349 82.2675 90.8151C82.8107 90.4351 83.3345 89.9818 83.7863 89.4933C85.2287 87.9338 85.0669 85.4153 83.4882 83.9956C83.4155 83.9235 83.3431 83.8699 83.2704 83.7978C83.0336 83.5453 83.0817 83.3049 83.4196 83.2975C83.9352 83.2863 84.4686 83.2746 84.9519 83.4113C86.7611 83.9792 87.8836 85.6851 87.9504 87.9295C88.0129 89.9715 87.3039 91.7175 85.9665 93.201C84.8377 94.4591 83.4701 95.3726 82.0286 96.1589C79.0226 97.8078 75.767 98.6153 72.4347 99.1668C67.702 99.9514 62.9561 100.129 58.1779 99.6442C58.0171 99.6109 57.893 99.6321 57.6263 99.6379Z" fill="black"/>
<path d="M90.6598 20.641C89.0529 17.9333 87.8683 15.0137 85.6843 12.7604C84.7379 11.787 85.1171 10.4165 86.3889 10.0021C87.3071 9.68745 88.2515 9.75884 89.1644 10.015C89.9693 10.2183 90.7573 10.4588 91.5284 10.7365C95.9031 12.2976 100.421 13.0641 105.018 13.4054C106.728 13.5336 108.44 13.6987 110.149 13.7534C111.591 13.8139 113.048 13.7452 114.507 13.7317C115.236 13.7158 115.963 13.6262 116.676 13.6843C117.567 13.7385 118.222 14.4053 118.329 15.2497C118.454 16.0754 117.991 16.8955 117.144 17.2086C116.597 17.4046 116.03 17.509 115.445 17.6139C111.458 18.2902 107.534 17.8237 103.587 17.1368C99.1231 16.3692 94.7422 15.3421 90.4741 13.7786C90.2947 13.7089 90.0979 13.658 89.9189 13.6067C89.9011 13.607 89.866 13.6262 89.8126 13.6274C89.8316 13.6822 89.851 13.7554 89.8696 13.7918C91.2482 15.8235 92.3282 18.0273 93.8996 19.9259C95.069 21.3362 94.4113 22.989 92.6376 23.2303C88.3277 23.8215 83.9948 24.174 79.6316 23.9565C74.2355 23.6879 68.8467 23.7505 63.4465 24.1079C61.9897 24.1949 60.5478 24.1528 59.0894 24.1663C58.876 24.171 58.6436 24.1208 58.4286 24.0519C57.9987 23.914 57.7603 23.5879 57.7676 23.1091C57.7745 22.6119 58.0712 22.3477 58.4955 22.228C58.7432 22.1673 59.0099 22.1615 59.2585 22.1376C66.754 21.6056 74.2753 21.4411 81.7825 21.4426C84.5576 21.4372 87.3472 21.2841 90.0746 20.7275C90.2706 20.7416 90.4298 20.7013 90.6598 20.641Z" fill="black"/>
<path d="M118.326 49.2693C117.566 49.4884 116.841 49.7252 116.116 49.9067C113.214 50.6329 110.263 50.7158 107.309 50.6699C105.067 50.6453 102.826 50.6391 100.566 50.6333C100.335 50.6384 100.104 50.6434 99.8549 50.6488C99.8032 50.7236 99.7692 50.798 99.7175 50.8728C99.8613 50.9433 100.023 50.995 100.132 51.103C101.928 52.7021 103.913 53.9842 106.171 54.7448C107.426 55.1776 108.697 55.5732 109.969 55.9688C110.327 56.0714 110.701 56.0816 111.075 56.1287C111.967 56.238 112.512 56.7416 112.582 57.4948C112.633 58.2116 112.152 58.9769 111.336 59.1052C110.467 59.2346 109.56 59.2545 108.704 59.1259C104.92 58.5644 101.749 56.7192 98.9869 54.0735C98.2422 53.3718 97.5501 52.6322 96.8401 51.8929C96.5855 51.6408 96.3653 51.3327 96.1985 51.0233C95.6421 49.9862 96.0261 48.8365 97.1023 48.4263C97.6139 48.2311 98.1627 48.1086 98.7135 48.0782C100.526 47.9833 102.321 47.9072 104.135 47.886C107.39 47.8516 110.647 47.9461 113.833 47.2137C115.179 46.9081 116.521 46.4738 117.847 46.095C118.289 45.9749 118.748 45.8176 119.21 45.7891C120.276 45.7106 121.108 46.3367 121.328 47.4364C121.428 47.9681 121.459 48.5381 121.435 49.0725C121.217 52.9615 121.196 56.8646 121.459 60.7431C121.487 61.2396 121.499 61.7548 121.474 62.2523C121.389 64.0767 120.313 65.3152 118.555 65.4641C117.312 65.5649 116.031 65.5377 114.783 65.4177C110.327 65.0365 105.899 65.0781 101.505 65.9289C101.346 65.9508 101.186 65.9727 101.026 65.9762C100.492 65.9695 100.111 65.6281 100.012 65.1516C99.9126 64.6751 100.151 64.1729 100.644 63.978C101.103 63.8023 101.581 63.6998 102.06 63.6157C106.915 62.7548 111.814 62.2243 116.755 62.0426C118.302 61.9903 118.038 62.1434 118.006 60.6714C117.909 57.047 118.096 53.4163 118.391 49.8017C118.352 49.6737 118.331 49.4901 118.326 49.2693Z" fill="black"/>
<path d="M117.73 74.9259C117.379 74.3445 117.031 73.855 116.787 73.3081C116.468 72.5419 116.202 71.7561 116.024 70.95C115.866 70.1987 116.208 69.5654 116.735 69.2961C117.281 69.0265 117.906 69.16 118.435 69.7376C118.781 70.1166 119.04 70.5527 119.351 70.9693C120.084 71.9106 120.815 72.8334 121.547 73.7747C121.858 74.1545 122.222 74.5147 122.462 74.9328C122.85 75.5871 122.778 76.3618 122.327 76.8871C121.893 77.3937 121.187 77.6116 120.504 77.2952C120.09 77.1017 119.808 77.1999 119.439 77.4105C118.349 78.0234 117.144 78.2155 115.937 78.3339C111.908 78.7718 108.013 77.9733 104.213 76.6941C101.471 75.7784 98.9502 74.3792 96.7375 72.4395C93.7085 69.7812 92.0314 66.3018 90.9504 62.4227C90.1 59.3302 90.0854 56.2195 90.5504 53.0798C90.5654 52.9506 90.5981 52.821 90.6309 52.6914C90.9931 51.3581 92.2839 50.9985 93.2302 51.9719C94.0674 52.8372 94.8873 53.7213 95.6194 54.6626C96.992 56.4182 98.572 57.8932 100.516 58.9368C100.552 58.9544 100.57 58.9724 100.606 58.9901C101.328 59.4529 101.57 59.9631 101.352 60.5385C101.116 61.1328 100.498 61.3856 99.6923 61.1271C97.9732 60.6124 96.5278 59.5947 95.2724 58.3151C94.4537 57.4862 93.7046 56.5821 92.9021 55.6792C92.8689 55.7904 92.8176 55.8836 92.8022 55.9944C92.4969 58.3022 92.759 60.5239 93.5537 62.6972C95.2957 67.519 98.5336 70.7802 103.129 72.6495C106.449 73.9944 109.896 74.6185 113.425 74.9096C114.672 75.0111 115.934 74.9651 117.197 74.9743C117.358 75.0076 117.518 74.9673 117.73 74.9259Z" fill="black"/>
<path d="M95.0999 103.292C95.8854 103.422 96.8472 103.474 97.7605 103.749C99.9455 104.419 100.896 106.405 100.108 108.613C99.8399 109.355 99.4285 110.064 98.9976 110.699C98.1355 111.951 97.0552 112.987 95.8469 113.861C91.5565 116.973 86.8718 119.138 81.6979 120.079C80.3513 120.33 79.0012 120.414 77.6426 120.113C77.3209 120.046 76.9807 119.943 76.6752 119.802C74.9335 119.067 74.1687 117.446 74.7868 115.61C75.02 114.887 75.3781 114.179 75.828 113.599C76.45 112.757 77.1435 111.932 77.9292 111.252C82.0842 107.645 86.7596 105.057 92.0863 103.781C92.9888 103.559 93.9655 103.482 95.0999 103.292ZM94.8688 106.555C94.8692 106.574 94.8696 106.592 94.8704 106.629C94.6926 106.633 94.5144 106.618 94.337 106.64C93.9644 106.685 93.5914 106.712 93.237 106.775C88.8955 107.551 84.9298 109.239 81.3216 111.822C80.3234 112.543 79.4173 113.41 78.5472 114.294C78.0775 114.783 77.6996 115.399 77.3747 115.995C76.9992 116.721 77.1685 117.141 77.9536 117.252C78.9348 117.378 79.9499 117.43 80.9437 117.316C83.1437 117.047 85.2084 116.284 87.2339 115.356C90.1751 114.003 92.8764 112.25 95.2096 109.935C95.8364 109.314 96.4071 108.565 96.8888 107.818C97.3189 107.146 97.1706 106.873 96.4202 106.724C95.9025 106.643 95.3861 106.618 94.8688 106.555Z" fill="black"/>
<path d="M40.0793 28.5585C39.9469 31.4516 39.2588 34.1543 37.9258 36.6502C36.9008 38.5872 35.367 40.0382 33.6143 41.2363C31.1074 42.9295 28.3541 43.9285 25.3725 44.2515C23.8106 44.4145 22.2588 44.2275 20.7879 43.6706C19.2451 43.0784 18.5873 42.2828 18.5507 40.6084C18.4976 38.1796 19.1621 36.0296 20.6329 34.1382C22.3465 31.9653 24.3535 30.191 26.9666 29.287C28.6437 28.6981 30.3208 28.1092 31.9971 27.4834C33.3207 26.9943 34.6256 26.4687 35.9115 25.8883C36.5105 25.6175 37.071 25.2186 37.596 24.8206C37.8934 24.5932 38.0716 24.6077 38.3598 24.7671C39.9078 25.5984 39.976 27.088 40.0793 28.5585ZM37.0065 27.963C36.9705 27.9453 36.9345 27.9277 36.8808 27.9105C35.377 29.1031 33.5734 29.6028 31.8074 30.1937C30.3772 30.6852 28.9486 31.2503 27.5188 31.7602C25.3122 32.5448 23.6201 34.0729 22.1841 35.9267C21.0767 37.35 20.7039 39.015 20.7607 40.7994C20.7636 40.9282 20.964 41.1447 21.0888 41.1604C21.8364 41.1809 22.6212 41.2742 23.3478 41.1478C25.9002 40.7238 28.1868 39.5325 30.4176 38.2319C33.7198 36.3004 35.7184 33.3297 36.6681 29.5719C36.7987 29.0352 36.8937 28.4993 37.0065 27.963Z" fill="black"/>
<path d="M21.4565 53.0995C19.4351 53.4014 17.4315 53.7029 15.3572 54.0244C15.4133 54.1521 15.4703 54.3165 15.545 54.4805C15.9761 55.4836 16.389 56.4686 16.8023 57.4721C17.0278 58.0194 16.9861 58.5542 16.605 59.0228C16.2065 59.5101 15.6932 59.6318 15.121 59.497C14.5129 59.3446 14.0773 58.9492 13.7807 58.4034C13.392 57.7123 13.0736 56.983 12.7553 56.2536C12.3625 55.3785 12.0046 54.4659 11.5945 53.6097C11.3343 53.0999 11.0373 52.5357 10.3447 52.5877C9.59909 52.6592 9.03935 53.0949 8.77055 53.8187C8.29923 55.044 8.32699 56.3136 8.497 57.5801C8.83823 60.1683 10.1971 62.1083 12.2733 63.4988C13.1396 64.0689 14.1095 64.4895 15.0441 64.9293C15.4935 65.1404 15.8369 65.3906 15.9016 65.9046C15.9666 66.4371 15.7637 66.9201 15.3058 67.1326C14.8301 67.3455 14.2825 67.5232 13.7839 67.4973C12.0029 67.4074 10.4395 66.6868 9.1303 65.39C6.7305 63.0309 5.70635 60.1263 5.95278 56.7521C6.03492 55.6273 6.22336 54.4819 6.55604 53.4253C7.10339 51.6092 8.37767 50.4953 10.2031 50.1792C11.7981 49.905 12.989 50.6706 13.9761 51.8824C14.2872 52.2806 14.5927 52.4212 15.0716 52.3555C16.6145 52.1376 18.1764 51.9746 19.7181 51.7016C20.3207 51.5964 20.9006 51.2707 21.4632 50.9639C22.5006 50.4074 23.3965 50.7007 23.7063 51.8537C23.9188 52.6222 24.0254 53.4299 24.0783 54.2203C24.339 58.0068 24.5819 61.7937 24.807 65.581C24.8332 65.9671 24.8239 66.3538 24.7608 66.7234C24.6517 67.4253 24.2168 67.8767 23.6486 67.9259C23.0453 67.9943 22.4516 67.6943 22.2585 66.999C21.9867 65.9557 21.7318 64.8751 21.6729 63.8087C21.5612 61.1418 21.5558 58.4543 21.5153 55.7859C21.4956 54.8843 21.4758 53.9827 21.4565 53.0995Z" fill="black"/>
<path d="M42.916 41.1433C42.9532 40.4062 42.9549 39.6698 43.0459 38.9498C43.166 37.9347 43.9186 37.366 44.8626 37.419C46.0915 37.4842 47.303 37.5681 48.5299 37.5413C52.8854 37.4093 57.2579 37.24 61.6131 37.0896C62.2354 37.076 62.8755 37.062 63.499 37.1035C64.4079 37.1757 65.0071 37.7333 65.1343 38.6694C65.3883 40.5231 65.6246 42.3772 65.8079 44.2509C65.9475 45.7574 64.9889 46.662 63.4565 46.5482C61.7104 46.4207 59.9812 46.256 58.2362 46.1837C55.3521 46.0811 52.4518 46.0525 49.5684 45.9867C48.3759 45.9575 47.1838 45.9468 45.9916 45.936C45.8672 45.9387 45.7249 45.9419 45.619 45.981C44.5061 46.3367 43.7145 45.9306 43.4576 44.758C43.2002 43.5671 43.0496 42.3738 42.8453 41.1633C42.8453 41.1633 42.8804 41.1441 42.916 41.1433ZM46.5447 43.5676C46.6696 43.5833 46.7407 43.5817 46.8296 43.5798C50.2262 43.5239 53.6409 43.4861 57.0371 43.4118C58.584 43.378 60.1286 43.2338 61.6747 43.1631C62.0655 43.1362 62.2231 43.0223 62.1783 42.5999C62.1121 42.0122 62.0996 41.4418 62.0867 40.853C62.0791 40.5034 61.9522 40.3957 61.6321 40.4027C57.2548 40.3512 52.877 40.2812 48.5175 40.2293C47.8236 40.226 47.1483 40.2592 46.4727 40.274C46.498 41.4332 46.5209 42.482 46.5447 43.5676Z" fill="black"/>
<path d="M51.3307 102.979C51.438 108.702 48.3106 112.93 43.4058 113.976C40.785 114.531 38.3883 113.939 36.2531 112.292C33.901 110.484 32.372 108.088 31.7205 105.138C31.1089 102.39 31.7832 99.8717 33.4795 97.7175C34.2757 96.7061 35.2525 95.8195 36.1938 94.9337C36.5947 94.5567 37.1233 94.3243 37.6167 94.111C38.0924 93.8981 38.4529 94.1111 38.4645 94.6447C38.4742 95.0863 38.3961 95.5851 38.2094 95.9941C37.9717 96.5148 37.6084 96.983 37.2624 97.4323C36.6917 98.1812 36.0665 98.876 35.5322 99.6608C33.8759 102.017 33.8535 104.245 35.4709 106.621C36.6293 108.344 38.0998 109.693 40.172 110.089C44.0126 110.815 47.5069 107.904 47.755 103.793C47.8453 102.227 47.6167 100.722 46.9278 99.3196C46.5557 98.573 46.6151 98.0378 47.0149 97.6057C47.4323 97.1731 48.1242 97.0844 48.7716 97.4016C49.7244 97.8594 50.2937 98.6753 50.6707 99.6428C51.1409 100.811 51.2924 102.041 51.3307 102.979Z" fill="black"/>
<path d="M30.6591 59.0468C30.8635 60.2573 31.0678 61.4678 31.2718 62.6599C31.3942 63.3752 31.5525 64.1081 31.6927 64.823C31.7129 64.933 31.7334 65.0614 31.7359 65.1718C31.8699 66.4207 31.2499 67.3546 30.2222 67.5428C29.2119 67.7122 28.272 67.0332 28.0681 65.8411C27.8847 64.7774 27.8606 63.6734 27.7306 62.6085C27.5735 61.1208 27.416 59.6147 27.2234 58.1278C27.0526 56.8245 27.709 55.9266 28.9722 55.9358C30.6267 55.9364 32.2641 55.9742 33.9202 56.0485C36.8932 56.1491 39.8223 55.8642 42.7695 55.5972C43.391 55.5468 44.0295 55.4592 44.6526 55.4824C45.7926 55.5495 46.4702 56.4368 46.3178 57.5999C46.0771 59.6117 45.8361 61.6051 45.5777 63.6173C45.517 64.0973 45.403 64.5784 45.2167 65.0059C44.8622 65.8788 44.1982 66.4272 43.2574 66.5214C42.6536 66.5714 42.0317 66.6035 41.4272 66.6167C39.2219 66.6465 36.9989 66.6767 34.7932 66.6881C34.4198 66.6963 34.0456 66.6676 33.6876 66.565C33.079 66.3942 32.7113 65.85 32.6976 65.2244C32.6844 64.6172 33.0457 64.057 33.664 63.8594C34.0172 63.7412 34.3906 63.7331 34.7636 63.7065C37.1794 63.5432 39.5952 63.38 42.0106 63.1983C42.1529 63.1952 42.3982 63.0241 42.4131 62.8949C42.6513 61.5827 42.8539 60.2712 43.0577 59.015C38.9483 59.0128 34.8392 59.029 30.6591 59.0468Z" fill="black"/>
<path d="M83.2844 32.3631C80.0576 32.0471 76.8668 31.7486 73.6581 31.4506C73.6581 31.4506 73.6412 31.4878 73.642 31.5246C74.4589 33.0899 75.1357 34.7503 76.2864 36.1242C76.6889 36.6309 77.0396 37.2123 77.2667 37.8332C77.5495 38.5634 77.477 39.3197 76.9036 39.9398C76.3474 40.541 75.6035 40.6861 74.8862 40.4257C74.2942 40.1993 73.7175 39.8622 73.2278 39.4311C72.2297 38.5324 71.5461 37.3692 70.915 36.168C70.1356 34.694 69.6391 33.1401 69.301 31.5091C69.2222 31.161 69.196 30.775 69.2057 30.4066C69.2463 29.0067 70.2025 27.9917 71.5369 27.9993C72.3552 27.9999 73.1768 28.1476 73.9975 28.2585C77.6195 28.75 81.2335 28.8734 84.875 28.6281C85.5676 28.5762 86.2607 28.5426 86.9561 28.6194C87.8294 28.6924 88.5329 29.1372 88.8202 30.0698C89.1066 30.9656 88.8026 31.7086 88.1762 32.3482C88.1414 32.3857 88.1067 32.4233 88.0715 32.4425C86.1332 34.1049 84.2131 35.7852 82.2748 37.4476C82.0825 37.5991 81.8901 37.7505 81.6614 37.866C81.1687 38.1161 80.6693 38.0534 80.306 37.7115C79.9601 37.3509 79.8587 36.7825 80.1324 36.2795C80.286 35.9816 80.4937 35.7193 80.7018 35.4754C81.4467 34.5571 82.2275 33.6564 82.9724 32.7381C83.1114 32.5878 83.1975 32.457 83.2844 32.3631Z" fill="black"/>
<path d="M6.25882 35.7594C6.17385 32.687 6.78555 29.7466 7.70074 26.8548C8.51649 24.2965 9.36822 21.7559 10.1306 19.1988C10.4787 18.0314 10.6299 16.8132 10.8171 15.6125C10.8794 15.2061 10.7813 14.7849 10.7364 14.3625C10.6912 13.9216 10.4221 13.8171 10.0337 13.9544C8.97492 14.3457 8.1541 15.0448 7.66139 16.1049C7.54255 16.3652 7.56716 16.6776 7.55582 16.9724C7.54206 17.1568 7.61721 17.3393 7.63901 17.5229C7.66766 18.0193 7.55286 18.4636 7.09578 18.7129C6.70943 18.9423 6.13802 18.8443 5.75577 18.4477C5.10077 17.7809 4.90444 16.9384 5.02657 16.0152C5.0569 15.7753 5.12239 15.5161 5.22424 15.293C6.17331 13.1368 7.70626 11.649 9.89662 10.9384C11.6808 10.3655 13.2823 11.1957 14.0147 12.9653C14.5028 14.1328 14.6013 15.3825 14.3433 16.6031C14.0704 17.9529 13.7264 19.3043 13.2563 20.5848C12.4668 22.719 11.5517 24.8008 10.7085 26.9179C9.59535 29.7036 8.96425 32.5707 9.13732 35.6044C9.1716 36.3584 9.29439 37.0921 9.39979 37.8445C9.48218 38.3582 9.63408 38.7967 10.0866 39.155C10.7748 39.7106 10.8652 40.5922 10.4352 41.2644C10.0048 41.9181 9.1553 42.1207 8.40005 41.7507C7.69895 41.4162 7.29367 40.7808 6.99389 40.0878C6.5434 39.0115 6.35843 37.8742 6.29752 36.7158C6.2733 36.4218 6.26606 36.0906 6.25882 35.7594Z" fill="black"/>
<path d="M44.512 23.0125C44.3995 20.3088 44.3048 17.6048 44.2101 14.9008C44.1984 14.3672 44.2223 13.8328 44.2996 13.2973C44.4079 12.5585 44.8602 12.0884 45.588 12.0173C47.1507 11.8911 48.7134 11.7649 50.2773 11.6938C51.2371 11.6544 51.7814 12.1396 51.8391 13.1508C52.063 16.8829 52.6066 20.5896 52.5286 24.3467C52.4743 26.7411 52.6336 29.1491 52.7041 31.5591C52.7098 31.8167 52.7514 32.092 52.8459 32.3476C53.1497 33.2246 52.8999 34.0032 52.0726 34.4079C51.5622 34.6584 50.9787 34.8184 50.4109 34.8861C49.1508 35.0241 47.8714 35.0889 46.5916 35.1353C45.863 35.1696 45.3728 34.7201 45.2493 33.9496C45.1249 33.1424 45.0182 32.3347 44.9824 31.5071C44.8493 28.675 44.734 25.8426 44.6183 22.9917C44.5831 23.0109 44.5475 23.0117 44.512 23.0125ZM46.6744 23.4622C46.7099 23.4615 46.7455 23.4607 46.781 23.4599C46.9339 26.3836 47.1046 29.3068 47.2393 32.2125C47.2647 32.5617 47.3916 32.6694 47.7116 32.6624C48.7078 32.659 49.5884 32.2532 50.4871 31.8653C50.8573 31.71 50.9418 31.5056 50.9334 31.1192C50.7991 28.232 50.7359 25.3432 50.5305 22.4575C50.3489 19.8474 50.0073 17.2408 49.7545 14.6323C49.7097 14.2099 49.5634 14.029 49.1197 14.0755C48.4101 14.1646 47.6993 14.1986 46.988 14.2141C46.5791 14.2231 46.4756 14.3726 46.4845 14.7774C46.5654 17.6658 46.6108 20.555 46.6744 23.4622Z" fill="black"/>
<path d="M47.2167 83.2422C47.2963 82.817 47.3222 82.3747 47.4556 81.9667C48.0211 80.1687 48.9108 78.5477 50.1067 77.1041C50.3665 76.7854 50.6434 76.4296 50.9946 76.2194C51.2581 76.0664 51.6654 75.9839 51.9346 76.0884C52.4902 76.2788 53.0648 76.5239 53.5525 76.863C54.9798 77.8627 56.4074 78.8808 57.7829 79.9553C58.2896 80.3492 58.7454 80.8547 59.1305 81.3801C59.699 82.1593 59.7894 83.0409 59.3998 83.9331C58.4002 86.2192 56.9302 88.1474 55.171 89.8611C54.5611 90.4451 53.5116 90.4497 52.8243 89.9308C52.6614 89.8055 52.4978 89.6434 52.3523 89.4993C51.0977 88.2566 49.8426 86.9954 48.5702 85.753C47.6618 84.8892 47.2913 84.2162 47.2167 83.2422ZM53.9545 87.108C54.9261 85.9822 55.7716 84.7856 56.4898 83.4628C56.6947 83.0718 56.6887 82.7958 56.3622 82.5084C54.9475 81.2691 53.5324 80.0114 52.1178 78.7721C52.0996 78.7541 52.0644 78.7733 52.1355 78.7717C51.7479 79.7559 51.3768 80.6844 50.988 81.6134C50.8021 82.0593 50.5802 82.4875 50.3583 82.9158C50.1703 83.2696 50.2127 83.5817 50.521 83.8511C51.6472 84.9126 52.7737 85.9925 53.9545 87.108Z" fill="black"/>
<path d="M45.9913 76.8259C45.9451 77.9683 45.6685 79.1525 45.0514 80.2153C44.5372 81.1102 43.952 82.0066 43.2387 82.7401C41.0118 85.0347 38.2827 86.3278 35.1201 86.5074C33.6988 86.5937 32.3734 86.1808 31.147 85.4161C30.2996 84.9007 29.6786 84.1596 29.4956 83.1143C29.3736 82.4174 29.6436 81.7488 30.1714 81.4795C30.4175 81.3453 30.6123 81.3042 30.7448 81.6695C30.8014 81.8155 31.0002 81.9584 31.1792 82.0097C32.6312 82.5118 34.1292 82.6816 35.6123 82.1705C36.8134 81.7761 38.014 81.3632 39.1593 80.8596C40.4986 80.278 41.6537 79.406 42.6248 78.2618C43.3701 77.3619 43.9356 76.3738 44.2303 75.2076C44.4102 74.4858 44.9412 74.3637 45.4334 74.9052C45.7623 75.303 45.9727 75.9795 45.9913 76.8259Z" fill="black"/>
<path d="M92.0513 40.3633C93.6516 40.3283 96.3543 40.2692 99.0393 40.2105C99.3593 40.2035 99.6794 40.1965 100 40.2263C100.659 40.2671 101.095 40.6626 101.215 41.2491C101.316 41.8359 101.01 42.4501 100.392 42.6845C99.9333 42.8603 99.4379 42.9815 98.9412 43.0476C94.2926 43.6095 89.6207 43.9141 84.9225 43.8328C83.8015 43.8205 82.697 43.7526 81.5918 43.6479C81.0927 43.6036 80.573 43.4309 80.1229 43.183C79.8707 43.0412 79.6307 42.6415 79.5883 42.3294C79.5261 41.9258 79.8583 41.6608 80.2119 41.5611C80.8133 41.4006 81.4316 41.203 82.0531 41.1526C85.0359 40.8849 87.9847 40.6915 92.0513 40.3633Z" fill="black"/>
<path d="M29.625 17.4286C30.5136 17.3908 31.3368 17.6121 32.0933 18.0374C33.5884 18.8883 35.0314 19.7956 36.32 20.964C36.6651 21.2878 37.0789 21.4997 37.4587 21.7859C37.7484 22.0189 37.8082 22.3121 37.512 22.5948C37.1984 22.8962 36.9041 23.2708 36.5343 23.4445C34.2094 24.5079 31.8166 24.9099 29.3112 24.2284C27.8079 23.8194 26.5435 22.945 25.4861 21.7716C25.3402 21.6091 25.1935 21.4098 25.0646 21.2101C24.1794 19.7752 24.666 18.4391 26.2401 18.0181C26.8414 17.8577 27.4618 17.7521 28.0817 17.6281C28.5957 17.5432 29.1106 17.4951 29.625 17.4286ZM26.9847 19.5298C28.4798 21.1907 32.4169 22.2644 34.1616 21.5083C33.926 21.3109 33.7078 21.0948 33.473 20.9342C32.8592 20.5242 32.2288 20.1699 31.6324 19.7411C30.1147 18.6697 28.579 19.2188 26.9847 19.5298Z" fill="black"/>
<path d="M66.9216 17.8832C65.6591 17.9108 64.3975 17.9752 63.1516 17.9472C62.6 17.9409 62.0112 17.8617 61.5081 17.6334C60.3229 17.1255 60.1852 15.711 61.2542 14.9697C61.7274 14.6464 62.3105 14.4679 62.8597 14.3639C65.5718 13.918 68.3287 13.8945 71.0722 14.0739C71.3748 14.0857 71.6791 14.171 71.966 14.2752C72.6659 14.5545 73.089 15.1895 73.0873 15.9259C73.0852 16.6439 72.6552 17.316 71.931 17.5528C71.5248 17.6905 71.0819 17.7738 70.6552 17.7832C69.4113 17.8472 68.1662 17.856 66.9216 17.8832Z" fill="black"/>
<path d="M21.8633 115.644C22.8655 115.917 23.5359 116.473 23.6133 117.575C23.7114 118.807 22.8449 119.856 21.6564 120.011C20.5212 120.165 19.4351 119.305 19.2311 118.113C18.784 115.564 20.2888 112.788 22.6177 111.909C24.2759 111.265 25.9805 111.117 27.7161 111.576C28.3958 111.746 29.0423 112.026 29.5349 112.586C29.9911 113.11 30.2355 113.712 30.0374 114.416C29.9218 114.823 29.6607 115.087 29.2526 115.133C28.8444 115.178 28.5199 114.983 28.3514 114.6C28.1442 114.071 27.7292 113.804 27.2281 113.667C25.7604 113.258 24.3407 113.417 23.0047 114.146C22.4239 114.435 22.0068 114.886 21.8633 115.644Z" fill="black"/>
<path d="M26.0749 14.5425C24.4193 14.4867 22.7459 14.4312 21.0902 14.3754C20.7875 14.3636 20.4845 14.3334 20.1806 14.2664C19.6265 14.1496 19.2984 13.7886 19.2702 13.3106C19.2403 12.759 19.5176 12.4216 19.9763 12.2459C20.4701 12.051 20.9825 11.8925 21.514 11.7889C24.4551 11.2459 27.4371 10.9414 30.428 11.0417C30.9978 11.066 31.5873 11.182 32.1422 11.3356C32.8045 11.5236 33.154 12.0498 33.1491 12.639C33.1438 13.2098 32.8176 13.7507 32.1811 13.9303C31.421 14.1495 30.6406 14.2586 29.8607 14.3861C29.577 14.4291 29.2743 14.4173 28.9902 14.4419C28.03 14.4629 27.0521 14.4843 26.0919 14.5053C26.0745 14.5241 26.0745 14.5241 26.0749 14.5425Z" fill="black"/>
<path d="M56.0327 31.6336C56.0182 30.9712 55.9856 30.2908 55.9889 29.628C56.0002 29.3333 56.0467 29.0193 56.1656 28.759C56.3673 28.2207 56.8761 27.8966 57.3602 28.0701C58.7228 28.5558 60.1049 28.3046 61.4902 28.2007C61.7032 28.1777 61.9161 28.1546 62.1125 28.1871C62.7543 28.2467 63.2436 28.6594 63.2759 29.3214C63.3622 30.8291 63.4489 32.3551 63.4286 33.8651C63.4168 34.9515 62.7677 35.3706 61.7336 35.2644C60.9315 35.1899 60.1313 35.2074 59.3308 35.2065C58.7791 35.2001 58.2291 35.2674 57.6957 35.2791C56.6289 35.3024 56.0474 34.7444 56.0055 33.6408C55.9732 32.9788 55.9761 32.2976 55.9616 31.6352C55.9794 31.6348 56.0149 31.634 56.0327 31.6336ZM58.4596 33.6056C59.3487 33.5861 60.167 33.5866 60.9841 33.5319C61.1086 33.5292 61.3002 33.341 61.2978 33.2306C61.3302 32.2726 61.3274 31.3338 61.3065 30.377C61.3041 30.2666 61.1401 30.0861 61.0334 30.0884C60.1617 30.0891 59.2726 30.1085 58.3658 30.1283C58.4077 31.232 58.4331 32.3911 58.4596 33.6056Z" fill="black"/>
<path d="M82.415 18.6309C81.6168 18.7404 80.322 18.916 79.0091 19.0736C78.672 19.1178 78.335 19.162 77.9967 19.1509C77.0705 19.0976 76.5028 18.3552 76.7316 17.4298C76.8465 16.9854 77.0684 16.5572 77.3274 16.2018C78.1228 15.1535 78.5598 13.9842 78.7272 12.6919C78.8202 12.0639 78.8772 11.4184 79.6022 11.2184C80.345 11.0181 80.7301 11.5435 81.0974 12.0694C82.0336 13.3927 82.9872 14.6973 83.9234 16.0207C84.0333 16.1656 84.1258 16.3292 84.2179 16.4745C84.7755 17.5668 84.1409 18.6484 82.415 18.6309ZM81.0651 16.2857C80.7705 15.8319 80.5313 15.469 80.2553 15.0516C80.0524 15.5347 79.8831 15.925 79.6975 16.3892C80.1594 16.3607 80.5502 16.3338 81.0651 16.2857Z" fill="black"/>
<path d="M95.5613 34.9113C96.6637 34.8872 97.7657 34.8447 98.8511 34.8577C99.2245 34.8496 99.6177 34.933 99.9935 35.0353C100.441 35.1543 100.715 35.4981 100.743 35.9761C100.772 36.4541 100.549 36.8272 100.126 37.0205C99.862 37.1551 99.544 37.2542 99.2603 37.2972C96.3886 37.765 93.4943 38.0123 90.5734 37.8553C90.2885 37.8431 90.0024 37.7757 89.7329 37.6528C89.3199 37.4777 89.0459 37.1523 89.0177 36.6743C88.989 36.1779 89.2303 35.8229 89.6171 35.6119C89.8806 35.4589 90.1805 35.3419 90.4823 35.3169C92.1683 35.1327 93.8547 34.967 95.5411 34.8013C95.5596 34.8377 95.5604 34.8745 95.5613 34.9113Z" fill="black"/>
<path d="M81.3885 85.6062C81.287 85.8477 81.156 86.366 80.9172 86.8314C80.4725 87.6512 79.8105 88.2915 79.0007 88.6774C78.0498 89.1216 77.0625 89.5298 76.072 89.7908C75.5591 89.9308 74.9517 89.8153 74.4321 89.6425C73.8409 89.453 73.5605 88.8332 73.6911 88.2965C73.7242 88.1853 73.8636 88.0534 73.9869 87.9955C74.2516 87.8976 74.5357 87.873 74.7822 87.7572C76.1551 87.0828 77.4907 86.3357 78.624 85.28C78.9032 85.0346 79.1651 84.808 79.1369 84.33C79.1094 83.8887 79.4796 83.7334 79.8704 83.7064C80.6705 83.6889 81.3627 84.4285 81.3885 85.6062Z" fill="black"/>
<path d="M35.2594 10.6969C35.3031 10.2541 35.2385 9.74011 35.7137 9.50881C36.189 9.27751 36.6383 9.4886 37.0016 9.83042C37.3281 10.1178 37.6028 10.48 37.842 10.8429C38.6134 11.949 39.35 13.0927 40.1213 14.1987C40.5989 14.8878 40.6328 15.6234 40.1821 16.1672C39.7137 16.7113 38.9511 16.82 38.2303 16.3939C38.122 16.3227 38.0137 16.2514 37.905 16.1617C36.7461 15.2298 35.275 12.2245 35.2594 10.6969Z" fill="black"/>
<path d="M13.6813 75.0104C11.957 75.0665 9.30452 73.3573 8.59304 71.7344C8.38699 71.2603 8.3232 70.7831 8.50793 70.282C8.67608 69.8365 8.95736 69.6831 9.38812 69.8578C9.72918 69.9976 10.071 70.1742 10.3781 70.3884C11.5698 71.1907 12.778 71.9375 14.158 72.4043C14.8571 72.6468 15.2074 73.2098 15.0978 73.8933C14.987 74.5216 14.4103 74.9945 13.6813 75.0104Z" fill="black"/>
<path d="M33.8627 90.0141C34.186 90.1543 34.5093 90.2945 34.8326 90.4347C34.6967 90.7322 34.6159 91.1022 34.4073 91.3276C33.9563 91.853 33.4325 92.3062 32.9447 92.7771C32.5091 93.1916 32.0556 93.6065 31.6381 94.0391C31.2732 94.4336 31.0339 94.8807 30.9752 95.4526C30.9178 96.0798 30.4999 96.4939 29.9677 96.5608C29.4003 96.6468 28.8422 96.3461 28.6516 95.7612C28.517 95.3039 28.5413 94.7879 28.5305 94.2911C28.5272 94.1439 28.5951 93.9952 28.6457 93.8652C29.3025 92.1756 32.0511 90.1458 33.8627 90.0141Z" fill="black"/>
<path d="M25.5198 107.943C25.5044 108.053 25.506 108.127 25.5072 108.182C25.489 108.974 25.198 109.496 24.5982 109.73C24.0163 109.964 23.3188 109.795 22.8634 109.308C22.4076 108.802 22.2129 108.033 22.5561 107.455C22.8135 107.026 23.1947 106.558 23.6174 106.364C25.2367 105.574 26.8596 105.759 28.3749 106.72C28.7176 106.934 28.975 107.315 29.1964 107.678C29.4922 108.187 29.3976 108.741 29.0306 109.044C28.6814 109.346 28.2183 109.319 27.7468 108.906C27.1124 108.368 26.41 107.978 25.5198 107.943Z" fill="black"/>
<path d="M93.6493 96.3465C93.6381 95.8313 93.5908 95.2985 93.6333 94.8005C93.6608 94.4317 93.7587 94.0246 93.9296 93.7079C94.3569 92.907 95.2637 92.8871 95.7429 93.6498C95.9453 93.9584 96.0605 94.3424 96.1396 94.7089C96.3428 95.8642 96.5104 97.0203 96.678 98.1764C96.7184 98.3964 96.7062 98.6544 96.6755 98.876C96.5829 99.5223 96.148 99.9736 95.5988 100.078C94.9963 100.183 94.4208 99.9009 94.159 99.3176C93.9906 98.9347 93.9098 98.4946 93.8472 98.0726C93.7098 97.4865 93.6974 96.9161 93.6493 96.3465Z" fill="black"/>
<path d="M75.8562 106.768C75.8363 107.487 75.833 108.15 75.7942 108.813C75.7812 109.034 75.7323 109.238 75.6656 109.442C75.4473 110.036 74.9575 110.415 74.4414 110.407C73.8898 110.401 73.4191 110.025 73.2631 109.402C73.165 108.981 73.119 108.503 73.1449 108.061C73.2096 106.955 73.3281 105.866 73.4467 104.778C73.4911 104.372 73.6064 103.946 73.7583 103.574C74.0627 102.85 74.7731 102.797 75.197 103.469C75.3994 103.778 75.5323 104.161 75.5937 104.528C75.7169 105.28 75.7694 106.052 75.8562 106.768Z" fill="black"/>
<path d="M35.8762 75.5193C37.3657 76.1127 39.6623 75.3813 40.4896 74.1666C40.8861 73.5873 41.4729 73.5745 41.8939 74.1175C42.2782 74.6062 42.2903 75.1582 42.0894 75.7332C41.8723 76.3823 41.4378 76.852 40.8575 77.1592C39.6625 77.8297 38.3847 77.9681 37.0616 77.6656C36.4716 77.5313 36.0009 77.155 35.8446 76.5141C35.8022 76.2021 35.8664 75.8877 35.8762 75.5193Z" fill="black"/>
<path d="M18.9969 105.766C18.9653 106.76 18.8048 107.556 18.2317 108.194C17.7802 108.701 17.2165 108.953 16.5356 108.728C16.0159 108.555 15.8301 108.191 15.8887 107.619C15.9939 106.733 16.0279 105.849 16.169 104.981C16.2628 104.39 16.4459 103.815 16.6472 103.258C16.8821 102.609 17.3949 102.469 17.8507 102.974C18.2338 103.408 18.4947 103.954 18.7202 104.501C18.8899 104.94 18.9185 105.436 18.9969 105.766Z" fill="black"/>
<path d="M20.8537 26.3462C21.2627 26.3372 21.6535 26.3103 22.0629 26.3197C22.7571 26.3414 23.2646 26.7721 23.3313 27.3781C23.3979 27.9841 23.0366 28.5443 22.3819 28.7059C20.8604 29.0889 19.3458 28.9748 17.8429 28.5842C17.4315 28.4828 17.1224 28.1766 17.1293 27.6794C17.1362 27.1822 17.4499 26.8808 17.8568 26.7799C18.8481 26.5557 19.841 26.4051 20.8332 26.2178C20.8521 26.2726 20.8529 26.3094 20.8537 26.3462Z" fill="black"/>
<path d="M98.5972 93.201C98.9011 93.268 99.2389 93.2606 99.4911 93.4023C100.356 93.9173 101.239 94.4134 102.017 95.0407C102.343 95.2913 102.551 95.8574 102.596 96.2982C102.686 97.1431 101.811 97.8065 101.09 97.3805C99.8108 96.6353 98.6167 95.7225 97.9275 94.3017C97.5553 93.5551 97.7623 93.256 98.5972 93.201Z" fill="black"/>
<path d="M97.6678 31.165C98.149 31.2097 98.6299 31.236 99.112 31.3175C99.6834 31.4154 100.012 31.8132 100.041 32.328C100.071 32.8612 99.7972 33.3643 99.212 33.4507C98.2195 33.6197 97.2076 33.7154 96.1937 33.7192C95.4821 33.7164 95.0618 33.2101 95.0134 32.6221C94.9827 32.0337 95.3461 31.5655 96.0351 31.3479C96.1943 31.3076 96.3536 31.2673 96.5132 31.2454C96.904 31.2185 97.2778 31.2287 97.669 31.2202C97.6686 31.2018 97.6682 31.1834 97.6678 31.165Z" fill="black"/>
<path d="M86.4443 69.4984C86.4206 68.4128 87.1663 67.5313 88.126 67.4919C89.1391 67.4513 89.9238 68.3546 89.9512 69.6058C89.9733 70.6178 89.2434 71.407 88.2833 71.4279C87.2871 71.4313 86.4681 70.584 86.4443 69.4984Z" fill="black"/>
<path d="M42.9587 106.549C42.6883 106.389 42.384 106.304 42.2014 106.087C42.0919 105.961 42.1016 105.592 42.2051 105.443C42.9827 104.395 43.2766 103.192 43.3907 101.901C43.4202 101.624 43.5346 101.161 43.6939 101.121C43.9767 101.041 44.3877 101.124 44.6233 101.321C45.2928 101.841 45.4876 102.61 45.4164 103.421C45.3342 104.546 44.7668 105.442 43.9096 106.105C43.6291 106.295 43.3111 106.394 42.9587 106.549Z" fill="black"/>
<path d="M39.7282 47.4902C39.7491 48.447 39.0366 49.2174 38.0942 49.238C37.1696 49.2582 36.4237 48.5013 36.4028 47.5445C36.3822 46.6061 37.077 45.8362 37.9834 45.7979C38.908 45.7777 39.7073 46.5334 39.7282 47.4902Z" fill="black"/>
<path d="M4.1336 20.7474C4.11992 20.1218 4.41012 19.5632 4.85062 19.3695C5.25597 19.1949 5.86375 19.3289 6.23064 19.8363C6.57974 20.3441 6.91227 20.9075 7.08517 21.4928C7.37201 22.407 6.55278 23.1797 5.6585 22.9599C4.83615 22.7754 4.15573 21.7594 4.1336 20.7474Z" fill="black"/>
<path d="M20.5629 22.7997C21.2269 23.0613 21.9256 23.2854 22.5555 23.6213C23.1318 23.9401 23.2703 24.5814 22.9967 25.0844C22.74 25.5502 22.1403 25.7843 21.5996 25.4647C20.9866 25.0916 20.4245 24.6068 19.915 24.0841C19.7332 23.904 19.6164 23.4463 19.7187 23.2416C19.8028 23.0188 20.2109 22.9731 20.5629 22.7997Z" fill="black"/>
<path d="M79.4889 6.04782C80.2535 6.0311 80.8718 6.64348 80.8883 7.39788C80.8862 8.11587 80.3115 8.6807 79.5647 8.69703C78.8352 8.69457 78.2538 8.13661 78.2377 7.40061C78.1856 6.64698 78.7421 6.06415 79.4889 6.04782Z" fill="black"/>
<path d="M50.0551 72.3007C50.039 71.5647 50.6299 70.9259 51.3233 70.9107C52.0168 70.8955 52.5453 71.4731 52.5622 72.2459C52.5613 73.0191 52.0226 73.6015 51.2928 73.5807C50.5989 73.5774 50.0708 73.0183 50.0551 72.3007Z" fill="black"/>
<path d="M86.7413 6.58872C87.3281 6.57589 87.8368 7.06181 87.8501 7.66901C87.8637 8.29461 87.3771 8.8207 86.7726 8.83392C86.1854 8.82835 85.6945 8.34204 85.6812 7.73484C85.6675 7.10924 86.1367 6.60194 86.7413 6.58872Z" fill="black"/>
</g>
</mask>
<g mask="url(#mask0_1497_21695)">
<path fill-rule="evenodd" clip-rule="evenodd" d="M122.949 160.672C101.22 165.375 81.8135 147.03 65.7422 131.72C49.6574 116.398 35.3467 98.1777 34.1014 76.0372C32.82 53.2571 41.6494 29.7939 59.1836 15.1188C75.4447 1.50924 98.3589 2.97822 119.535 4.53434C138.123 5.90022 155.893 11.0417 169.931 23.2569C184.704 36.1124 199.782 53.037 197.599 72.4621C195.511 91.0398 172.128 97.0215 160.034 111.313C146.211 127.647 143.902 156.138 122.949 160.672Z" fill="#B20462"/>
</g>
<defs>
<clipPath id="clip0_1497_21695">
<rect width="228.167" height="164.591" fill="white" transform="translate(231.71 164.552) rotate(178.747)"/>
</clipPath>
</defs>
</svg>
