<svg width="108" height="192" viewBox="0 0 108 192" fill="none" xmlns="http://www.w3.org/2000/svg">
<mask id="mask0_1497_21547" style="mask-type:alpha" maskUnits="userSpaceOnUse" x="-157" y="0" width="265" height="282">
<g clip-path="url(#clip0_1497_21547)">
<path d="M29.2143 207.622C27.0845 205.325 25.7259 202.649 25.0478 199.664C24.7037 198.179 24.7383 196.694 25.066 195.237C25.1999 194.618 25.4955 194.023 25.7304 193.386C25.5888 193.333 25.3968 193.287 25.2348 193.198C24.9058 192.994 24.5263 192.799 24.2627 192.533C23.8469 192.098 23.7993 191.548 24.07 191.022C24.3407 190.496 24.8144 190.26 25.4156 190.326C25.7238 190.365 26.0423 190.453 26.3255 190.561C28.3887 191.326 30.292 191.184 32.0544 189.912C32.2156 189.807 32.3768 189.702 32.5583 189.632C32.9314 189.478 33.3102 189.478 33.6194 189.776C33.9285 190.074 33.9805 190.454 33.8203 190.819C33.3248 191.967 32.5001 192.846 31.3149 193.242C30.4475 193.532 29.4933 193.59 28.5697 193.734C28.3275 193.762 28.0749 193.74 27.7971 193.723C27.9315 195.84 27.8386 197.932 28.5586 199.976C29.1405 201.602 29.8888 203.149 30.8287 204.611C30.8897 204.717 31.0012 204.815 31.0975 204.902C30.4596 205.802 29.837 206.712 29.2143 207.622Z" fill="black"/>
<path d="M43.6155 186.573C43.0782 186.055 42.5057 185.555 42.0137 185.003C39.2445 181.88 40.041 177.62 43.7459 175.888C46.1754 174.748 48.7244 174.445 51.3886 175.212C50.7358 176.166 50.073 177.135 49.4202 178.089C47.8754 178.196 46.4634 178.695 45.2144 179.543C44.0912 180.304 43.8434 181.514 44.5601 182.716C44.8041 183.141 45.1439 183.524 45.4232 183.931C44.8207 184.812 44.2181 185.692 43.6155 186.573Z" fill="black"/>
<path d="M13.1747 115.816C12.9069 115.783 12.7504 115.784 12.5887 115.759C10.401 115.469 8.53393 114.515 7.08327 112.855C5.15069 110.627 5.25427 107.38 7.25014 105.082C8.02933 104.171 8.981 103.465 10.0799 102.967C12.9985 101.602 16.0817 101.039 19.3558 101.534C23.7366 102.203 27.6414 103.862 30.8201 107.071C31.692 107.948 32.4533 108.921 32.9979 110.048C35.0951 114.349 33.1621 118.543 28.5762 119.673C28.0062 119.821 27.431 119.945 26.8053 120.077C26.8208 120.152 26.8416 120.318 26.8776 120.493C27.0374 121.335 27.2225 122.173 27.3166 123.013C27.6773 126.169 25.5905 128.469 22.384 128.495C21.7983 128.504 21.2324 128.418 20.5807 128.36C20.6067 128.551 20.6175 128.73 20.6535 128.906C20.8697 129.959 21.1263 131.018 21.3072 132.09C21.4211 132.836 21.5251 133.597 21.4673 134.333C21.3673 135.881 20.0629 136.777 18.5361 136.336C17.8284 136.131 17.115 135.773 16.5627 135.309C15.0276 134 13.5679 132.613 12.093 131.216C11.8193 130.964 11.6059 130.624 11.443 130.276C11.1578 129.65 11.2413 129.039 11.6736 128.537C12.0959 128.05 12.6858 127.807 13.3027 128.014C13.8487 128.194 14.4205 128.499 14.8412 128.894C15.8699 129.835 16.8384 130.864 17.827 131.864C17.9943 132.043 18.1717 132.207 18.3239 132.376C18.3844 132.353 18.4348 132.344 18.4801 132.311C18.4189 132.139 18.3476 131.983 18.2863 131.812C17.9999 130.861 17.6781 129.93 17.4522 128.957C17.298 128.269 17.2093 127.519 17.2621 126.822C17.3683 125.559 18.3802 124.765 19.6683 124.87C20.2796 124.922 20.8612 125.147 21.4675 125.239C22.1142 125.337 22.7865 125.495 23.4276 125.438C24.7451 125.305 25.3476 124.424 25.0548 123.125C24.9109 122.488 24.6156 121.876 24.3608 121.271C24.0653 120.595 23.6689 119.935 23.3986 119.255C22.8225 117.848 23.5093 116.551 25.0181 116.269C25.5985 116.17 26.1994 116.172 26.8003 116.173C27.7092 116.149 28.5619 115.978 29.3377 115.496C29.9523 115.119 30.2735 114.585 30.306 113.853C30.3514 112.548 29.953 111.37 29.1712 110.296C27.9224 108.601 26.2768 107.454 24.3347 106.707C22.2663 105.917 20.149 105.524 17.9471 105.483C16.1139 105.457 14.3835 105.868 12.7706 106.661C12.3421 106.863 11.9492 107.112 11.5615 107.385C10.1564 108.363 9.78213 109.529 11.0719 111.36C11.935 112.575 13.2753 113.126 14.7352 113.241C14.8817 113.255 15.1487 113.093 15.1835 112.945C15.2929 112.524 15.3921 112.053 15.345 111.633C15.2822 111.073 15.3716 110.681 15.7798 110.443C16.1778 110.22 16.7437 110.306 17.1188 110.67C17.6865 111.209 17.8406 111.897 17.8182 112.614C17.749 114.312 17.0931 115.76 16.0072 117.021C14.8811 118.341 13.4964 119.354 11.8985 120.093C7.37196 122.211 2.59968 123.45 -2.45393 123.763C-5.10947 123.929 -7.75471 124.145 -10.3897 124.411C-12.6662 124.642 -14.8198 125.345 -16.8917 126.255C-18.2226 126.831 -19.4063 127.616 -20.3919 128.665C-20.5529 128.835 -20.7087 129.03 -20.8493 129.236C-21.4869 130.2 -21.2871 130.919 -20.2648 131.511C-20.0117 131.662 -19.7836 131.883 -19.5506 132.064C-19.8328 132.216 -20.0795 132.413 -20.3771 132.49C-22.2639 132.966 -23.8992 131.869 -24.2147 129.95C-24.463 128.423 -23.8923 127.132 -22.9929 125.981C-21.9778 124.693 -20.6633 123.782 -19.1864 123.09C-16.8526 121.993 -14.4066 121.188 -11.8069 120.941C-8.96497 120.666 -6.09239 120.476 -3.20925 120.402C1.21894 120.285 5.48834 119.586 9.51145 117.878C10.5802 117.424 11.5726 116.788 12.6056 116.224C12.8124 116.15 12.938 115.998 13.1747 115.816Z" fill="black"/>
<path d="M-20.0872 67.8889C-19.5035 67.3616 -18.869 66.8906 -18.336 66.3071C-14.6803 62.3003 -12.4363 57.5863 -12.1342 52.1254C-11.8415 46.8737 -13.6119 42.1929 -17.6056 38.4477C-20.2714 35.9557 -23.5017 35.0386 -27.0448 35.5236C-28.6195 35.7392 -29.9448 36.4703 -31.0767 37.5706C-33.6475 40.057 -32.1366 44.237 -29.2389 45.3144C-27.1605 46.09 -24.5904 46.0167 -22.9178 45.0061C-23.0496 44.8728 -23.1662 44.7499 -23.2728 44.6123C-23.5619 44.2852 -23.8611 43.9728 -24.1048 43.6121C-24.5672 42.8863 -24.5148 42.0602 -24.0122 41.4559C-23.4794 40.8076 -22.7631 40.608 -21.9642 40.8745C-21.4282 41.0688 -20.8968 41.3677 -20.446 41.7193C-19.2355 42.6552 -18.2967 43.8579 -17.4484 45.1278C-17.0116 45.793 -16.7815 46.5323 -16.9046 47.3316C-17.003 47.9969 -17.2348 48.1401 -17.9068 48.0466C-18.8769 47.9001 -19.7118 47.4581 -20.4615 46.859C-20.8211 46.5699 -21.0482 46.6084 -21.3804 46.8984C-24.471 49.46 -29.3434 49.6391 -32.7003 47.3423C-36.8014 44.5364 -37.5957 38.9504 -34.3422 35.4011C-31.8682 32.6977 -28.6914 31.5094 -24.9641 31.6676C-19.8781 31.8934 -15.8647 34.2083 -13.1264 38.4522C-8.55425 45.5239 -7.5259 52.8863 -11.097 60.4851C-12.6195 63.7534 -14.4813 66.7679 -16.9555 69.4065C-17.222 69.6983 -17.529 69.9839 -17.8411 70.2445C-19.4568 71.5957 -20.628 71.6779 -22.4807 70.5397C-22.9431 71.0852 -23.3853 71.6663 -23.8629 72.2014C-24.6323 73.0327 -25.5134 73.7012 -26.5722 74.1405C-28.8511 75.0595 -30.7491 73.9549 -31.107 71.512C-31.3092 70.1453 -31.0668 68.8458 -30.7991 67.542C-30.7445 67.2992 -30.7 67.0711 -30.6255 66.7342C-30.8421 66.8877 -30.978 66.9886 -31.1292 67.0792C-32.0916 67.6059 -33.0438 68.1828 -34.0469 68.6386C-34.5259 68.8496 -35.1013 68.9085 -35.6366 68.9086C-36.9445 68.8972 -37.9782 67.9961 -38.1145 66.6961C-38.1723 66.0962 -38.1293 65.4792 -37.985 64.9098C-37.2136 61.9897 -36.0831 59.2291 -34.4314 56.7172C-34.0248 56.0903 -33.4411 55.5631 -32.8723 55.0903C-32.3388 54.6364 -31.6374 54.4913 -30.9142 54.7706C-30.6614 54.8574 -30.4132 55.0487 -30.2407 55.2529C-29.9313 55.6155 -29.9854 55.9879 -30.4141 56.1256C-31.7859 56.5662 -32.3926 57.6811 -32.9182 58.8731C-33.8196 60.8423 -34.3569 62.9314 -34.7021 65.0656C-34.7168 65.1849 -34.7163 65.3145 -34.7305 65.5634C-34.2817 65.3964 -33.8782 65.263 -33.5255 65.0733C-31.7161 64.1563 -30.1707 62.9078 -28.7673 61.476C-28.6165 61.3206 -28.4555 61.1506 -28.2591 61.0264C-27.8409 60.7738 -27.3865 60.7614 -26.9411 61.0231C-26.4957 61.2847 -26.282 61.6895 -26.3256 62.1769C-26.3547 62.4802 -26.4495 62.7817 -26.5595 63.0728C-27.3893 65.2634 -27.8097 67.5401 -27.8107 69.8883C-27.8043 70.2375 -27.7727 70.5824 -27.731 70.9126C-27.7155 70.9878 -27.6749 71.0588 -27.6391 71.1694C-26.6048 70.9289 -25.8143 70.3276 -25.1912 69.5472C-24.6535 68.8591 -24.2222 68.0983 -23.8009 67.3521C-23.6755 67.1363 -23.6463 66.8329 -23.6373 66.559C-23.5926 65.0595 -23.1638 63.6505 -22.5833 62.2806C-22.5383 62.1821 -22.468 62.0794 -22.4229 61.9809C-21.9612 61.2409 -21.3007 60.9601 -20.6079 61.2186C-19.9303 61.4667 -19.5591 62.1301 -19.7023 62.9588C-19.8554 63.8669 -20.0892 64.7628 -20.3383 65.6483C-20.5474 66.4103 -20.4134 67.127 -20.2136 67.8455C-20.1936 67.8161 -20.148 67.8473 -20.0872 67.8889Z" fill="black"/>
<path d="M22.6681 57.1237C22.9254 57.0411 23.112 56.9964 23.3036 56.912C24.7656 56.2745 26.2479 55.6724 27.6843 54.9744C30.4414 53.6499 33.3522 52.883 36.4215 52.6341C37.1282 52.5789 37.8453 52.5738 38.5526 52.6483C40.4874 52.8515 41.6139 54.2687 41.4193 56.1828C41.2879 57.4505 40.7417 58.5422 40.1399 59.6173C38.9414 61.7927 37.6722 63.9412 36.4585 66.1063C36.288 66.4206 36.1428 66.7307 35.9674 67.0848C36.0938 67.1282 36.1798 67.1655 36.2454 67.1673C37.7249 67.1236 39.2143 67.0651 40.6886 66.9963C40.8956 66.9871 41.1121 66.8336 41.3137 66.7344C41.4348 66.6879 41.581 66.6372 41.702 66.5907C41.7581 66.7368 41.885 66.9098 41.8552 67.0187C41.6653 67.5569 41.5263 68.1513 41.2149 68.6063C40.6121 69.4222 39.6947 69.8505 38.706 70.1222C37.4449 70.4661 36.1578 70.6199 34.8496 70.5438C34.5314 70.52 34.355 70.6148 34.2754 70.9267C33.7917 72.5137 33.298 74.1153 32.8295 75.7127C32.7448 75.9995 32.7308 76.3132 32.6917 76.6312C32.6528 77.014 32.7498 77.2959 33.2398 77.3294C33.6641 77.3611 33.7608 77.5782 33.621 77.9782C33.0663 79.4735 31.3708 79.8004 30.3156 78.5397C29.8692 78.0187 29.5837 77.3278 29.3691 76.6637C29.0368 75.6175 29.0982 74.5174 29.3112 73.4564C29.5242 72.3954 29.8181 71.3466 30.0968 70.2874C30.1316 70.1387 30.1764 69.9755 30.2413 69.7828C29.3718 69.5543 28.5428 69.3319 27.7086 69.0844C27.4306 69.0019 27.1577 68.9445 26.8897 68.8473C26.1968 68.5888 25.7654 68.0135 25.7377 67.3695C25.7197 66.6461 26.0609 66.0823 26.7316 65.8516C27.2561 65.6717 27.8668 65.5939 28.4124 65.6439C29.3975 65.736 30.373 65.9724 31.3534 66.1691C31.6667 66.2327 31.8179 66.1421 31.9734 65.8822C33.1675 63.8762 34.402 61.8763 35.5961 59.8703C36.2885 58.7278 36.9658 57.575 37.6379 56.397C37.7231 56.2399 37.768 56.0766 37.863 55.8399C37.4994 55.8498 37.2268 55.8572 36.9593 55.8896C34.5012 56.1904 32.1656 56.8336 29.9783 57.9446C28.4764 58.7057 26.9643 59.4166 25.4217 60.1067C24.6807 60.4401 23.8938 60.6776 23.0967 60.8649C22.6124 60.9861 22.0823 61.0112 21.5671 60.982C19.8042 60.8533 18.6527 59.5052 18.7672 57.7734C18.8484 56.5791 19.3341 55.5107 19.9362 54.5003C21.1403 52.4796 22.4152 50.4858 23.6497 48.4859C23.7401 48.3538 23.8305 48.2217 23.941 48.0602C23.0352 47.5914 22.165 47.1684 21.335 46.6867C18.8045 45.2356 16.4952 43.5263 14.5778 41.3093C13.2538 39.757 12.323 38.0211 11.9517 36.0216C11.6835 34.5882 11.7792 33.2099 12.4307 31.9317C12.8116 31.1794 13.3902 30.6271 14.2784 30.5022C15.0506 30.384 15.6778 30.6407 16.17 31.2576C16.5252 31.7161 16.4905 31.8647 16.0018 32.1553C15.8406 32.2605 15.6395 32.4893 15.625 32.6733C15.6018 33.1962 15.6038 33.7148 15.7068 34.2162C16.3489 37.0259 17.9936 39.2502 20.1471 41.1546C21.9155 42.7093 23.8747 43.9851 25.854 45.2316C26.7247 45.7842 27.6005 46.3619 28.4411 46.9585C28.9627 47.3369 29.3988 47.8077 29.4973 48.4785C29.5907 49.1242 29.3394 49.4264 28.6878 49.3684C28.0462 49.2958 27.4143 49.1437 26.7676 49.046C26.6059 49.0216 26.3335 49.0938 26.2532 49.2112C24.8335 51.6447 23.6617 54.2048 22.6772 56.8498C22.6774 56.9146 22.6877 56.9647 22.6681 57.1237Z" fill="black"/>
<path d="M15.6451 168.428C15.8166 168.373 15.9729 168.307 16.1443 168.252C16.3864 168.159 16.6232 168.041 16.8653 167.948C17.536 167.717 18.0463 167.786 18.3205 168.168C18.6098 168.56 18.5261 169.106 18.0433 169.616C16.8513 170.869 15.4156 171.762 13.6643 172.007C12.5085 172.165 11.3419 172.142 10.1604 172.174C9.9029 172.192 9.64004 172.12 9.37718 172.048C8.63414 171.863 8.16741 171.307 8.14971 170.648C8.13716 170.014 8.56925 169.448 9.2858 169.313C10.1689 169.163 11.0827 169.099 11.9812 169.024C12.3548 169 12.5008 168.884 12.5954 168.518C13.3068 165.75 14.8487 163.595 17.4341 162.26C20.211 160.842 23.5871 161.578 25.4092 163.967C26.4853 165.393 26.7642 167.006 26.6394 168.688C26.5195 170.33 25.894 171.798 25.1269 173.213C23.708 175.841 21.7775 178.075 19.837 180.325C19.0477 181.25 18.2585 182.176 17.4489 183.066C17.2025 183.328 17.2486 183.489 17.4365 183.768C18.1578 184.865 18.9497 185.924 19.5199 187.112C20.9248 190.012 21.0625 192.973 19.8367 195.905C19.2964 197.216 18.3611 198.257 17.213 199.088C15.7829 200.135 14.1644 200.773 12.3827 200.998C8.10767 201.543 4.80188 198.096 5.62904 193.921C6.12955 191.462 7.30794 189.316 8.8913 187.425C10.359 185.671 11.999 184.056 13.5427 182.354C16.439 179.164 19.4214 176.011 21.8162 172.413C22.4839 171.404 23.035 170.273 23.4548 169.138C23.7195 168.392 23.7616 167.516 23.6978 166.697C23.6279 165.593 22.8419 164.753 21.7251 164.528C21.1388 164.407 20.4872 164.349 19.9171 164.498C17.8336 165.033 16.5467 166.523 15.5334 168.265C15.5892 168.346 15.6096 168.382 15.6451 168.428ZM14.3376 186.798C14.2168 186.91 14.121 186.952 14.0608 187.04C13.1868 188.252 12.242 189.438 11.444 190.702C10.6862 191.907 10.1206 193.223 9.91915 194.658C9.75218 195.88 10.4473 196.722 11.7094 196.637C12.5727 196.581 13.4455 196.381 14.2321 196.079C15.77 195.493 16.5683 194.294 16.6578 192.631C16.7571 190.889 16.1805 189.352 15.1802 187.914C14.9212 187.543 14.6269 187.19 14.3376 186.798Z" fill="black"/>
<path d="M-2.82249 84.6357C-6.71692 84.3632 -10.111 82.903 -13.3507 80.8588C-13.6309 81.5291 -13.866 82.1009 -14.1264 82.677C-14.642 83.8543 -15.1524 85.0567 -15.7084 86.2278C-15.9288 86.6804 -16.2149 87.1311 -16.5365 87.536C-16.9537 88.048 -17.6097 88.1594 -18.1311 87.8458C-18.6372 87.5426 -18.8465 86.9684 -18.6368 86.3361C-18.4522 85.7728 -18.2019 85.2114 -18.002 84.6586C-17.3726 82.8912 -16.9252 81.0639 -16.7002 79.1706C-16.6561 78.8128 -16.6121 78.4551 -16.5276 78.1034C-16.2097 76.7263 -15.0765 75.95 -13.6767 76.2181C-12.9136 76.3739 -12.1549 76.6991 -11.4314 77.0432C-10.622 77.4246 -9.83753 77.8751 -9.05308 78.3256C-7.02873 79.4736 -4.90495 80.2155 -2.62124 80.5281C-1.65112 80.6747 -0.680994 80.8212 0.284232 81.0075C2.57359 81.4748 3.47504 83.4492 2.12881 85.2865C1.27492 86.4693 0.208388 87.5067 -0.797391 88.5856C-4.40286 92.519 -7.06682 97.032 -8.7692 102.095C-9.60288 104.585 -9.98677 107.167 -10.0069 109.803C-10.0144 110.466 -9.95114 111.156 -9.81732 111.808C-9.39014 113.889 -7.24891 115.224 -5.17522 114.768C-5.07429 114.751 -4.98855 114.724 -4.88762 114.707C-4.54442 114.661 -4.37708 114.84 -4.56789 115.119C-4.85913 115.545 -5.16041 115.985 -5.55308 116.299C-7.06865 117.438 -9.10908 117.357 -10.9722 116.103C-12.6683 114.965 -13.6743 113.371 -14.101 111.42C-14.4659 109.77 -14.4117 108.126 -14.211 106.496C-13.8 103.092 -12.5597 99.9758 -11.0666 96.946C-8.94717 92.6423 -6.32652 88.6816 -3.149 85.0803C-3.02823 84.969 -2.97313 84.8559 -2.82249 84.6357Z" fill="black"/>
<path d="M42.1398 157.506C45.2767 157.777 48.3398 158.515 51.4436 158.053C52.786 157.851 53.6791 158.958 53.275 160.233C52.9958 161.162 52.3876 161.888 51.6476 162.481C51.0134 163.017 50.3588 163.517 49.6839 163.982C45.8665 166.628 42.6117 169.854 39.6562 173.391C38.5554 174.707 37.4242 176.002 36.3841 177.359C35.4947 178.496 34.7016 179.72 33.8629 180.913C33.4511 181.515 33.1001 182.159 32.6377 182.704C32.0748 183.397 31.1512 183.54 30.4023 183.136C29.6585 182.756 29.2613 181.903 29.5003 181.032C29.6598 180.473 29.9052 179.951 30.1607 179.415C31.9342 175.78 34.5993 172.862 37.4567 170.055C40.6813 166.873 44.0683 163.911 47.8256 161.353C47.9867 161.248 48.1428 161.117 48.2888 161.002C48.2988 160.987 48.3037 160.947 48.3338 160.903C48.2782 160.887 48.2074 160.86 48.167 160.854C45.7126 160.791 43.2922 160.385 40.8336 160.556C39.0061 160.685 38.0459 159.187 38.8831 157.605C40.9133 153.758 43.1511 150.031 45.8698 146.611C49.2317 142.382 52.3203 137.965 55.1758 133.368C55.9537 132.133 56.8279 130.986 57.6666 129.793C57.7871 129.616 57.9633 129.457 58.1445 129.322C58.5071 129.053 58.911 129.049 59.2959 129.334C59.696 129.629 59.7379 130.024 59.588 130.439C59.493 130.676 59.3424 130.896 59.217 131.112C55.2827 137.514 51.0346 143.723 46.6599 149.824C45.0477 152.082 43.5469 154.439 42.4104 156.98C42.2848 157.131 42.2248 157.284 42.1398 157.506Z" fill="black"/>
<path d="M2.75397 163.314C3.01872 162.569 3.2482 161.842 3.52324 161.147C4.62343 158.365 6.27534 155.918 8.03357 153.544C9.35971 151.736 10.6707 149.918 11.9917 148.085C12.1222 147.894 12.2528 147.703 12.3934 147.498C12.3627 147.412 12.3221 147.341 12.2914 147.256C12.1503 147.331 12.0144 147.432 11.863 147.458C9.51689 147.986 7.31855 148.853 5.38482 150.245C4.30209 151.013 3.23969 151.816 2.1773 152.619C1.88531 152.85 1.65922 153.148 1.40275 153.425C0.794288 154.086 0.0677042 154.236 -0.585195 153.854C-1.19767 153.478 -1.53925 152.64 -1.16842 151.903C-0.767465 151.121 -0.255285 150.373 0.348283 149.751C3.00898 147.003 6.35622 145.501 10.1156 144.797C11.1197 144.601 12.1241 144.469 13.1385 144.323C13.4918 144.263 13.8705 144.263 14.2191 144.308C15.3862 144.46 16.097 145.442 15.8034 146.555C15.664 147.085 15.4438 147.602 15.1477 148.068C14.1689 149.596 13.185 151.099 12.1454 152.586C10.2772 155.252 8.3027 157.844 7.04183 160.86C6.50642 162.132 6.07734 163.476 5.61274 164.774C5.4528 165.204 5.31321 165.668 5.06729 166.061C4.51029 166.972 3.51669 167.284 2.49485 166.822C2.00414 166.594 1.52323 166.286 1.10282 165.956C-1.93145 163.513 -5.09138 161.222 -8.3968 159.176C-8.81696 158.91 -9.24227 158.619 -9.6323 158.309C-11.0658 157.178 -11.4456 155.582 -10.5425 154.066C-9.90029 152.997 -9.13164 151.971 -8.30714 151.027C-5.40152 147.628 -2.85531 144.004 -0.987484 139.937C-0.912289 139.795 -0.837094 139.652 -0.74671 139.52C-0.430237 139.09 0.0692552 138.98 0.514397 139.176C0.959537 139.373 1.22907 139.859 1.09977 140.374C0.975362 140.849 0.780153 141.298 0.569759 141.736C-1.55918 146.184 -3.98163 150.474 -6.71275 154.596C-7.57128 155.883 -7.54215 155.58 -6.32699 156.411C-3.32461 158.444 -0.48291 160.712 2.28334 163.057C2.40975 163.1 2.57169 163.189 2.75397 163.314Z" fill="black"/>
<path d="M-8.14464 170.899C-8.02263 171.112 -7.92094 171.289 -7.80407 171.477C-6.63511 173.419 -6.67316 175.332 -7.98436 177.086C-8.86862 178.248 -9.90478 179.306 -10.9157 180.36C-12.5603 182.079 -14.3216 183.676 -15.9054 185.437C-17.8513 187.596 -19.1948 190.147 -20.1436 192.902C-20.6729 194.458 -20.6921 196.018 -20.2213 197.611C-19.669 199.412 -18.5329 200.685 -16.793 201.401C-16.2215 201.641 -15.5845 201.818 -14.973 201.935C-13.0678 202.312 -11.7722 201.754 -10.8444 200.105C-10.4733 199.432 -10.1681 198.693 -9.97904 197.96C-9.69545 196.861 -9.54833 195.734 -9.32036 194.618C-9.24127 194.177 -9.38852 193.968 -9.80843 193.767C-10.9466 193.247 -12.0599 192.658 -13.1378 192.049C-14.0538 191.53 -14.3192 190.81 -13.9886 190.131C-13.6679 189.467 -12.9063 189.234 -11.9604 189.644C-10.3418 190.342 -8.75305 191.149 -7.13932 191.887C-6.6638 192.104 -6.20347 192.311 -5.71301 192.475C-5.24779 192.642 -5.05133 192.518 -4.91173 192.053C-4.67246 191.247 -5.34305 190.206 -6.18727 189.974C-7.03148 189.741 -7.8708 189.468 -8.69518 189.141C-9.43357 188.852 -9.77438 188.209 -9.59487 187.621C-9.40531 187.018 -8.83087 186.7 -8.04252 186.851C-7.5675 186.939 -7.10742 187.081 -6.64734 187.224C-6.24802 187.325 -5.85359 187.465 -5.45427 187.566C-4.7012 187.736 -4.65588 187.703 -4.69416 186.944C-4.69956 186.854 -4.73019 186.768 -4.70521 186.699C-4.60014 186.448 -4.53084 186.086 -4.33413 186.027C-4.15261 185.957 -3.77827 186.127 -3.61093 186.306C-3.34731 186.572 -3.1339 186.912 -2.96092 187.246C-2.42628 188.388 -2.85636 189.473 -4.02118 189.904C-4.26321 189.997 -4.52558 190.055 -4.82322 190.131C-4.68087 190.379 -4.51843 190.598 -4.42654 190.855C-4.24276 191.369 -4.00852 191.874 -3.96609 192.398C-3.84445 193.818 -4.73462 194.76 -6.1839 194.76C-6.7596 194.754 -7.32061 194.629 -7.93698 194.552C-7.91614 194.717 -7.92053 194.886 -7.90974 195.066C-7.81547 197.242 -7.8677 199.405 -8.87511 201.366C-10.0028 203.568 -11.8209 204.824 -14.427 204.722C-17.0987 204.618 -19.5909 203.926 -21.4723 201.884C-23.8405 199.316 -24.4128 196.274 -23.5566 193.067C-22.8099 190.281 -21.2538 187.876 -19.6014 185.558C-17.3513 182.4 -14.427 179.919 -11.5027 177.437C-10.7225 176.786 -10.0337 176.007 -9.45611 175.195C-8.60737 173.987 -8.77458 172.537 -9.77884 171.397C-9.96651 171.183 -10.2901 171.069 -10.5682 170.987C-10.9271 170.892 -11.3259 170.921 -11.6949 170.841C-12.4075 170.676 -12.8794 170.095 -12.8971 169.436C-12.9148 168.778 -12.4575 168.207 -11.7613 168.037C-11.5241 167.984 -11.2667 167.966 -11.0293 167.977C-8.52412 168.097 -6.04031 167.921 -3.58763 167.531C-3.18392 167.462 -2.7192 167.5 -2.30983 167.586C-1.5668 167.771 -1.3372 168.381 -1.85528 168.91C-2.18719 169.265 -2.64551 169.576 -3.09945 169.718C-4.54208 170.132 -6.03053 170.449 -7.4886 170.788C-7.68042 170.807 -7.88228 170.842 -8.14464 170.899Z" fill="black"/>
<path d="M-17.7523 147.883C-17.0755 147.937 -16.4745 147.939 -15.8883 148.06C-15.0796 148.247 -14.2859 148.488 -13.5271 148.813C-12.824 149.122 -12.5084 149.769 -12.5971 150.355C-12.6957 150.955 -13.1687 151.386 -13.946 151.479C-14.4558 151.54 -14.961 151.496 -15.4811 151.506C-16.6726 151.553 -17.849 151.61 -19.0406 151.657C-19.5303 151.688 -20.0349 151.774 -20.5148 151.726C-21.2726 151.66 -21.8603 151.15 -22.0245 150.477C-22.1836 149.83 -21.9489 149.128 -21.2939 148.757C-20.8958 148.534 -20.8111 148.247 -20.7673 147.825C-20.6307 146.582 -20.0845 145.49 -19.4775 144.44C-17.4864 140.911 -14.568 138.21 -11.3149 135.867C-8.97335 134.172 -6.36739 132.938 -3.5017 132.27C0.423485 131.356 4.22853 132.02 8.0111 133.401C11.02 134.512 13.5569 136.312 15.8378 138.519C15.9341 138.607 16.0204 138.709 16.1066 138.811C16.9793 139.882 16.5196 141.141 15.1772 141.343C13.9861 141.519 12.7899 141.671 11.5983 141.717C9.37173 141.81 7.25247 142.235 5.27167 143.207C5.23639 143.226 5.21116 143.23 5.17589 143.249C4.37925 143.566 3.82339 143.466 3.48307 142.953C3.1376 142.415 3.29164 141.766 3.9714 141.262C5.39119 140.164 7.06041 139.582 8.83182 139.307C9.98246 139.125 11.1537 139.043 12.3551 138.916C12.284 138.825 12.2382 138.729 12.1571 138.652C10.4592 137.059 8.5008 135.978 6.27145 135.357C1.33748 133.964 -3.19943 134.696 -7.39566 137.342C-10.4232 139.257 -12.9386 141.695 -15.2309 144.394C-16.0402 145.348 -16.738 146.401 -17.4814 147.422C-17.6022 147.534 -17.6622 147.686 -17.7523 147.883Z" fill="black"/>
<path d="M65.1715 111.783C62.8972 109.99 61.1014 107.856 59.8493 105.319C58.8721 103.357 58.5863 101.265 58.6337 99.1425C58.7179 96.1186 59.5099 93.2987 60.9844 90.6872C61.7619 89.3228 62.8179 88.1705 64.1274 87.2994C65.5075 86.3904 66.5374 86.3192 67.9197 87.2649C69.9247 88.6367 71.285 90.4294 71.9655 92.7267C72.7332 95.3854 73.0061 98.0503 72.2185 100.701C71.7201 102.407 71.2218 104.113 70.7538 105.84C70.3803 107.201 70.0473 108.568 69.7698 109.951C69.641 110.596 69.6386 111.284 69.6563 111.942C69.6679 112.316 69.5523 112.453 69.2549 112.594C67.6773 113.368 66.4269 112.556 65.1715 111.783ZM67.4457 109.632C67.481 109.613 67.5163 109.594 67.5616 109.561C67.4683 107.644 68.1129 105.887 68.6615 104.107C69.0952 102.658 69.4682 101.168 69.8867 99.7088C70.5345 97.4583 70.2783 95.1927 69.6081 92.9455C69.0964 91.2163 67.9603 89.9433 66.4769 88.95C66.3706 88.8772 66.0778 88.914 65.9923 89.0063C65.5402 89.602 65.0071 90.1855 64.6865 90.8497C63.5442 93.1713 63.1804 95.7238 62.9378 98.2946C62.5839 102.104 63.8341 105.459 66.3351 108.42C66.6953 108.839 67.0755 109.228 67.4457 109.632Z" fill="black"/>
<path d="M56.074 82.3498C57.0062 80.531 57.9284 78.7268 58.8755 76.8535C58.7391 76.8248 58.5722 76.7753 58.3954 76.7405C57.3289 76.5065 56.2878 76.2682 55.2314 76.0196C54.6552 75.884 54.2448 75.5386 54.086 74.9558C53.9221 74.348 54.1222 73.86 54.5651 73.4734C55.0432 73.0679 55.6184 72.9442 56.2348 73.0211C57.0229 73.1078 57.8012 73.2739 58.5795 73.4401C59.5195 73.6307 60.4698 73.8714 61.4047 74.0369C61.9706 74.1224 62.6021 74.2097 62.9634 73.6165C63.3396 72.9688 63.3116 72.2601 62.8799 71.6199C62.1586 70.523 61.1105 69.806 59.9821 69.2063C57.6797 67.9758 55.3113 67.9501 52.9716 68.8275C52.0035 69.1995 51.0966 69.7427 50.1946 70.2462C49.7613 70.4884 49.3578 70.6218 48.9024 70.3749C48.4318 70.1175 48.1574 69.6712 48.2514 69.1752C48.3555 68.6646 48.5301 68.116 48.8416 67.7258C49.9522 66.3307 51.4487 65.4798 53.2655 65.1712C56.5809 64.595 59.5384 65.4548 62.1373 67.6208C63.0036 68.3428 63.8248 69.1633 64.4898 70.0492C65.647 71.5521 65.81 73.2367 65.0034 74.9045C64.2971 76.3607 62.9811 76.8826 61.4211 76.9789C60.9162 76.9998 60.624 77.1662 60.3984 77.5937C59.6765 78.9747 58.8991 80.3391 58.2229 81.7512C57.9574 82.3023 57.8842 82.9633 57.8058 83.5993C57.6538 84.7667 56.8934 85.324 55.7758 84.9041C55.0274 84.6291 54.3088 84.2452 53.6356 83.8277C50.4061 81.8337 47.1867 79.825 43.9773 77.8016C43.6483 77.598 43.3394 77.3651 43.0757 77.0985C42.5688 76.6008 42.4553 75.9845 42.7463 75.494C43.0422 74.9637 43.6319 74.656 44.3095 74.9041C45.3159 75.291 46.3426 75.7133 47.2437 76.2867C49.4763 77.7496 51.6639 79.3109 53.8563 80.8325C54.6006 81.3417 55.3449 81.851 56.074 82.3498Z" fill="black"/>
<path d="M53.2899 106.757C53.8673 107.217 54.4649 107.647 54.997 108.14C55.7521 108.829 55.7759 109.772 55.1829 110.509C54.414 111.47 53.64 112.405 52.947 113.418C50.5169 117.035 48.1072 120.688 45.6923 124.315C45.3408 124.829 44.9792 125.357 44.5822 125.84C43.994 126.537 43.1917 126.699 42.3568 126.257C40.7022 125.383 39.0576 124.495 37.4279 123.553C36.1221 122.788 35.9453 121.482 36.9305 120.303C38.0514 118.958 39.1926 117.649 40.268 116.272C42.0316 113.988 43.7445 111.647 45.4778 109.342C46.1962 108.39 46.8995 107.427 47.6027 106.465C47.673 106.362 47.7533 106.244 47.7832 106.136C48.1425 105.024 48.9337 104.617 50.0364 105.091C51.1543 105.576 52.2119 106.149 53.3149 106.688C53.3149 106.688 53.31 106.728 53.2899 106.757ZM49.2055 108.294C49.12 108.386 49.0798 108.445 49.0296 108.518C47.0963 111.312 45.1377 114.109 43.2195 116.913C42.3458 118.19 41.5632 119.529 40.7199 120.827C40.5141 121.16 40.5149 121.355 40.8843 121.564C41.4005 121.853 41.8714 122.175 42.3575 122.508C42.6461 122.705 42.8075 122.665 42.9883 122.4C45.5803 118.873 48.1875 115.355 50.7695 111.842C51.1764 111.28 51.5428 110.712 51.9244 110.154C50.9675 109.499 50.1017 108.907 49.2055 108.294Z" fill="black"/>
<path d="M-1.87034 77.5725C-6.58424 74.3258 -8.19933 69.3203 -6.19216 64.7244C-5.11595 62.2714 -3.23859 60.6682 -0.656107 59.8922C2.18359 59.0337 5.02215 59.1871 7.79908 60.3759C10.3888 61.4797 12.0429 63.4949 12.8055 66.1286C13.1637 67.365 13.3152 68.6754 13.4868 69.9565C13.5596 70.5019 13.4406 71.067 13.3265 71.5923C13.2225 72.1029 12.8393 72.2718 12.3988 71.9704C12.0343 71.721 11.6744 71.367 11.4507 70.9769C11.166 70.4804 10.9971 69.9124 10.8334 69.3694C10.5573 68.4693 10.3568 67.5563 10.0302 66.6648C9.08039 63.9463 7.28262 62.6301 4.40903 62.5604C2.33333 62.4978 0.380659 62.9074 -1.14885 64.3607C-3.97638 67.0593 -3.64574 71.5954 -0.44929 74.1918C0.771521 75.1779 2.12753 75.8686 3.6687 76.1257C4.49233 76.2582 4.89266 76.6183 5.01104 77.195C5.11937 77.7863 4.78846 78.4003 4.15351 78.7417C3.22632 79.2494 2.23147 79.2368 1.22557 78.9796C0.00236893 78.6814 -1.08563 78.0879 -1.87034 77.5725Z" fill="black"/>
<path d="M45.8792 86.3649C44.7763 85.8257 43.6733 85.2866 42.5856 84.7579C41.9329 84.4407 41.245 84.1424 40.5823 83.8399C40.4811 83.7922 40.3648 83.7341 40.2736 83.6718C39.1805 83.0531 38.7826 82.0051 39.2283 81.0602C39.6792 80.1404 40.7787 79.772 41.8664 80.3008C42.8378 80.7714 43.7492 81.395 44.6904 81.9096C45.9911 82.6487 47.3069 83.3981 48.6276 84.1078C49.7864 84.7282 50.1339 85.7848 49.3905 86.8062C48.4261 88.1505 47.4415 89.4594 46.4163 90.7621C44.6025 93.1199 43.1277 95.6666 41.6277 98.2175C41.3066 98.752 41.0058 99.322 40.6239 99.815C39.9053 100.702 38.7894 100.736 37.9329 99.9348C36.4379 98.5672 34.9581 97.21 33.4732 95.8277C33.1184 95.4987 32.7938 95.1258 32.5549 94.7253C32.0519 93.9286 31.993 93.0694 32.4645 92.2499C32.7756 91.7301 33.1119 91.2059 33.4534 90.7069C34.7139 88.8971 35.9844 87.0727 37.2601 85.2734C37.471 84.9651 37.7122 84.6776 38.0042 84.4464C38.4976 84.0513 39.1541 84.0695 39.6706 84.4228C40.1718 84.7658 40.4166 85.3858 40.217 86.0035C40.1073 86.3594 39.8964 86.6676 39.7007 86.9863C38.426 89.0449 37.1513 91.1035 35.8918 93.1725C35.8115 93.29 35.8076 93.589 35.9039 93.6764C36.8317 94.6345 37.7796 95.5632 38.6819 96.4607C41.0778 93.1219 43.4584 89.7727 45.8792 86.3649Z" fill="black"/>
<path d="M36.909 144.682C39.0457 142.244 41.1472 139.824 43.2586 137.39C43.2586 137.39 43.2383 137.354 43.2079 137.334C41.4598 137.086 39.716 136.668 37.9289 136.803C37.2826 136.835 36.6057 136.782 35.9688 136.604C35.2106 136.409 34.638 135.909 34.4682 135.082C34.3035 134.28 34.6189 133.591 35.2485 133.159C35.7774 132.81 36.3873 132.538 37.023 132.391C38.3349 132.103 39.6786 132.225 41.0225 132.412C42.6747 132.637 44.2269 133.139 45.7495 133.814C46.0783 133.953 46.4073 134.157 46.701 134.379C47.8153 135.228 48.0831 136.596 47.2996 137.676C46.8224 138.341 46.2237 138.923 45.6554 139.525C43.1459 142.183 40.9401 145.048 39.0181 148.151C38.6568 148.744 38.2803 149.327 37.8127 149.848C37.2447 150.515 36.4733 150.827 35.5479 150.518C34.653 150.229 34.2262 149.549 34.0713 148.667C34.061 148.617 34.0507 148.567 34.0556 148.527C33.8337 145.983 33.5865 143.444 33.3646 140.9C33.3535 140.655 33.3425 140.41 33.3819 140.157C33.4656 139.611 33.8076 139.242 34.297 139.146C34.7916 139.075 35.3127 139.323 35.5622 139.839C35.7148 140.137 35.807 140.459 35.8839 140.77C36.1964 141.91 36.4735 143.07 36.786 144.21C36.8272 144.411 36.8833 144.557 36.909 144.682Z" fill="black"/>
<path d="M79.0216 80.0994C81.5683 81.8202 83.6018 84.0304 85.419 86.4589C87.0231 88.6123 88.5918 90.7847 90.226 92.8941C90.9721 93.857 91.8742 94.6897 92.741 95.5413C93.035 95.8287 93.4345 95.9943 93.804 96.204C94.1886 96.4241 94.4304 96.2662 94.545 95.8706C94.8438 94.782 94.7538 93.7076 94.1792 92.6896C94.0369 92.4413 93.7686 92.2793 93.5356 92.0984C93.3938 91.9798 93.2017 91.9346 93.0398 91.8453C92.6196 91.5794 92.3253 91.2272 92.389 90.7105C92.4277 90.2629 92.8402 89.8555 93.3852 89.7759C94.3088 89.632 95.1079 89.9632 95.7871 90.6003C95.9644 90.7647 96.1369 90.9689 96.2589 91.1817C97.4585 93.2092 97.7747 95.3219 97.0763 97.5162C96.5024 99.3001 94.8947 100.118 93.0297 99.6825C91.7964 99.399 90.7234 98.751 89.8815 97.8303C88.9434 96.8221 88.0455 95.7552 87.2786 94.6271C86.0038 92.7421 84.8449 90.7855 83.6155 88.8669C81.9999 86.3392 80.0371 84.1559 77.4706 82.5293C76.8378 82.1179 76.17 81.7902 75.497 81.4375C75.0315 81.2053 74.5866 81.0733 74.0317 81.2324C73.1792 81.468 72.41 81.0279 72.1142 80.2868C71.8337 79.5561 72.1638 78.7476 72.9046 78.3494C73.5848 77.9744 74.3374 78.0152 75.0753 78.1752C76.2125 78.4361 77.2447 78.9483 78.2217 79.5737C78.4748 79.7253 78.7482 79.9123 79.0216 80.0994Z" fill="black"/>
<path d="M67.0966 118.617C69.3596 120.1 71.6125 121.599 73.8655 123.097C74.3059 123.399 74.7264 123.729 75.1166 124.104C75.6539 124.622 75.7726 125.264 75.4064 125.897C74.5986 127.241 73.7907 128.584 72.9374 129.897C72.4102 130.7 71.6988 130.86 70.8433 130.317C67.6795 128.325 64.3501 126.607 61.3418 124.355C59.4275 122.916 57.3774 121.643 55.3775 120.296C55.1649 120.151 54.9169 120.024 54.6541 119.952C53.7643 119.688 53.277 119.031 53.43 118.123C53.5238 117.563 53.7337 116.995 54.0095 116.494C54.6314 115.39 55.324 114.312 56.0319 113.245C56.4285 112.632 57.0794 112.496 57.7776 112.844C58.5062 113.214 59.2248 113.597 59.9183 114.05C62.2977 115.592 64.667 117.149 67.0515 118.715C67.0564 118.676 67.0765 118.646 67.0966 118.617ZM65.4713 120.112C65.4512 120.142 65.4311 120.171 65.411 120.2C62.9457 118.621 60.4703 117.057 58.0302 115.474C57.7315 115.291 57.5701 115.331 57.3893 115.596C56.8117 116.407 56.6286 117.359 56.4202 118.316C56.3308 118.707 56.4477 118.895 56.7667 119.113C59.1916 120.686 61.5763 122.318 64.0414 123.832C66.2687 125.205 68.5863 126.446 70.8536 127.76C71.2231 127.97 71.4553 127.956 71.676 127.568C72.017 126.94 72.4035 126.342 72.8052 125.755C73.0362 125.417 72.9749 125.246 72.6407 125.018C70.2459 123.401 67.8712 121.754 65.4713 120.112Z" fill="black"/>
<path d="M16.5678 85.7267C16.8669 86.0392 17.2114 86.3179 17.4652 86.664C18.5971 88.1711 19.3964 89.8385 19.8731 91.6516C19.9806 92.0484 20.1086 92.4807 20.0748 92.8886C20.0457 93.1919 19.8754 93.5711 19.6337 93.7289C19.1552 94.0696 18.6212 94.3939 18.0615 94.5927C16.4175 95.1703 14.7583 95.7376 13.0837 96.2296C12.4683 96.412 11.7919 96.4879 11.1405 96.4948C10.1761 96.503 9.4068 96.0628 8.90869 95.2264C7.6329 93.0821 6.92201 90.764 6.55408 88.3358C6.4347 87.4999 7.04242 86.6442 7.86454 86.3878C8.06125 86.3285 8.28833 86.2899 8.49019 86.2556C10.2312 85.9599 11.9874 85.6745 13.7385 85.3641C14.9697 85.129 15.7326 85.22 16.5678 85.7267ZM9.50048 88.9509C9.84945 90.3965 10.3295 91.7808 10.9862 93.1352C11.1846 93.5296 11.4125 93.6855 11.8363 93.5875C13.6677 93.1597 15.5143 92.7422 17.3457 92.3144C17.3709 92.3101 17.3758 92.2703 17.3356 92.3291C16.7616 91.4407 16.223 90.5981 15.6946 89.7409C15.4405 89.33 15.2217 88.9002 15.0029 88.4703C14.8247 88.1114 14.5464 87.9641 14.1479 88.0577C12.629 88.3547 11.095 88.6412 9.50048 88.9509Z" fill="black"/>
<path d="M22.4967 88.4687C21.5952 87.7656 20.7938 86.851 20.2895 85.7302C19.8617 84.791 19.474 83.7931 19.2934 82.786C18.7257 79.6393 19.2647 76.6678 20.9611 73.9927C21.719 72.7872 22.8267 71.9504 24.1627 71.3992C25.0753 71.0107 26.0395 70.9377 26.9957 71.3979C27.6331 71.7048 28.0193 72.3138 27.9306 72.8996C27.8964 73.1779 27.8163 73.3601 27.4422 73.255C27.2905 73.2159 27.0586 73.2942 26.9126 73.4098C25.6586 74.2974 24.6479 75.4161 24.1993 76.9193C23.8201 78.1253 23.4562 79.3416 23.1984 80.5659C22.8908 81.9933 22.9267 83.4401 23.2909 84.896C23.5881 86.026 24.0618 87.0612 24.8379 87.9802C25.3199 88.5469 25.1097 89.0496 24.3829 89.1342C23.8679 89.1698 23.1955 88.9467 22.4967 88.4687Z" fill="black"/>
<path d="M-5.51697 31.6335C-6.7806 33.9367 -7.34727 36.2643 -6.56483 38.8037C-6.25802 39.7894 -5.66927 40.5586 -4.74811 41.1026C-4.51023 41.2438 -4.25715 41.3954 -4.03935 41.566C-3.69489 41.8447 -3.56722 42.2122 -3.69187 42.6226C-3.82657 43.0476 -4.15873 43.3375 -4.59823 43.2954C-5.02253 43.2637 -5.49266 43.136 -5.87214 42.941C-7.65836 41.9991 -8.64894 40.4809 -9.05014 38.5902C-9.61578 35.9621 -9.10009 33.5135 -7.78574 31.2665C-7.31423 30.447 -6.68079 29.7167 -6.08777 28.9803C-5.92194 28.7705 -5.64978 28.6334 -5.41289 28.5154C-4.76275 28.1844 -4.32276 28.3562 -3.9768 29.0238C-3.39683 30.1318 -2.83696 31.2691 -2.19649 32.3538C-1.24608 33.9306 0.136417 34.9412 1.98578 35.2367C2.0262 35.2428 2.08181 35.2593 2.13743 35.2758C2.80966 35.4341 3.12888 35.7171 3.15072 36.1415C3.16767 36.6056 2.84116 37.0503 2.24588 37.2033C0.460041 37.6623 -1.16274 37.1985 -2.57122 35.9978C-3.7619 34.9677 -4.58 33.6537 -5.21168 32.2303C-5.32341 32.0676 -5.40989 31.9007 -5.51697 31.6335Z" fill="black"/>
<path d="M25.299 147.147C24.3951 148.468 22.8686 150.7 21.3522 152.916C21.1714 153.18 20.9907 153.444 20.7795 153.688C20.3624 154.2 19.7872 154.323 19.2408 154.079C18.7046 153.82 18.3841 153.213 18.5533 152.574C18.6777 152.099 18.8678 151.626 19.1034 151.183C21.3549 147.078 23.829 143.103 26.6322 139.332C27.2953 138.428 27.9939 137.57 28.7228 136.733C29.0496 136.353 29.4927 136.031 29.9565 135.81C30.2186 135.687 30.6833 135.725 30.9616 135.872C31.3259 136.057 31.3477 136.481 31.2228 136.827C31.0029 137.409 30.8033 138.027 30.4822 138.561C28.9621 141.142 27.4013 143.651 25.299 147.147Z" fill="black"/>
<path d="M13.4722 179.72C12.507 180.87 11.5821 181.961 10.6371 183.081C10.4852 182.977 10.3385 182.899 10.2118 182.79C8.11464 181.097 5.80683 179.777 3.25825 178.873C2.4694 178.592 1.68519 178.206 0.971534 177.783C0.536184 177.507 0.150802 177.092 -0.123613 176.646C-0.713115 175.682 -0.338647 174.581 0.735796 174.281C1.39158 174.105 2.15884 174.027 2.81589 174.175C4.17554 174.501 5.5357 174.958 6.83559 175.502C9.09143 176.443 11.1418 177.781 13.0415 179.339C13.1681 179.447 13.2847 179.57 13.4722 179.72Z" fill="black"/>
<path d="M80.3082 109.77C79.8212 110.514 79.1618 111.054 78.3754 111.421C76.8128 112.141 75.2347 112.785 73.5343 113.152C73.0701 113.243 72.6569 113.456 72.2029 113.598C71.8448 113.698 71.5716 113.576 71.5145 113.17C71.4523 112.74 71.3192 112.283 71.3934 111.881C71.8836 109.372 72.9508 107.193 74.9643 105.553C76.1725 104.57 77.6197 104.051 79.1895 103.876C79.4066 103.852 79.654 103.849 79.8914 103.86C81.5734 103.977 82.3758 105.15 81.801 106.675C81.5811 107.257 81.3055 107.823 81.0452 108.399C80.8147 108.866 80.5538 109.313 80.3082 109.77ZM80.1386 106.4C77.9176 106.647 74.7513 109.222 74.3495 111.08C74.6471 111.004 74.9499 110.952 75.2171 110.855C75.9079 110.595 76.5632 110.289 77.2592 110.054C79.0142 109.445 79.4626 107.877 80.1386 106.4Z" fill="black"/>
<path d="M58.2105 139.819C58.9235 138.776 59.6062 137.713 60.3547 136.717C60.6812 136.273 61.0886 135.84 61.5672 135.564C62.6706 134.897 63.9004 135.609 63.8802 136.91C63.8673 137.483 63.6726 138.061 63.4372 138.568C62.2196 141.032 60.6326 143.286 58.8886 145.411C58.7027 145.65 58.456 145.848 58.2042 146.021C57.5695 146.427 56.8068 146.401 56.2093 145.97C55.627 145.55 55.3312 144.809 55.5607 144.083C55.6853 143.672 55.8757 143.264 56.1167 142.911C56.7893 141.863 57.5075 140.846 58.2105 139.819Z" fill="black"/>
<path d="M5.00259 46.2439C4.19717 46.8996 3.35471 47.1205 2.41321 46.541C1.35534 45.9034 1.00687 44.5875 1.57341 43.5313C2.10982 42.5192 3.44147 42.1373 4.52922 42.666C6.8615 43.7876 8.24099 46.6278 7.59887 49.033C7.15611 50.7557 6.28314 52.2272 4.89887 53.3705C4.36535 53.8243 3.76078 54.1865 3.01875 54.2606C2.32719 54.3262 1.69538 54.1741 1.23869 53.603C0.974821 53.2716 0.912811 52.906 1.11342 52.5476C1.31402 52.1892 1.66187 52.0393 2.07124 52.1254C2.6222 52.2653 3.08103 52.0836 3.48374 51.7558C4.67179 50.8015 5.36889 49.5545 5.55494 48.044C5.65851 47.4038 5.53498 46.8021 5.00259 46.2439Z" fill="black"/>
<path d="M84.7221 108.566C85.732 107.253 86.752 105.925 87.7619 104.612C87.9478 104.373 88.1489 104.144 88.3804 103.936C88.798 103.554 89.2826 103.497 89.6876 103.753C90.1533 104.05 90.266 104.472 90.1416 104.947C90.0123 105.462 89.8426 105.971 89.6173 106.463C88.3451 109.17 86.8554 111.771 85.0315 114.143C84.6797 114.592 84.242 115.004 83.794 115.365C83.2553 115.794 82.624 115.772 82.148 115.424C81.6871 115.088 81.4375 114.507 81.6623 113.885C81.927 113.14 82.293 112.442 82.6437 111.734C82.774 111.478 82.9599 111.239 83.1054 110.994C83.6477 110.201 84.2001 109.394 84.7424 108.601C84.7373 108.576 84.7373 108.576 84.7221 108.566Z" fill="black"/>
<path d="M53.3779 122.958C53.9248 123.332 54.4968 123.702 55.0336 124.091C55.2666 124.272 55.4947 124.492 55.637 124.741C55.957 125.218 55.924 125.82 55.5009 126.113C54.3124 126.937 53.7113 128.207 52.9888 129.394C52.8834 129.58 52.7781 129.767 52.6373 129.907C52.215 130.394 51.5944 130.551 51.0376 130.192C49.7619 129.384 48.4711 128.565 47.2556 127.669C46.3795 127.027 46.417 126.255 47.1058 125.476C47.6336 124.868 48.0856 124.207 48.5527 123.557C48.8792 123.112 49.1449 122.626 49.4462 122.186C50.0488 121.305 50.841 121.158 51.7624 121.766C52.3193 122.126 52.8713 122.525 53.4181 122.899C53.4081 122.914 53.388 122.943 53.3779 122.958ZM50.3614 123.782C49.8592 124.516 49.3821 125.18 48.9505 125.876C48.8802 125.979 48.9216 126.245 49.0127 126.307C49.7725 126.891 50.5371 127.436 51.3269 127.976C51.4181 128.039 51.6604 128.011 51.7206 127.923C52.2279 127.214 52.73 126.48 53.2422 125.731C52.3208 125.122 51.3639 124.468 50.3614 123.782Z" fill="black"/>
<path d="M48.577 151.976C48.953 151.263 49.5646 150.109 50.2014 148.95C50.3618 148.65 50.5223 148.35 50.7283 148.082C51.3112 147.36 52.2453 147.331 52.8642 148.056C53.1585 148.409 53.3773 148.838 53.5152 149.256C53.9039 150.513 54.5997 151.55 55.5525 152.438C56.0087 152.88 56.5002 153.302 56.2403 154.008C55.9704 154.728 55.319 154.735 54.6777 154.728C53.0566 154.717 51.4408 154.733 49.8198 154.722C49.638 154.727 49.4511 154.707 49.2793 154.698C48.0667 154.514 47.5573 153.368 48.577 151.976ZM51.2695 152.245C51.81 152.27 52.2443 152.287 52.7443 152.306C52.4699 151.859 52.2513 151.494 51.9821 151.073C51.7362 151.465 51.5304 151.798 51.2695 152.245Z" fill="black"/>
<path d="M27.6856 153.177C27.0629 154.087 26.4555 155.007 25.8125 155.882C25.6016 156.19 25.3047 156.461 25.0026 156.707C24.6453 157.001 24.206 157.024 23.801 156.768C23.3961 156.513 23.2228 156.114 23.312 155.658C23.3563 155.365 23.4611 155.049 23.5914 154.793C24.8842 152.186 26.3692 149.69 28.1985 147.407C28.3744 147.183 28.5958 146.99 28.8528 146.842C29.2357 146.609 29.6597 146.575 30.0647 146.831C30.4849 147.097 30.6329 147.5 30.579 147.937C30.5499 148.24 30.4703 148.552 30.3148 148.812C29.4822 150.29 28.6345 151.757 27.7867 153.224C27.7463 153.218 27.7159 153.197 27.6856 153.177Z" fill="black"/>
<path d="M34.9753 161.784C35.6949 162.428 36.3939 162.97 37.0073 163.606C37.7019 164.318 37.654 164.975 36.8735 165.561C35.8312 166.335 34.7686 167.073 33.7059 167.812C33.3081 168.1 32.8542 168.242 32.3684 167.974C31.8522 167.686 31.7897 167.19 31.8433 166.688C31.9159 165.897 32.0139 165.102 32.0613 164.316C32.0946 163.779 32.0874 163.235 32.0198 162.715C31.8896 161.699 32.6139 160.966 33.6198 161.223C34.1049 161.297 34.5554 161.583 34.9753 161.784Z" fill="black"/>
<path d="M-5.26128 112.124C-5.39849 111.901 -5.74345 111.492 -5.98259 111.027C-6.38982 110.188 -6.52464 109.277 -6.36647 108.394C-6.17352 107.362 -5.9301 106.322 -5.56517 105.365C-5.38026 104.866 -4.93248 104.44 -4.48934 104.118C-3.99085 103.748 -3.32376 103.881 -2.96361 104.3C-2.89256 104.392 -2.86657 104.582 -2.8913 104.716C-2.96599 104.988 -3.11149 105.233 -3.16095 105.501C-3.41265 107.01 -3.58351 108.531 -3.38568 110.067C-3.3489 110.437 -3.31726 110.782 -2.91229 111.037C-2.5377 111.272 -2.62708 111.663 -2.83283 111.997C-3.28476 112.657 -4.28915 112.789 -5.26128 112.124Z" fill="black"/>
<path d="M82.4971 118.271C82.8315 118.564 83.287 118.811 83.1981 119.332C83.1092 119.853 82.6759 120.096 82.1864 120.192C81.7626 120.29 81.3082 120.302 80.8738 120.285C79.5255 120.268 78.1668 120.2 76.8185 120.183C75.9802 120.169 75.3625 119.768 75.1831 119.085C75.0138 118.387 75.3697 117.704 76.1359 117.367C76.257 117.32 76.378 117.274 76.5142 117.238C77.9468 116.839 81.2464 117.394 82.4971 118.271Z" fill="black"/>
<path d="M42.7952 63.2655C43.7542 61.8313 46.6887 60.6712 48.4221 61.0384C48.9275 61.1471 49.3526 61.3733 49.6522 61.8153C49.9164 62.2115 49.8772 62.5295 49.4843 62.7779C49.1719 62.9736 48.8292 63.1486 48.4762 63.2734C47.1299 63.7746 45.8191 64.3215 44.6357 65.1712C44.0313 65.5982 43.3696 65.5549 42.8779 65.0676C42.4318 64.6115 42.3835 63.8673 42.7952 63.2655Z" fill="black"/>
<path d="M18.8435 70.9277C18.5412 71.1088 18.239 71.2899 17.9367 71.471C17.774 71.1872 17.5204 70.906 17.4586 70.6052C17.2945 69.9325 17.2312 69.2428 17.1326 68.572C17.0495 67.9764 16.9765 67.3661 16.8681 66.7748C16.7601 66.2483 16.5361 65.7934 16.1054 65.4125C15.6291 65.0004 15.536 64.4195 15.7917 63.948C16.0523 63.4367 16.6219 63.1584 17.2084 63.3441C17.6584 63.5012 18.0636 63.8215 18.4737 64.1021C18.5952 64.1853 18.6766 64.3271 18.7528 64.4439C19.7434 65.9621 19.7919 69.3786 18.8435 70.9277Z" fill="black"/>
<path d="M9.13183 53.7023C9.05073 53.6253 8.98997 53.5837 8.9444 53.5525C8.31134 53.0763 8.05676 52.5358 8.21594 51.912C8.36508 51.3029 8.90864 50.8343 9.56982 50.748C10.2462 50.672 10.9846 50.9617 11.2546 51.5774C11.4533 52.0366 11.6121 52.6194 11.523 53.0756C11.2218 54.8521 10.1257 56.0631 8.46185 56.7349C8.08876 56.8891 7.62918 56.8764 7.20488 56.8446C6.61889 56.7885 6.22346 56.3887 6.19132 55.9142C6.14915 55.4543 6.44063 55.0935 7.0511 54.9508C7.85828 54.7489 8.58412 54.405 9.13183 53.7023Z" fill="black"/>
<path d="M0.796382 31.9879C0.0559882 31.1796 -0.694454 30.386 -1.40962 29.5735C-1.54657 29.4151 -1.65339 29.2127 -1.70976 29.0018C-1.92956 28.3127 -1.37647 27.6998 -0.688795 27.9332C-0.253947 28.0799 0.141237 28.4149 0.526122 28.6998C1.36669 29.2965 2.18717 29.9225 3.04783 30.4898C3.41238 30.7392 3.79651 30.8296 4.19898 30.4369C4.49072 30.1409 4.93536 30.2081 5.29991 30.4575C5.69484 30.7277 5.84283 31.1306 5.7537 31.5868C5.63005 32.2565 4.90007 32.8345 4.03188 32.9301C3.13846 33.03 2.34446 32.7238 1.55511 32.313C1.3476 32.1926 1.14499 32.0324 0.932339 31.8869C0.871832 31.9102 0.826511 31.9438 0.796382 31.9879Z" fill="black"/>
<path d="M29.4516 81.0085C28.1016 81.8735 27.358 84.1662 27.8633 85.5463C28.1032 86.206 27.7718 86.6904 27.0851 86.7163C26.4641 86.7439 26.0084 86.4322 25.658 85.9339C25.257 85.3793 25.1283 84.7525 25.2167 84.1019C25.3679 82.74 25.9999 81.6208 27.0165 80.7216C27.4694 80.3204 28.0495 80.157 28.6615 80.4033C28.9398 80.5506 29.1578 80.786 29.4516 81.0085Z" fill="black"/>
<path d="M14.7012 49.6687C13.9111 49.0635 13.3584 48.4698 13.1734 47.6321C13.0244 46.9698 13.1483 46.365 13.7274 45.9424C14.1705 45.6206 14.5747 45.6817 15.0054 46.0625C15.6642 46.6641 16.3632 47.207 16.9867 47.8275C17.4125 48.2482 17.7729 48.7318 18.1081 49.2197C18.4991 49.7889 18.3142 50.2874 17.6378 50.3633C17.0624 50.4222 16.4661 50.3159 15.8899 50.1803C15.435 50.0629 15.0148 49.797 14.7012 49.6687Z" fill="black"/>
<path d="M78.1698 97.4458C77.9388 97.7834 77.733 98.1167 77.4869 98.4439C77.0648 98.9956 76.4191 99.1572 75.8877 98.8583C75.3563 98.5594 75.1115 97.9393 75.3616 97.3131C75.9367 95.8533 76.9118 94.6888 78.1048 93.6948C78.4269 93.4195 78.8558 93.3467 79.2559 93.6419C79.656 93.9372 79.7182 94.3677 79.5632 94.7573C79.1679 95.6936 78.7118 96.5883 78.2861 97.5039C78.2305 97.4874 78.2001 97.4666 78.1698 97.4458Z" fill="black"/>
<path d="M29.5036 157.071C29.1869 157.436 28.8853 157.812 28.5382 158.156C28.1257 158.563 27.6108 158.599 27.1754 158.323C26.7249 158.036 26.4755 157.52 26.7461 156.994C27.187 156.089 27.6987 155.211 28.2863 154.385C28.7032 153.808 29.3595 153.761 29.8656 154.065C30.3617 154.382 30.5306 154.951 30.306 155.637C30.246 155.79 30.186 155.943 30.1108 156.086C29.905 156.419 29.6789 156.717 29.458 157.04C29.4732 157.05 29.4884 157.06 29.5036 157.071Z" fill="black"/>
<path d="M4.88543 125.617C5.78162 126.23 6.06369 127.35 5.53657 128.153C4.97932 129 3.788 129.111 2.75511 128.405C1.91969 127.833 1.70353 126.78 2.24584 125.987C2.82342 125.176 3.98925 125.004 4.88543 125.617Z" fill="black"/>
<path d="M0.105108 68.6881C0.392454 68.5614 0.639124 68.3639 0.921825 68.3418C1.08841 68.3265 1.38216 68.549 1.44342 68.7202C1.84211 69.9627 2.64867 70.9024 3.63159 71.7473C3.83935 71.9326 4.14878 72.2951 4.08878 72.448C3.98885 72.7244 3.68193 73.0101 3.38429 73.0866C2.57221 73.3283 1.83382 73.0386 1.21569 72.508C0.349385 71.786 -0.048302 70.8027 -0.0878432 69.7197C-0.0790553 69.381 0.02577 69.0648 0.105108 68.6881Z" fill="black"/>
<path d="M27.6598 186.948C27.9435 187.186 28.2272 187.423 28.5009 187.675C28.8556 188.004 28.8515 188.238 28.3975 188.38C27.8326 188.554 27.2373 188.707 26.6264 188.719C25.9497 188.731 25.2675 188.587 24.6156 188.464C23.8576 188.334 23.4061 187.788 23.444 187.146C23.4919 186.489 24.0404 185.98 24.7878 185.996C25.8383 186.025 26.7541 186.479 27.6598 186.948Z" fill="black"/>
<path d="M49.9888 100.468C49.1989 99.928 48.9879 98.9001 49.5202 98.1222C50.0424 97.3589 51.0921 97.1936 51.882 97.734C52.6566 98.264 52.8777 99.2772 52.3807 100.036C51.8585 100.799 50.7787 101.009 49.9888 100.468Z" fill="black"/>
<path d="M92.4609 87.1176C92.9773 87.471 93.2623 88.0323 93.1631 88.5032C93.0688 88.9343 92.6058 89.3502 91.9797 89.3528C91.3636 89.3407 90.7119 89.2828 90.1355 89.0823C89.2253 88.7829 89.0746 87.6669 89.7742 87.0681C90.4032 86.5072 91.6254 86.5461 92.4609 87.1176Z" fill="black"/>
<path d="M81.2218 99.2753C80.6224 99.6625 80.0333 100.1 79.3932 100.416C78.7984 100.699 78.1965 100.438 77.947 99.9224C77.7179 99.4424 77.8771 98.8186 78.4518 98.5653C79.1122 98.2845 79.8337 98.1101 80.5554 98.0005C80.8077 97.9576 81.2477 98.1293 81.3545 98.3317C81.4866 98.5298 81.286 98.8882 81.2218 99.2753Z" fill="black"/>
<path d="M13.5208 174.042C13.9728 173.382 14.7851 173.205 15.4179 173.616C16.0507 174.028 16.2206 174.855 15.7887 175.486C15.3569 176.117 14.4184 176.316 13.7804 175.879C13.1881 175.474 13.079 174.688 13.5208 174.042Z" fill="black"/>
<path d="M60.5084 156.928C60.0766 157.559 59.2187 157.705 58.5959 157.279C58.0136 156.859 57.8893 156.063 58.3111 155.446C58.738 154.855 59.5303 154.707 60.1379 155.123C60.7807 155.52 60.9302 156.312 60.5084 156.928Z" fill="black"/>
<path d="M23.8074 94.4079C24.415 94.8236 24.59 95.676 24.1983 96.2485C23.8066 96.8209 23.0293 96.9141 22.3914 96.4776C21.7635 96.0264 21.6039 95.2492 22.046 94.6682C22.4529 94.1061 23.215 94.0026 23.8074 94.4079Z" fill="black"/>
<path d="M55.8441 162.507C55.5127 162.992 54.8214 163.122 54.3202 162.779C53.8037 162.426 53.6596 161.724 54.0011 161.225C54.3477 160.751 55.0289 160.635 55.5302 160.978C56.0466 161.332 56.1856 162.008 55.8441 162.507Z" fill="black"/>
</g>
</mask>
<g mask="url(#mask0_1497_21547)">
<path fill-rule="evenodd" clip-rule="evenodd" d="M-90.4853 102.172C-81.6488 81.7709 -55.4323 76.6852 -33.6264 72.5416C-11.8023 68.3945 11.3439 67.378 30.0647 79.2643C49.3263 91.4939 63.253 112.339 64.9655 135.14C66.5538 156.285 52.0106 174.054 38.4091 190.359C26.4703 204.67 11.9391 216.118 -6.16731 220.412C-25.2228 224.93 -47.7626 227.325 -62.279 214.234C-76.1621 201.714 -67.4018 179.224 -71.9717 161.068C-77.1947 140.318 -99.006 121.843 -90.4853 102.172Z" fill="#036181"/>
</g>
<defs>
<clipPath id="clip0_1497_21547">
<rect width="228.167" height="164.591" fill="white" transform="translate(-157 188.31) rotate(-55.6208)"/>
</clipPath>
</defs>
</svg>
