<svg width="1669" height="1855" viewBox="0 0 1669 1855" fill="none" xmlns="http://www.w3.org/2000/svg">
<path d="M1143.87 1358.94L1140.24 1351.03L1119.25 1351.68C1105.51 1355.31 1105.51 1359.59 1105.51 1363.99C1105.51 1368.4 1092.55 1378.38 1083.09 1381.36C1073.76 1384.21 1063.65 1405.85 1057.82 1408.7C1052.12 1411.56 1032.55 1404.43 1026.84 1403.65C1024.25 1403.26 1019.46 1404.3 1014.4 1405.59C1018.03 1411.94 1025.55 1419.46 1028.27 1419.46C1031.9 1419.46 1033.19 1445.12 1041.62 1448.75C1050.17 1452.38 1065.98 1460.93 1065.98 1465.86C1065.98 1470.78 1075.7 1476.87 1075.7 1484.13C1075.7 1491.39 1085.42 1501.37 1092.81 1501.24C1108.36 1500.72 1110.05 1507.2 1110.05 1511.61C1110.05 1516.01 1130.65 1511.61 1133.38 1515.88C1135.84 1519.9 1156.19 1518.35 1161.11 1521.07C1169.53 1512.77 1181.72 1502.02 1185.86 1496.44C1192.34 1487.76 1186.9 1475.84 1192.34 1472.6C1197.79 1469.36 1209.71 1455.23 1205.3 1454.19C1201.03 1453.16 1204.27 1442.27 1197.79 1435.79C1191.31 1429.31 1205.3 1426.07 1204.27 1414.15C1203.23 1402.22 1206.47 1378.38 1203.23 1376.3C1199.99 1374.1 1184.83 1373.06 1175.11 1366.58C1165.39 1360.1 1143.74 1359.07 1143.74 1359.07L1143.87 1358.94Z" fill="#8EBDF4"/>
<path d="M1156.19 1174.13C1152.95 1174.13 1145.17 1168.94 1138.56 1164.15C1133.89 1169.33 1117.3 1168.55 1109.14 1168.55C1100.46 1168.55 1108.1 1180.48 1102.66 1184.75C1097.22 1189.03 1095.14 1195.64 1099.42 1197.71C1103.7 1199.79 1098.38 1218.32 1098.38 1224.8C1098.38 1231.28 1089.7 1245.41 1092.94 1247.48C1096.18 1249.68 1101.62 1264.85 1109.14 1266.92C1116.66 1269.12 1122.1 1261.48 1125.34 1261.48C1128.58 1261.48 1128.58 1271.2 1128.58 1278.84C1128.58 1286.49 1124.3 1289.73 1124.3 1289.73C1124.3 1289.73 1112.38 1294.01 1106.94 1289.73C1101.49 1285.45 1097.22 1273.53 1097.22 1269.12C1097.22 1264.72 1084.26 1264.85 1078.81 1264.85C1073.37 1264.85 1068.06 1255.13 1065.85 1250.72C1063.65 1246.44 1057.17 1251.76 1057.17 1255C1057.17 1258.24 1051.73 1258.24 1046.28 1258.24C1040.84 1258.24 1030.08 1249.55 1025.68 1251.76C1021.4 1253.96 1016.99 1244.11 1018.16 1239.83C1019.2 1235.56 1007.27 1238.8 1003 1240.87C998.72 1243.07 996.517 1235.43 996.517 1235.43C996.517 1235.43 994.055 1231.15 990.167 1229.21L984.983 1277.68L978.762 1283.9L942.603 1282.6L940.141 1363.86L968.005 1401.83C982.52 1398.85 1012.59 1394.71 1012.59 1399.76C1012.59 1401.32 1013.37 1403.26 1014.53 1405.46C1019.59 1404.3 1024.38 1403.26 1026.97 1403.52C1032.81 1404.3 1052.25 1411.42 1057.95 1408.57C1063.78 1405.72 1073.89 1384.08 1083.22 1381.23C1092.55 1378.38 1105.64 1368.27 1105.64 1363.86C1105.64 1359.46 1105.64 1355.18 1119.38 1351.55L1140.37 1350.9H1141.8L1136.75 1332.89C1136.75 1332.89 1200.64 1309.04 1204.4 1308.39C1201.55 1302.69 1198.69 1298.41 1200.12 1297.64C1202.58 1296.34 1203.88 1278.84 1203.88 1273.92C1203.88 1268.99 1218.91 1272.62 1213.86 1267.7C1208.93 1262.77 1210.1 1234 1212.56 1227.78C1215.02 1221.56 1221.37 1227.78 1221.37 1222.73C1221.37 1217.67 1213.86 1201.47 1210.1 1196.55C1207.38 1192.92 1185.09 1184.11 1178.87 1182.81C1172.64 1181.64 1162.67 1174.13 1156.44 1174.13H1156.19Z" fill="#C7DCFF"/>
<path d="M97.6061 392.246C97.6061 386.673 123.008 379.545 123.008 373.972V308.783C123.008 308.783 202.583 310.338 204.916 308.783C206.212 308.006 205.952 290.639 205.434 273.661C202.453 268.607 206.73 264.33 187.938 264.33H97.2174C90.2189 270.81 86.4605 279.623 83.8685 286.751C79.5917 298.286 52.505 315.263 51.3386 331.463C50.3018 347.663 25.0297 372.936 8.44078 407.539C3.90475 417.129 1.8309 424.517 1.3125 430.478H97.6061V392.246Z" fill="#C7E1FF"/>
<path d="M1243.66 885.505L1241.2 868.009L1230.06 857.9C1226.82 860.622 1222.15 863.214 1221.76 865.806C1221.24 869.564 1210.88 869.046 1206.6 866.843C1202.32 864.64 1190.92 869.565 1188.71 872.805C1186.51 876.045 1178.99 866.843 1173.55 867.361C1168.11 867.88 1155.15 872.805 1155.15 872.805C1155.15 872.805 1152.94 887.968 1152.94 893.929C1152.94 899.891 1161.11 900.928 1161.11 905.853C1161.11 910.777 1154.63 915.054 1154.11 918.294C1153.59 921.534 1149.19 923.738 1143.87 925.293C1138.43 926.978 1138.95 935.531 1134.67 938.771C1130.39 942.011 1131.43 950.176 1128.71 956.138C1125.99 962.099 1124.43 970.135 1124.43 977.263C1124.43 982.965 1123.65 990.871 1120.41 995.018C1127.28 995.796 1129.1 994.629 1132.6 992.944C1137.52 990.482 1157.61 985.427 1157.61 985.427L1177.96 983.743C1182.49 971.042 1189.1 959.378 1196.49 957.304C1205.95 954.453 1218.91 955.619 1229.02 958.082C1231.74 950.695 1234.46 944.733 1236.28 942.918C1242.5 936.698 1251.31 924.126 1252.48 914.147C1253.77 904.168 1253.77 894.189 1253.77 894.189L1243.79 885.376L1243.66 885.505Z" fill="#C7E1FF"/>
<path d="M626.508 47.7669C632.34 56.4501 625.082 70.8358 619.25 73.687C613.418 76.5383 609.141 89.4983 603.309 89.4983C597.477 89.4983 603.309 111.142 613.418 115.418C623.527 119.695 623.527 126.953 623.527 131.23C623.527 135.507 637.913 139.913 642.319 145.615C646.596 151.318 653.853 178.793 653.853 188.902C653.853 191.494 654.761 193.568 656.057 195.382C659.815 192.92 664.351 189.939 666.165 186.44C669.406 180.219 671.997 169.851 670.442 167C669.017 164.148 669.406 159.094 672.646 156.113C675.886 153.262 688.845 139.524 691.437 138.487C694.029 137.451 702.324 138.876 701.935 130.841C701.806 127.731 702.195 122.806 702.713 118.14C696.881 114.382 693.252 109.975 693.252 107.772C693.252 103.106 686.772 95.2008 683.143 99.4777C679.514 103.754 665.777 100.255 663.962 91.183C662.148 82.111 673.034 82.4998 683.143 74.2054C693.252 65.9109 694.677 49.9701 683.791 41.2869C673.034 32.6036 680.551 27.938 688.068 20.0324C695.585 12.1267 688.846 7.72031 684.828 11.3491C680.81 14.9779 674.33 16.0148 673.293 7.33154C672.257 -1.35171 648.799 -2.77731 639.727 5.51714C636.616 8.36835 631.691 9.27547 626.637 9.27547C624.434 23.6611 622.62 41.5461 626.378 47.3781L626.508 47.7669Z" fill="#82B8F5"/>
<path d="M456.083 732.188C451.806 727.911 461.526 719.746 451.158 713.784C442.086 708.471 438.976 710.026 437.939 690.975C432.755 690.586 424.979 688.383 419.406 687.864C418.24 687.864 417.332 687.994 416.555 688.383C417.721 695.251 419.406 702.898 421.48 704.064C425.238 706.268 427.96 710.544 427.441 718.709C426.923 726.874 424.72 744.629 427.96 752.794C431.2 760.959 434.44 773.919 434.44 786.361C434.44 794.137 438.846 805.671 443.382 814.484C445.326 813.447 447.011 812.411 448.307 811.244C451.547 808.523 456.601 806.838 461.915 805.801C461.397 790.249 460.489 769.124 459.841 760.83C458.804 747.351 460.36 736.465 456.083 732.188Z" fill="#C7E1FF"/>
<path d="M1368.99 1199.4C1368.21 1184.62 1359.66 1184.62 1360.05 1174.52C1360.44 1164.41 1361.08 1155.33 1357.45 1154.3C1353.83 1153.26 1356.03 1144.58 1361.73 1135.89C1367.56 1127.21 1351.23 1126.17 1348.77 1115.29C1347.73 1110.62 1352.92 1095.07 1359.53 1078.22C1339.31 1064.36 1318.57 1049.06 1318.57 1049.06L1319.74 1034.03L1227.6 985.039C1226.95 996.315 1222.41 1005 1215.8 1007.98C1208.8 1011.22 1225.52 1021.46 1217.49 1023.14C1209.32 1024.7 1190.92 1015.5 1177.96 1020.94C1169.27 1024.57 1171.09 1002.67 1177.83 983.614L1157.48 985.299C1157.48 985.299 1151.91 986.724 1145.95 988.409L1149.96 999.036C1149.96 999.036 1154.89 1009.02 1153.72 1015.24C1153.2 1018.09 1148.67 1019.38 1144 1019.9C1145.69 1027.29 1145.04 1032.73 1145.04 1032.73L1151.26 1036.49C1151.26 1036.49 1137.52 1062.67 1131.3 1065.26C1129.62 1065.91 1125.73 1068.37 1120.93 1071.48C1124.56 1089.89 1129.1 1111.79 1135.84 1118.01C1148.28 1129.41 1146.08 1142.37 1148.8 1149.89C1151.52 1157.54 1162.28 1166.09 1154.76 1169.33C1149.83 1171.41 1145.56 1166.22 1141.15 1159.09C1140.63 1160.39 1140.24 1161.69 1139.6 1162.85C1139.34 1163.24 1138.95 1163.5 1138.69 1163.89C1145.3 1168.81 1153.07 1173.87 1156.31 1173.87C1162.54 1173.87 1172.51 1181.38 1178.74 1182.55C1184.96 1183.85 1207.25 1192.66 1209.97 1196.29C1210.49 1196.94 1211.01 1197.71 1211.52 1198.75C1216.84 1198.49 1223.84 1198.23 1227.98 1198.75C1228.89 1197.97 1229.93 1197.33 1231.61 1197.33C1239.91 1197.33 1249.63 1228.56 1249.11 1246.7C1254.03 1247.35 1260.77 1248.13 1262.98 1248.13C1266.6 1248.13 1270.88 1243.07 1277.36 1245.28C1283.84 1247.48 1279.56 1252.54 1285.27 1252.54C1290.97 1252.54 1302.63 1248.91 1306.13 1249.68C1309.76 1250.46 1319.87 1252.54 1320.52 1248.26C1321.3 1243.98 1323.37 1237.37 1328.42 1238.93C1333.48 1240.35 1337.11 1244.63 1342.81 1239.7C1348.64 1234.65 1357.97 1239.7 1360.18 1235.43C1361.34 1233.22 1374.17 1227 1386.1 1221.56C1385.45 1207.69 1369.51 1213.91 1368.86 1199.4H1368.99Z" fill="#82B8F5"/>
<path d="M1165.77 1609.07C1159.81 1609.07 1149.18 1623.71 1149.18 1626.69C1149.18 1629.67 1156.7 1648.86 1164.22 1649.37C1171.74 1649.89 1177.31 1649.37 1177.83 1643.8C1178.09 1641.08 1180.03 1638.88 1181.97 1637.32C1181.46 1632.53 1180.16 1622.42 1179.77 1616.32C1175.36 1613.34 1169.79 1609.2 1165.9 1609.2L1165.77 1609.07Z" fill="#82B8F5"/>
<path d="M1258.57 386.933C1251.31 386.933 1254.29 404.299 1242.76 404.299C1231.22 404.299 1235.5 415.834 1228.37 415.834C1221.24 415.834 1215.41 408.576 1215.41 408.576H1183.66C1183.66 408.576 1176.4 401.318 1172.13 404.299C1167.85 407.15 1163.44 410.002 1163.44 410.002H1014.53V461.324H991.981V541.028C991.981 541.028 993.536 565.134 989 566.689C984.464 568.244 967.875 572.651 967.875 580.297C967.875 587.943 966.32 593.775 958.803 595.331C951.286 596.886 958.803 613.345 948.305 613.345C937.808 613.345 952.841 625.398 946.75 631.36C940.788 637.321 942.214 644.968 949.731 644.968C957.248 644.968 954.267 654.04 954.267 662.982C954.267 671.925 966.32 678.016 966.32 678.016L963.339 688.514C963.339 688.514 979.928 708.083 981.354 712.619C982.909 717.155 991.851 729.208 982.909 733.744C973.966 738.28 979.928 742.816 979.928 742.816L990.425 744.372L993.406 751.888C993.406 751.888 1005.46 751.888 1012.98 760.96C1020.49 770.032 1023.47 771.458 1023.47 775.994C1023.47 780.53 1029.44 781.956 1038.51 789.602C1047.58 797.119 1047.45 801.655 1047.45 806.191C1047.45 810.727 1064.04 818.244 1064.04 818.244L1069.61 832.37C1072.46 833.926 1074.67 835.61 1075.96 838.721C1078.94 846.238 1086.59 850.774 1086.59 850.774C1086.59 850.774 1095.66 856.865 1101.62 850.774C1107.71 844.682 1115.23 852.329 1115.23 852.329C1115.23 852.329 1122.75 846.238 1127.28 849.348C1130.39 851.422 1143.87 862.438 1155.54 873.065C1157.22 872.417 1168.63 868.27 1173.55 867.751C1178.99 867.233 1186.51 876.435 1188.71 873.195C1190.92 869.955 1202.19 865.03 1206.6 867.233C1210.88 869.436 1221.24 869.955 1221.76 866.196C1222.15 863.604 1226.69 861.012 1230.06 858.29C1231.61 856.994 1232.91 855.699 1233.17 854.273C1234.2 849.996 1247.16 842.35 1252.61 841.313C1258.05 840.276 1264.53 839.628 1267.25 842.868C1268.55 844.423 1270.88 845.46 1273.34 846.497C1275.16 832.63 1278.27 825.113 1273.73 825.113C1267.64 825.113 1255.59 819.022 1251.05 806.969C1246.52 794.916 1232.91 787.399 1229.93 779.882C1226.95 772.365 1210.36 773.791 1207.25 767.829C1204.27 761.738 1211.78 761.738 1211.78 754.221C1211.78 746.704 1229.93 751.24 1231.35 749.685C1232.91 748.13 1234.33 731.541 1234.33 722.469C1234.33 713.397 1246.39 704.325 1241.85 699.789C1237.31 695.253 1246.39 693.698 1252.48 689.291C1258.57 684.755 1254.03 671.147 1260 665.185C1266.09 659.094 1270.49 647.171 1275.03 647.171C1279.56 647.171 1285.53 641.08 1285.53 635.118C1285.53 629.156 1296.15 616.974 1294.6 606.476C1293.04 595.849 1288.51 582.371 1296.15 573.299C1303.67 564.227 1306.65 556.71 1305.23 549.193C1303.8 541.676 1314.3 540.121 1318.83 535.585C1322.07 532.345 1333.48 527.679 1342.16 513.812C1336.72 507.073 1330.76 501.5 1327 499.815C1318.32 495.797 1312.61 480.634 1312.61 461.583C1312.61 442.531 1307.95 427.239 1307.17 421.147C1306.39 415.056 1297.06 402.096 1285.92 395.875C1278.01 391.598 1273.6 384.989 1272.31 377.472C1272.05 377.861 1271.66 378.25 1271.53 378.509C1264.27 388.618 1265.7 387.192 1258.57 387.192V386.933Z" fill="#C7E1FF"/>
<path d="M1182.37 1639.78C1182.37 1639.78 1182.37 1638.87 1181.98 1637.19C1180.03 1638.74 1178.09 1640.95 1177.83 1643.67C1177.31 1649.24 1171.87 1649.76 1164.22 1649.24C1156.7 1648.72 1149.19 1629.67 1149.19 1626.56C1149.19 1623.45 1159.68 1608.94 1165.78 1608.94C1169.66 1608.94 1175.24 1613.21 1179.64 1616.06C1179.51 1613.86 1179.38 1612.18 1179.64 1611.53C1180.16 1608.29 1183.92 1570.96 1177.44 1567.08C1170.96 1563.32 1164.48 1525.34 1162.28 1521.59C1160.07 1517.83 1136.36 1519.9 1133.64 1515.62C1130.91 1511.35 1110.96 1515.62 1110.44 1511.35C1107.33 1515.88 1103.83 1521.07 1102.01 1523.14C1098.38 1527.42 1088.27 1524.57 1086.85 1531.82C1085.42 1539.08 1073.11 1546.21 1067.41 1546.21C1061.71 1546.21 1057.3 1556.32 1057.3 1562.8C1057.3 1569.28 1045.77 1577.96 1036.43 1577.96C1027.1 1577.96 1029.95 1585.87 1027.1 1595.98C1024.25 1606.09 1019.85 1606.86 1004.03 1606.86C988.223 1606.86 987.446 1605.44 975.134 1597.53C962.822 1589.63 959.322 1604.01 958.545 1610.49C957.897 1616.97 941.178 1629.93 936.124 1635.76C931.069 1641.47 918.757 1637.19 911.629 1637.19C904.501 1637.19 907.352 1630.71 907.352 1626.3C907.352 1621.9 910.981 1624.88 912.407 1620.47C913.832 1616.19 907.352 1600.25 904.501 1593.13C903.335 1590.01 898.28 1587.42 892.967 1585.48V1674.64C892.967 1682.55 880.007 1686.18 877.155 1690.58C874.304 1694.86 856.16 1691.36 846.181 1691.36C836.201 1691.36 838.275 1681.25 833.221 1674C828.166 1666.74 819.483 1676.2 819.483 1681.25C819.483 1685.01 814.947 1684.36 808.985 1683.85C816.891 1696.29 823.76 1710.93 827.389 1722.86C833.221 1742.04 847.218 1760.05 850.847 1771.2C854.475 1782.34 858.363 1792.84 850.847 1793.88C843.33 1794.91 843.33 1801.39 851.235 1813.71C859.141 1826.02 852.272 1833.15 859.141 1834.7C866.01 1836.13 863.806 1840.4 869.25 1840.79C874.693 1841.18 878.581 1846.62 882.21 1851.29C885.839 1855.96 894.133 1855.96 898.021 1850.25C902.039 1844.55 914.221 1842.74 926.922 1842.74C939.623 1842.74 937.031 1837.29 949.343 1833.66C961.655 1830.04 976.43 1829.65 986.927 1833.28C997.425 1836.9 1005.33 1833.66 1010.38 1830.42C1015.44 1827.18 1025.16 1835.48 1025.94 1827.18C1026.71 1818.89 1036.82 1820.32 1046.15 1820.32C1055.49 1820.32 1078.3 1805.54 1096.31 1788.56C1114.32 1771.59 1144.26 1734.52 1154.37 1717.54C1164.48 1700.56 1181.07 1686.18 1189.36 1678.53C1195.58 1672.83 1199.21 1652.87 1200.9 1638.36C1192.34 1638.36 1182.75 1639.78 1182.75 1639.78H1182.37ZM1107.2 1720.39C1107.2 1726.23 1094.24 1718.97 1091.39 1724.67C1088.53 1730.5 1085.55 1737.63 1085.55 1737.63L1075.44 1736.2L1061.06 1715.99C1061.06 1715.99 1072.59 1700.18 1075.44 1694.34C1078.3 1688.64 1097.09 1678.53 1099.94 1684.23C1102.79 1689.94 1115.75 1697.19 1115.75 1703.03C1115.75 1708.86 1107.07 1714.56 1107.07 1720.39H1107.2Z" fill="#C7E1FF"/>
<path d="M1459.97 725.189C1464.25 727.392 1471.38 738.667 1476.17 739.834C1481.1 740.871 1508.05 750.072 1525.42 757.2C1542.79 764.199 1553.54 764.847 1558.99 764.847C1564.43 764.847 1572.46 766.532 1567.67 770.29C1562.74 774.048 1509.74 827.703 1502.74 835.22C1495.74 842.737 1491.33 840.145 1475.65 840.145C1459.97 840.145 1448.05 857.511 1443.77 856.993C1441.18 856.604 1431.98 858.289 1424.07 860.103L1412.41 877.211L1401.13 894.707L1402.43 982.058L1414.48 1001.24C1424.07 988.538 1449.73 963.913 1468.65 943.955C1489.26 922.312 1499.63 917.257 1511.29 911.555C1522.83 905.723 1552.12 877.211 1571.95 852.068C1584.39 836.127 1598.25 818.502 1600.07 806.967C1601.88 795.433 1613.42 780.269 1622.1 769.124C1630.78 757.978 1645.17 729.466 1644.78 720.782C1644.39 712.099 1652.04 693.696 1653.08 678.144C1654.11 662.592 1641.15 661.166 1637.13 669.849C1633.12 678.533 1602.14 684.235 1582.31 684.624C1562.48 685.013 1550.56 686.827 1543.3 693.696C1536.05 700.565 1518.03 691.882 1511.55 699.528C1505.07 707.045 1479.41 713.525 1471.12 696.288C1467.62 689.03 1462.95 684.883 1458.54 682.421C1451.55 689.549 1443.25 700.176 1444.68 703.546C1446.88 708.47 1455.43 723.504 1459.84 725.707L1459.97 725.189Z" fill="#82B8F5"/>
<path d="M160.591 769.514C161.628 764.589 164.868 759.794 162.276 755.517C159.554 751.24 159.036 746.316 159.036 740.872C159.036 735.429 144.91 716.507 139.596 716.507C134.282 716.507 127.154 721.432 121.192 720.266C115.231 719.229 110.306 717.026 109.788 722.987C109.399 727.005 100.068 735.299 93.0693 741.261C94.4949 744.112 95.6612 746.964 96.5684 750.204C102.4 770.033 107.714 774.05 116.009 780.919C119.767 784.029 127.025 788.695 135.578 794.009C137.652 790.121 139.596 787.01 141.151 785.844C146.594 781.567 159.554 774.439 160.591 769.644V769.514Z" fill="#C7E1FF"/>
<path d="M27.6215 657.668C32.1575 658.057 41.3595 652.225 41.3595 652.225C41.3595 652.225 71.9453 650.021 76.9997 649.503C78.8141 649.373 81.0173 650.151 83.0909 651.188C83.0909 649.892 83.0909 648.855 83.0909 648.855C83.0909 648.855 99.291 652.095 100.457 655.853C101.494 659.612 123.785 662.333 136.227 658.057C137.134 657.797 138.042 657.409 138.949 657.149C139.078 652.225 139.337 644.189 138.819 641.727C138.041 638.098 130.136 630.192 125.859 625.916C121.582 621.639 122.23 610.752 122.23 610.752L117.694 604.143C117.694 604.143 114.195 590.405 103.956 587.035C93.718 583.536 86.8491 564.744 86.8491 564.744H78.2954C78.2954 564.744 71.4266 556.19 64.5577 552.691C57.6889 549.192 45.6361 554.376 45.6361 554.376C45.6361 554.376 31.8985 556.061 23.3448 554.376C14.7912 552.691 16.476 564.744 9.60716 566.429C9.34796 566.429 8.82948 566.688 8.31107 566.688C7.53347 573.686 6.36716 580.815 2.73834 586.258C-5.16731 598.181 5.97851 615.548 11.8105 620.861C12.977 622.028 13.3656 623.583 13.236 625.397C26.3256 626.693 33.7129 625.397 44.081 620.343C54.5787 615.288 55.4857 629.415 67.409 630.322C79.2026 631.229 80.6285 632.136 80.6285 632.136C80.6285 632.136 72.8524 637.191 65.5948 636.284C58.3371 635.376 50.0427 626.304 44.9883 630.84C39.9339 635.377 24.5111 638.098 17.1238 638.616C15.9574 638.616 13.3656 639.264 9.99594 640.172C9.47754 644.189 9.86636 648.207 12.8472 651.576C13.7544 652.613 14.532 653.52 15.3096 654.557C27.6217 651.447 23.8632 657.538 27.7512 657.927L27.6215 657.668Z" fill="#C7DCFF"/>
<path d="M1145.95 988.539C1140.63 990.094 1134.8 991.779 1132.47 992.945C1128.97 994.63 1127.15 995.796 1120.29 995.019C1119.51 996.055 1118.47 996.833 1117.3 997.352C1111.34 999.555 1112.38 1013.03 1112.38 1013.03C1112.38 1013.03 1106.94 1013.55 1106.94 1020.03C1106.94 1024.44 1109.92 1026.38 1111.86 1027.16C1114.97 1027.16 1117.69 1027.55 1119.9 1027.94C1133.63 1030.4 1132.34 1020.42 1132.34 1020.42C1132.34 1020.42 1152.3 1021.72 1153.59 1015.37C1154.89 1009.15 1149.83 999.166 1149.83 999.166L1145.82 988.539H1145.95Z" fill="#C7DCFF"/>
<path d="M1123.26 1134.34C1111.34 1127.86 1106.42 1046.08 1112.38 1044.01C1113.16 1043.75 1113.93 1044.53 1114.58 1046.34L1113.42 1027.81C1113.42 1027.81 1112.77 1027.68 1111.86 1027.29C1109.92 1026.51 1106.94 1024.7 1106.94 1020.16C1106.94 1013.68 1112.38 1013.16 1112.38 1013.16C1112.38 1013.16 1111.34 999.683 1117.3 997.48C1118.47 997.091 1119.51 996.184 1120.28 995.147C1123.65 991 1124.3 983.094 1124.3 977.392C1124.3 970.393 1125.99 962.229 1128.58 956.267C1131.3 950.305 1130.26 942.27 1134.54 938.9C1138.82 935.66 1138.3 926.977 1143.74 925.422C1149.19 923.737 1153.46 921.664 1153.98 918.423C1154.5 915.183 1160.98 910.777 1160.98 905.982C1160.98 901.187 1152.81 900.02 1152.81 894.059C1152.81 888.097 1155.02 872.934 1155.02 872.934C1155.02 872.934 1155.28 872.934 1155.41 872.804C1143.74 862.177 1130.26 851.031 1127.15 849.087C1122.62 846.106 1115.1 852.068 1115.1 852.068C1115.1 852.068 1107.58 844.551 1101.49 850.513C1095.4 856.604 1086.46 850.513 1086.46 850.513C1086.46 850.513 1078.94 845.977 1075.83 838.46C1074.66 835.349 1072.33 833.535 1069.48 832.11L1069.87 833.146L1051.86 836.127C1051.86 836.127 1029.3 824.074 1024.77 833.146C1020.23 842.218 1015.7 836.127 1005.2 836.127C994.701 836.127 985.629 840.663 979.668 843.644C973.706 846.625 964.634 840.663 960.098 843.644C955.562 846.625 952.581 860.233 952.581 860.233L905.925 851.161C905.925 851.161 896.852 837.553 886.355 837.553C875.857 837.553 860.823 857.122 860.823 857.122V873.452C862.638 883.302 860.305 893.54 857.195 898.724C852.659 906.241 848.123 909.222 848.123 924.385C848.123 939.548 829.978 963.654 829.978 975.707C829.978 987.76 808.854 995.277 808.854 1002.92C808.854 1010.57 807.298 1027.03 807.298 1043.62C807.298 1060.21 798.226 1046.6 798.226 1061.76C798.226 1076.93 790.71 1067.85 783.193 1075.37C775.676 1082.89 772.695 1084.44 772.695 1076.93C772.695 1069.41 762.197 1067.85 753.125 1075.37C744.053 1082.89 741.072 1075.37 736.536 1073.81C734.074 1073.04 723.706 1079 713.727 1086C718.263 1095.33 720.596 1104.66 722.41 1112.95C722.54 1113.73 722.799 1114.51 723.058 1115.42C728.371 1111.66 733.815 1108.29 736.925 1107.9C744.442 1106.86 815.982 1107.9 815.982 1107.9C815.982 1107.9 822.462 1118.79 820.258 1128.51C818.055 1138.23 824.535 1133.95 829.978 1146.91C835.422 1159.87 839.698 1165.31 850.585 1162.07C861.471 1158.83 874.432 1156.63 878.708 1157.8C882.985 1158.83 881.948 1139.39 888.428 1136.15C894.909 1132.91 907.869 1136.15 907.869 1136.15C907.869 1136.15 908.906 1141.6 919.792 1141.6C930.679 1141.6 935.992 1137.32 935.992 1144.84C935.992 1152.35 937.029 1161.04 940.269 1164.28C943.509 1167.52 931.586 1194.6 937.029 1198.88C942.472 1203.16 949.989 1212.88 948.952 1218.32C947.915 1223.76 944.675 1236.72 948.952 1237.76C953.229 1238.8 954.395 1231.28 961.912 1231.28C969.429 1231.28 976.039 1232.32 983.555 1229.08C986.018 1228.04 988.221 1228.43 990.165 1229.34C994.053 1231.28 996.515 1235.56 996.515 1235.56C996.515 1235.56 998.719 1243.2 1003 1241C1007.27 1238.8 1019.2 1235.56 1018.16 1239.96C1017.12 1244.24 1021.4 1254.09 1025.68 1251.89C1029.95 1249.68 1040.84 1258.37 1046.28 1258.37C1051.73 1258.37 1057.17 1258.37 1057.17 1255.13C1057.17 1251.89 1063.65 1246.44 1065.85 1250.85C1068.06 1255.13 1073.37 1264.98 1078.81 1264.98C1084.26 1264.98 1097.22 1264.98 1097.22 1269.25C1097.22 1273.53 1101.49 1285.45 1106.94 1289.86C1112.38 1294.14 1124.3 1289.86 1124.3 1289.86C1124.3 1289.86 1128.58 1286.62 1128.58 1278.97C1128.58 1271.33 1128.58 1261.61 1125.34 1261.61C1122.1 1261.61 1116.66 1269.25 1109.14 1267.05C1101.62 1264.85 1096.18 1249.68 1092.94 1247.61C1089.7 1245.41 1098.38 1231.41 1098.38 1224.93C1098.38 1218.45 1103.82 1200.05 1099.42 1197.84C1095.01 1195.64 1097.22 1189.16 1102.66 1184.88C1108.1 1180.61 1100.46 1168.68 1109.14 1168.68C1117.3 1168.68 1133.76 1169.59 1138.56 1164.28C1138.82 1163.89 1139.34 1163.63 1139.47 1163.24C1140.11 1162.07 1140.63 1160.78 1141.02 1159.48C1135.45 1150.41 1129.87 1138.23 1123.26 1134.6V1134.34Z" fill="#C7DCFF"/>
<path d="M1663.31 347.144C1662.66 344.552 1662.79 342.219 1663.83 340.405C1668.5 332.499 1671.35 311.893 1660.98 309.041C1650.48 306.19 1644.78 327.056 1644.78 332.888C1644.78 333.925 1644.13 333.925 1642.96 333.147C1648.15 346.626 1657.48 347.921 1663.31 347.144Z" fill="#C7E1FF"/>
<path d="M664.093 792.453C666.944 791.675 673.424 793.878 678.479 790.25C683.533 786.621 694.42 795.304 695.845 802.562C697.271 809.819 701.677 799.71 705.954 791.675C710.231 783.77 723.969 759.923 723.969 754.091C723.969 748.259 735.503 743.205 735.503 739.705C735.503 736.206 734.726 728.171 738.354 726.745C741.983 725.32 744.835 714.433 744.057 710.804C743.279 707.176 756.369 686.958 758.442 684.107C760.646 681.255 772.18 682.681 772.828 676.201C773.476 669.721 775.679 662.463 771.403 661.038C767.126 659.612 761.294 654.558 761.294 650.929C761.294 648.855 761.553 643.023 762.849 637.839C757.017 637.062 756.757 631.229 753.388 627.86C749.759 624.231 749.759 621.38 744.705 622.805C739.65 624.231 733.818 636.543 727.338 638.746C720.858 640.949 711.397 635.895 707.121 633.692C702.844 631.489 682.626 633.692 676.146 632.914C669.666 632.137 663.186 641.598 658.132 644.449C653.077 647.3 638.692 645.874 634.285 644.449C630.008 643.023 619.899 634.34 615.493 634.34C611.086 634.34 602.533 635.766 595.275 640.042C588.018 644.319 585.944 632.137 581.538 627.082C577.261 622.028 567.8 626.305 562.097 621.38C556.265 616.325 552.766 627.082 547.712 626.434C542.657 625.657 529.697 622.805 525.291 626.434C521.014 630.063 521.662 643.801 519.588 645.874C517.385 648.078 508.702 658.187 508.702 663.241C508.702 665.574 507.794 667.129 506.369 668.036C507.276 673.998 508.572 681.644 508.831 684.495C509.35 689.42 511.553 713.785 506.11 719.099C500.667 724.542 496.908 733.225 496.908 733.225C496.908 733.225 488.225 739.187 486.67 751.11C484.985 763.034 487.188 770.55 487.188 779.752C487.188 786.232 491.983 790.898 494.705 798.933C494.705 798.933 494.835 798.933 494.964 799.192C499.241 804.894 519.848 806.061 531.382 808.523C542.917 810.986 554.84 827.315 554.451 833.407C554.062 839.498 561.968 851.421 567.411 854.402C572.854 857.253 586.203 848.959 592.294 848.959C598.385 848.959 620.418 849.347 624.824 845.33C626.12 844.163 627.416 844.293 628.712 845.071C633.896 831.204 635.84 818.891 635.84 818.891C635.84 818.891 660.853 792.971 663.834 792.194L664.093 792.453Z" fill="#C7DCFF"/>
<path d="M785.268 417.257C785.268 413.758 784.49 397.688 783.842 385.894L764.532 396.392C764.532 396.392 759.348 387.838 749.109 380.969C738.871 374.1 713.08 374.1 713.08 374.1L608.363 439.289L563.781 475.319C563.781 475.319 534.62 485.557 526.067 487.371C525.03 487.501 523.993 487.76 522.827 488.019C523.086 505.904 523.604 551.265 521.272 552.949C518.42 555.153 516.217 568.113 513.366 570.964C510.514 573.815 506.886 581.721 498.203 581.721C489.519 581.721 468.653 586.775 459.97 585.35C451.287 583.924 444.159 590.404 440.53 591.83C438.716 592.607 431.717 593.126 424.719 592.996C423.941 598.439 423.293 605.179 424.849 606.086C427.57 607.641 428.607 616.972 433.013 620.083C437.29 623.323 444.418 628.248 444.418 633.043C444.418 637.838 444.937 642.244 448.695 642.244C452.453 642.244 454.138 649.243 458.415 650.927C462.692 652.612 469.82 647.688 470.857 649.243C471.893 650.928 470.338 662.721 472.542 662.721C473.838 662.721 478.762 663.758 482.391 667.128C481.095 661.425 483.946 653.779 491.074 655.852C498.332 658.056 492.5 664.536 498.98 667.387C505.46 670.238 509.089 668.164 509.089 663.11C509.089 658.056 517.772 647.947 519.975 645.744C522.179 643.54 521.401 629.932 525.678 626.303C529.955 622.675 543.044 625.526 548.099 626.303C553.153 627.081 556.782 616.195 562.484 621.249C568.316 626.303 577.648 622.027 581.925 626.951C586.201 632.006 588.405 644.318 595.662 639.912C602.92 635.635 611.473 634.209 615.88 634.209C620.286 634.209 630.266 642.892 634.672 644.318C638.949 645.744 653.464 647.169 658.519 644.318C663.573 641.467 670.053 632.006 676.533 632.783C683.013 633.561 703.231 631.358 707.508 633.561C711.785 635.764 721.245 640.819 727.725 638.615C734.205 636.412 740.037 624.23 745.092 622.675C746.647 622.286 747.684 622.286 748.591 622.675C748.591 619.823 748.591 617.231 748.591 614.769C748.591 601.809 751.442 606.863 753.646 593.774C755.849 580.814 789.675 546.858 792.655 544.655C795.507 542.452 795.506 491.26 795.506 484.002C795.506 476.744 796.932 468.191 799.783 458.082C802.635 447.973 794.729 448.75 795.506 439.289C796.284 429.829 785.397 422.701 785.397 416.869L785.268 417.257Z" fill="#82B8F5"/>
<path d="M819.093 1681.38C819.093 1676.33 827.776 1667 832.831 1674.13C837.885 1681.38 835.682 1691.49 845.791 1691.49C855.9 1691.49 873.914 1695.12 876.766 1690.71C879.617 1686.44 892.577 1682.81 892.577 1674.77V1513.81C892.577 1508.11 917.071 1513.81 917.071 1504.48V1420.76C917.071 1420.76 935.086 1419.33 940.14 1417.9C945.195 1416.48 963.209 1407.02 967.616 1410C971.893 1412.85 977.725 1422.96 980.576 1419.33C983.427 1415.7 990.685 1408.44 997.942 1408.44C1001.83 1408.44 1008.31 1406.76 1014.4 1405.33C1013.24 1403.26 1012.46 1401.19 1012.46 1399.63C1012.46 1393.54 968.523 1400.8 961.136 1403.26C953.878 1405.72 930.679 1409.35 923.292 1405.72C916.035 1402.09 869.637 1405.72 869.637 1405.72L861.084 1397.17H776.844C768.29 1397.17 762.199 1396 754.941 1391.08C747.683 1386.15 740.296 1386.15 731.742 1389.91C723.189 1393.54 726.817 1384.99 720.726 1384.99C714.635 1384.99 712.173 1391.08 712.173 1391.08L704.526 1393.02C703.749 1400.54 710.358 1414.15 718.264 1424.9C726.558 1436.05 736.667 1457.04 742.11 1474.67C747.554 1492.3 763.106 1512.25 766.994 1525.47C771.011 1538.82 764.142 1558 768.03 1566.56C772.048 1575.24 774.511 1590.01 776.714 1604.79C778.917 1619.56 779.954 1650.93 793.303 1664.02C798.357 1668.94 803.541 1675.81 808.466 1683.46C814.427 1683.98 818.964 1684.75 818.964 1680.86L819.093 1681.38Z" fill="#C7DCFF"/>
<path d="M1394.65 1328.61C1392.19 1322.13 1387.13 1292.84 1388.56 1280.92C1389.99 1268.99 1386.36 1237.63 1386.36 1222.47C1386.36 1222.08 1386.36 1221.82 1386.36 1221.56C1374.43 1227 1361.6 1233.22 1360.44 1235.43C1358.23 1239.7 1348.9 1234.65 1343.07 1239.7C1337.24 1244.76 1333.74 1240.48 1328.68 1238.93C1323.63 1237.5 1321.43 1243.98 1320.78 1248.26C1320 1252.54 1310.02 1250.46 1306.39 1249.68C1302.76 1248.91 1291.23 1252.53 1285.53 1252.53C1279.82 1252.53 1284.1 1247.48 1277.62 1245.28C1271.14 1243.07 1266.73 1248.13 1263.24 1248.13C1261.03 1248.13 1254.29 1247.35 1249.37 1246.7C1249.37 1250.07 1248.85 1253.05 1248.07 1255.13C1243.41 1267.31 1257.79 1295.04 1258.57 1306.71C1263.88 1311.24 1270.1 1316.95 1273.34 1320.96C1279.82 1328.87 1273.34 1328.22 1273.99 1345.46C1274.77 1362.7 1266.73 1355.57 1260.25 1361.27C1253.77 1366.97 1259.48 1380.06 1258.05 1383.69C1256.63 1387.32 1237.06 1358.42 1235.63 1354.14C1234.21 1349.87 1242.89 1332.5 1240.68 1322.39C1238.48 1312.28 1225.52 1318.76 1221.24 1319.54C1216.97 1320.32 1206.86 1308 1204.66 1308C1202.45 1308 1136.88 1332.5 1136.88 1332.5L1141.93 1350.51H1140.5L1144.13 1358.42C1144.13 1358.42 1165.78 1359.46 1175.5 1365.94C1185.22 1372.42 1200.38 1373.45 1203.62 1375.66C1206.86 1377.86 1203.62 1401.58 1204.66 1413.5C1205.69 1425.42 1191.7 1428.66 1198.18 1435.14C1204.66 1441.62 1201.42 1452.38 1205.69 1453.55C1209.97 1454.58 1198.18 1468.71 1192.73 1471.95C1187.29 1475.19 1192.73 1487.11 1186.25 1495.8C1182.11 1501.37 1169.92 1512.25 1161.5 1520.42C1161.89 1520.68 1162.28 1520.94 1162.41 1521.2C1164.61 1524.96 1171.09 1562.93 1177.57 1566.69C1184.05 1570.45 1180.29 1607.77 1179.77 1611.14C1179.25 1614.38 1182.49 1639.26 1182.49 1639.26C1182.49 1639.26 1192.08 1637.84 1200.64 1637.84C1201.16 1632.91 1201.55 1628.64 1201.8 1625.66C1202.45 1614.12 1194.55 1623.45 1192.08 1616.32C1189.49 1609.07 1209.71 1595.72 1230.32 1588.2C1250.92 1580.68 1258.83 1576.28 1261.03 1569.15C1263.24 1561.89 1260.64 1541.67 1263.62 1533.77C1266.48 1525.86 1261.81 1521.2 1259.35 1503.18C1256.76 1485.17 1250.28 1482.19 1247.42 1472.08C1244.57 1461.97 1245.22 1454.06 1251.31 1453.68C1257.4 1453.29 1257.4 1450.44 1262.46 1440.72C1267.51 1431 1273.34 1435.01 1283.06 1427.76C1292.78 1420.5 1293.17 1411.56 1308.73 1399.63C1324.28 1387.71 1341.26 1388.1 1356.42 1379.03C1371.58 1369.95 1397.5 1334.7 1395.04 1328.22L1394.65 1328.61Z" fill="#C7DCFF"/>
<path d="M205.433 273.531C205.044 257.59 204.526 241.779 204.915 240.224C205.692 236.984 238.351 217.933 243.924 214.693C249.497 211.582 259.865 216.248 259.865 209.897C259.865 203.547 273.344 206.787 281.379 205.102C289.285 203.547 294.08 197.974 294.08 190.717C294.08 183.459 305.225 185.144 312.353 184.366C319.481 183.588 318.704 177.238 323.499 177.238C328.294 177.238 325.832 170.11 326.739 162.075C327.517 154.169 327.517 155.724 334.645 155.724C341.773 155.724 349.03 151.707 349.03 146.911C349.03 142.116 380.005 145.356 384.8 145.356C389.596 145.356 391.151 139.783 390.373 135.766C389.596 131.748 385.578 119.825 380.782 119.047C375.987 118.27 379.227 106.346 379.227 96.756C379.227 87.1655 377.672 78.4823 372.099 71.2246C370.933 69.6694 369.507 66.9478 368.082 63.7078C359.399 63.8374 348.901 57.3574 339.829 57.0982C327.258 56.7094 307.688 63.1894 298.357 52.8214C289.025 42.3237 282.416 39.0837 275.676 42.3237C268.808 45.5638 256.236 81.5927 248.979 92.0904C241.721 102.588 221.503 109.716 211.783 109.716C202.063 109.716 200.897 124.491 193.38 130.582C185.863 136.673 188.714 146.523 179.642 153.651C170.57 160.908 174.977 182.811 179.642 190.846C184.308 198.752 163.053 223.635 150.741 230.893C138.429 238.15 134.541 251.888 114.972 255.128C107.455 256.424 101.752 259.664 97.3457 263.811H188.066C206.858 263.811 202.582 268.088 205.562 273.143L205.433 273.531Z" fill="#82B8F5"/>
<path d="M23.2152 554.246C31.7689 555.931 45.5066 554.246 45.5066 554.246C45.5066 554.246 57.5597 549.062 64.4286 552.562C71.2974 555.931 78.1662 564.615 78.1662 564.615H86.7199C86.7199 564.615 93.5885 583.536 103.827 586.906C109.789 588.85 113.288 594.164 115.362 598.44C122.749 598.311 128.451 595.848 128.451 590.535C128.451 583.925 131.691 575.242 142.707 585.091C153.723 594.941 153.723 586.128 155.797 582.888C158 579.648 165.646 583.925 172.256 583.925C178.866 583.925 187.549 579.519 187.549 579.519C187.549 579.519 278.399 580.555 282.805 578.482C287.212 576.279 286.046 557.616 286.046 557.616L278.399 549.97L255.46 334.314H296.543C252.608 305.283 215.025 280.659 210.229 277.938C207.637 276.382 206.211 274.957 205.434 273.531C205.823 290.509 206.082 307.876 204.916 308.653C202.583 310.208 123.008 308.653 123.008 308.653V373.842C123.008 379.415 97.6063 386.543 97.6063 392.116V430.348H1.3127C-0.112912 446.03 9.47778 451.603 14.921 457.953C22.4379 466.636 9.08876 481.8 20.364 497.222C31.5097 512.774 17.9018 536.491 12.4586 545.174C9.47775 549.84 9.21845 558.005 8.31125 566.429C8.82965 566.429 9.34813 566.17 9.60733 566.17C16.4762 564.485 14.7913 552.432 23.345 554.117L23.2152 554.246Z" fill="#8EBDF4"/>
<path d="M501.961 492.427C501.961 492.427 501.961 473.505 489.908 466.636C477.855 459.767 462.433 458.083 462.433 458.083C462.433 458.083 453.879 442.66 447.011 435.791C442.863 431.644 362.64 377.989 296.544 334.314H255.461L278.4 549.97L286.046 557.616C286.046 557.616 287.083 576.278 282.806 578.482C278.4 580.685 187.55 579.519 187.55 579.519C187.55 579.519 178.866 583.925 172.257 583.925C165.647 583.925 158.001 579.518 155.798 582.888C153.594 586.128 153.594 594.941 142.708 585.091C131.821 575.242 128.452 584.055 128.452 590.535C128.452 595.848 122.75 598.181 115.362 598.44C116.918 601.551 117.565 604.143 117.565 604.143L122.101 610.752C122.101 610.752 121.453 621.639 125.73 625.916C130.007 630.192 138.042 638.228 138.69 641.727C139.338 645.356 138.69 661.167 138.69 661.167C138.69 661.167 141.541 673.479 145.948 667.647C150.225 661.945 156.834 672.702 159.686 665.444C162.537 658.316 171.998 666.869 176.274 666.869C180.551 666.869 190.66 653.909 193.641 654.557C196.492 655.335 202.973 667.517 202.973 672.572C202.973 677.626 215.932 682.681 211.656 684.106C207.379 685.532 206.601 692.79 211.656 692.79C216.71 692.79 214.507 702.121 217.358 706.527C220.209 710.804 226.041 714.433 228.893 707.953C231.744 701.473 238.224 707.175 241.205 711.582C244.056 715.859 253.517 710.804 254.942 705.102C256.368 699.27 267.902 697.196 267.254 703.676C266.606 710.156 268.68 711.582 275.937 706.527C278.141 704.972 280.473 704.713 282.806 705.102C285.398 696.678 288.249 688.902 289.675 686.31C291.878 682.033 284.621 671.924 288.25 670.498C291.878 669.073 304.061 671.924 307.69 661.815C311.319 651.706 315.595 646.652 315.595 646.652C315.595 646.652 317.021 625.008 323.501 628.637C329.981 632.266 337.887 637.969 338.664 629.415C339.442 620.732 347.348 625.786 349.551 617.88C351.754 609.975 356.031 610.623 361.085 612.048C366.14 613.474 370.416 611.271 370.416 606.994C370.416 602.717 381.951 604.791 391.282 598.311C400.614 591.831 405.668 586.776 409.297 590.405C412.926 594.034 436.772 593.256 440.271 591.831C443.9 590.405 451.028 583.925 459.712 585.351C468.395 586.776 489.26 581.722 497.944 581.722C506.627 581.722 510.256 573.816 513.107 570.965C515.958 568.114 518.161 555.024 521.012 552.95C523.345 551.266 522.827 505.905 522.568 488.02C513.884 489.835 501.832 492.556 501.832 492.556L501.961 492.427Z" fill="#C7E1FF"/>
<path d="M1273.08 1321.35C1269.84 1317.34 1263.62 1311.76 1258.31 1307.1C1258.31 1308.91 1258.31 1310.34 1257.53 1311.24C1251.18 1320.45 1233.17 1291.8 1230.96 1273.92C1228.76 1256.03 1241.2 1247.35 1233.69 1230.63C1227.34 1216.64 1223.45 1203.16 1227.98 1199.01C1223.84 1198.49 1216.84 1198.62 1211.52 1199.01C1215.41 1205.49 1221.24 1218.45 1221.24 1222.86C1221.24 1227.91 1215.02 1221.56 1212.43 1227.91C1209.97 1234.13 1208.67 1262.9 1213.73 1267.83C1218.78 1272.88 1203.75 1269.12 1203.75 1274.05C1203.75 1278.97 1202.58 1296.47 1199.99 1297.77C1198.56 1298.41 1201.41 1302.69 1204.27 1308.52H1204.53C1206.73 1308.52 1216.84 1320.7 1221.11 1320.06C1225.39 1319.28 1238.48 1312.8 1240.55 1322.91C1242.76 1333.02 1234.07 1350.38 1235.5 1354.66C1236.93 1358.94 1256.37 1387.84 1257.92 1384.21C1259.35 1380.58 1253.64 1367.62 1260.12 1361.79C1266.6 1355.96 1274.51 1363.21 1273.86 1345.98C1273.21 1328.61 1279.69 1329.39 1273.21 1321.48L1273.08 1321.35Z" fill="#8EBDF4"/>
<path d="M1604.21 1260.7C1600.97 1248.91 1598.38 1264.98 1595.53 1267.96C1592.68 1270.81 1591.25 1279.49 1591.9 1285.32C1592.68 1291.16 1583.22 1296.86 1577.51 1296.21C1571.68 1295.43 1562.35 1299.06 1565.2 1307.1C1568.05 1315 1560.93 1313.58 1564.42 1320.06C1568.05 1326.54 1556.52 1334.44 1546.41 1335.22C1536.3 1336 1523.34 1354.01 1512.45 1352.59C1501.57 1351.16 1490.81 1359.84 1481.48 1358.29C1472.15 1356.86 1478.63 1377.73 1471.37 1390.82C1464.11 1403.78 1467.74 1418.94 1474.22 1434.88C1480.7 1450.82 1485.76 1463.78 1468.39 1484.65C1451.02 1505.52 1452.45 1528.71 1459.06 1543.1C1465.54 1557.48 1465.54 1579.13 1475 1589.37C1484.33 1599.48 1510.38 1608.16 1518.29 1600.25C1526.19 1592.35 1534.62 1601.29 1543.56 1590.79C1552.24 1580.68 1566.63 1525.09 1578.94 1488.28C1591.25 1451.47 1607.06 1403.13 1605.64 1393.02C1604.21 1382.91 1614.32 1376.43 1609.91 1365.55C1605.64 1354.79 1611.34 1341.7 1616.39 1350.38C1621.45 1359.07 1628.71 1359.07 1630.78 1347.53C1632.98 1336 1622.1 1317.98 1621.45 1301.39C1620.67 1284.81 1606.29 1268.99 1604.08 1260.96L1604.21 1260.7Z" fill="#C7E1FF"/>
<path d="M691.437 138.747C688.974 139.784 675.885 153.521 672.645 156.373C669.405 159.224 669.016 164.278 670.441 167.259C671.867 170.11 669.405 180.608 666.165 186.699C662.925 192.79 651.39 197.197 650.612 200.825C649.835 204.454 657.093 212.749 661.758 223.246C666.424 233.744 657.093 240.872 660.981 248.907C664.998 256.813 662.795 261.219 659.166 265.496C655.537 269.773 659.166 276.642 659.166 280.66C659.166 284.677 664.22 290.38 662.795 291.805C661.369 293.231 652.168 300.229 652.168 303.858C652.168 307.487 657.611 310.986 662.925 319.151C668.368 327.316 664.739 331.722 665.646 338.073C666.553 344.423 675.496 347.922 682.754 347.922C690.011 347.922 694.417 353.366 700.768 353.366C706.341 353.366 709.84 362.567 713.08 374.102C715.802 374.102 739.13 374.49 748.85 380.97C759.088 387.839 764.272 396.393 764.272 396.393L805.485 374.102L991.722 474.283V461.323H1014.27V222.08C1014.27 205.491 1006.76 194.994 1014.27 185.921C1021.79 176.849 1011.29 172.313 1017.25 155.854C1017.9 153.91 1018.68 151.836 1019.46 149.763C1019.2 149.374 1018.94 149.115 1018.81 148.856C1016.99 143.801 1007.27 143.412 986.019 140.172C964.765 136.932 972.67 122.547 948.824 121.121C924.977 119.696 894.651 138.747 894.391 148.856C894.003 158.965 905.537 170.11 897.631 180.608C889.726 191.105 872.359 192.142 860.177 180.997C847.865 169.851 829.85 164.797 815.076 164.797C800.301 164.797 789.804 155.336 790.84 147.43C791.877 139.524 787.212 135.895 775.029 133.303C762.717 130.841 752.349 120.732 730.706 124.231C719.171 126.175 709.322 122.676 702.582 118.399C702.064 123.065 701.675 127.99 701.805 131.1C702.194 139.006 693.899 137.58 691.307 138.747H691.437Z" fill="#C7E1FF"/>
<path d="M218.394 810.726C210.877 805.801 206.989 805.801 210.229 803.08C213.469 800.358 213.988 794.397 212.951 785.713C212.562 782.992 212.951 781.048 213.599 779.492C211.007 778.456 209.063 777.289 208.804 775.864C207.767 771.068 202.972 778.067 199.213 783.381C195.455 788.694 186.383 782.862 187.549 774.827C188.586 766.792 183.272 754.091 180.68 754.091C178.996 754.091 171.738 755.128 163.055 757.201C164.221 761.089 161.629 765.366 160.722 769.643C159.685 774.568 146.595 781.566 141.282 785.843C139.727 787.009 137.783 790.12 135.709 794.008C145.947 800.488 157.741 807.875 167.461 815.262C185.087 828.611 211.784 846.237 224.485 851.032C226.17 851.68 228.114 851.939 230.447 851.939C233.428 838.202 236.668 836.517 237.705 829.13C238.742 820.965 226.3 815.651 218.783 810.726H218.394Z" fill="#8EBDF4"/>
<path d="M1099.94 1684.36C1097.09 1678.53 1078.29 1688.64 1075.44 1694.47C1072.59 1700.31 1061.06 1716.12 1061.06 1716.12L1075.44 1736.33L1085.55 1737.76C1085.55 1737.76 1088.4 1730.5 1091.38 1724.8C1094.24 1718.97 1107.2 1726.23 1107.2 1720.52C1107.2 1714.82 1115.88 1708.99 1115.88 1703.16C1115.88 1697.32 1102.92 1690.2 1100.07 1684.36H1099.94Z" fill="#8EBDF4"/>
<path d="M1401 894.318L1412.28 876.822L1423.94 859.715C1418.5 860.881 1413.57 862.307 1411.76 863.214C1407.48 865.417 1401.52 862.177 1399.83 858.289C1398.15 854.531 1387.39 857.771 1378.71 862.566C1370.03 867.491 1365.75 877.729 1362.51 875.526C1359.27 873.323 1339.83 870.601 1334.39 870.601C1328.94 870.601 1311.71 859.197 1306.26 854.401C1300.82 849.477 1285.14 851.68 1281.38 849.476C1277.62 847.273 1269.97 845.718 1267.25 842.478C1264.53 839.238 1258.05 839.756 1252.61 840.923C1247.16 841.96 1234.2 849.606 1233.17 853.883C1232.78 855.308 1231.61 856.604 1230.06 857.9L1241.2 868.009L1243.67 885.505L1253.64 894.318C1253.64 894.318 1253.64 904.298 1252.35 914.277C1251.05 924.256 1242.37 936.827 1236.15 943.048C1234.33 944.863 1231.74 950.824 1228.89 958.211C1238.48 960.544 1245.61 964.303 1245.09 967.154C1244.05 973.116 1227.72 970.394 1227.72 982.836C1227.72 983.743 1227.72 984.52 1227.72 985.298L1319.87 1034.29L1318.7 1049.32C1318.7 1049.32 1339.44 1064.48 1359.66 1078.48C1368.6 1055.54 1380.39 1030.14 1383.5 1025.34C1388.95 1017.05 1394.39 1018.48 1399.06 1012.77C1403.72 1006.94 1405.15 1015.62 1412.41 1004.09C1412.92 1003.18 1413.7 1002.15 1414.48 1001.11L1402.43 981.928L1401.13 894.577L1401 894.318Z" fill="#8EBDF4"/>
<path d="M50.691 687.346C56.1342 683.587 66.8908 673.738 70.6492 675.423C74.4076 677.107 79.3326 673.738 79.3326 671.664C79.3326 669.591 71.8157 662.463 77.6477 660.259C81.795 658.834 82.7022 654.039 82.9614 651.187C80.7582 650.15 78.555 649.373 76.8702 649.502C71.8158 650.021 41.23 652.224 41.23 652.224C41.23 652.224 32.158 658.186 27.4923 657.667C23.6043 657.279 27.4924 651.187 15.0508 654.298C21.2716 661.944 22.049 665.832 34.6202 669.331C48.7467 673.349 33.5834 680.477 45.1178 687.735C46.1546 688.383 47.0619 689.16 47.9691 689.808C49.0059 688.642 50.0428 687.605 50.5612 687.216L50.691 687.346Z" fill="#82B8F5"/>
<path d="M427.829 752.794C424.589 744.63 426.793 726.874 427.311 718.71C427.83 710.545 425.108 706.268 421.349 704.065C419.276 702.898 417.591 695.252 416.425 688.383C412.148 690.327 411.759 697.325 409.944 694.345C407.741 690.716 351.495 688.512 348.644 692.919C345.792 697.196 353.698 713.137 352.92 717.413C352.531 720.005 351.236 721.82 349.421 721.95C355.383 735.298 357.975 755.775 357.975 759.922C357.975 765.366 348.255 769.643 348.773 776.123C349.292 782.603 340.09 795.563 339.571 799.969C339.053 804.246 346.57 822.649 349.81 827.056C351.495 829.259 350.588 834.443 349.421 838.979C359.271 841.83 365.751 845.07 367.695 845.589C371.972 846.625 402.687 832.629 414.999 826.408C424.849 821.483 435.735 818.372 443.252 814.484C438.716 805.672 434.309 794.137 434.309 786.361C434.309 773.919 431.069 760.959 427.829 752.794Z" fill="#8EBDF4"/>
<path d="M109.66 722.985C110.178 717.024 115.103 719.227 121.065 720.264C127.026 721.301 134.025 716.505 139.468 716.505C144.911 716.505 158.908 735.427 158.908 740.87C158.908 746.314 159.426 751.109 162.148 755.515C162.537 756.034 162.796 756.682 162.926 757.2C171.609 755.256 178.867 754.09 180.551 754.09C183.143 754.09 188.587 766.92 187.42 774.826C186.383 782.731 195.455 788.693 199.084 783.379C202.843 778.066 207.638 771.067 208.675 775.863C208.934 777.288 211.008 778.584 213.47 779.491C214.766 776.251 217.747 775.085 219.95 772.104C223.19 767.827 215.025 762.902 217.747 757.459C220.468 752.016 225.264 759.663 229.152 755.775C232.91 752.016 223.708 743.851 224.875 740.611C225.911 737.371 225.393 731.928 220.598 729.206C216.58 727.003 218.784 717.802 220.598 709.766C219.302 708.859 218.136 707.563 217.358 706.267C214.507 701.99 216.71 692.529 211.656 692.529C206.601 692.529 207.379 685.272 211.656 683.846C215.932 682.421 202.972 677.366 202.972 672.312C202.972 667.257 196.492 654.945 193.641 654.297C190.79 653.52 180.681 666.609 176.274 666.609C171.868 666.609 162.537 657.926 159.685 665.184C156.834 672.441 150.354 661.555 145.948 667.387C141.671 673.219 138.69 660.907 138.69 660.907C138.69 660.907 138.69 659.222 138.82 656.889C137.913 657.148 137.006 657.537 136.098 657.796C123.657 662.073 101.495 659.481 100.329 655.593C99.2917 651.835 82.9621 648.595 82.9621 648.595C82.9621 648.595 83.4803 657.796 77.5187 660C71.557 662.203 79.2035 669.201 79.2035 671.404C79.2035 673.608 74.2789 676.848 70.5205 675.163C66.7621 673.478 55.8755 683.328 50.5619 687.086C49.9139 687.475 49.0065 688.382 47.9697 689.678C56.3938 696.417 55.6161 703.934 65.3362 711.062C74.4082 717.672 85.943 726.614 92.8119 741C99.8103 735.038 109.141 726.874 109.53 722.726L109.66 722.985Z" fill="#C7DCFF"/>
<path d="M44.9875 630.71C50.0419 626.174 58.2067 635.246 65.5939 636.153C72.8516 637.06 80.6277 632.006 80.6277 632.006C80.6277 632.006 79.2018 631.099 67.4081 630.192C55.4849 629.284 54.5778 615.158 44.0802 620.212C33.5825 625.267 26.3248 626.563 13.2351 625.267C12.9759 629.284 10.7727 634.727 9.99512 640.041C13.3647 639.134 15.9566 638.616 17.123 638.486C24.3806 638.097 39.933 635.246 44.9875 630.71Z" fill="#C7E1FF"/>
<path d="M701.934 1051.14C713.987 1051.14 709.45 1043.62 704.914 1031.57C700.378 1019.51 712.431 1021.07 719.948 1021.07C727.465 1021.07 724.484 1007.46 730.446 1007.46C736.407 1007.46 737.963 1024.05 744.054 1022.49C750.145 1020.94 754.681 1027.03 762.198 1025.47C769.715 1023.92 769.715 1008.89 769.715 996.833C769.715 984.78 771.27 975.708 763.623 971.172C756.107 966.636 750.015 956.138 759.087 951.602C768.159 947.066 769.715 937.994 762.068 932.032C754.551 925.941 737.963 938.123 737.963 932.032C737.963 928.792 739.258 916.998 740.554 906.89C723.058 906.371 704.266 905.334 704.266 905.334L699.73 906.631C700.767 924.386 698.694 938.123 698.694 938.123C698.694 938.123 671.477 939.679 665.515 939.679C664.219 939.679 660.072 940.197 654.24 941.234C652.944 943.178 651.26 945.122 650.093 946.418C646.853 949.658 657.61 953.935 659.424 958.73C661.239 963.396 645.687 961.97 646.075 968.839C646.464 975.708 640.632 981.151 636.355 984.391C632.079 987.631 647.89 1001.37 648.279 1006.03C648.668 1010.7 652.296 1015.11 665.904 1028.46C678.994 1041.16 672.773 1044.4 690.01 1058.52C692.343 1055.02 695.972 1051.52 701.674 1051.52L701.934 1051.14Z" fill="#C7DCFF"/>
<path d="M1230.06 779.621C1233.04 787.138 1246.65 794.655 1251.18 806.708C1255.72 818.76 1267.77 824.852 1273.86 824.852C1278.4 824.852 1275.29 832.498 1273.47 846.236C1276.32 847.402 1279.43 848.439 1281.51 849.605C1285.27 851.809 1300.95 849.605 1306.39 854.53C1311.84 859.455 1329.07 870.73 1334.52 870.73C1339.96 870.73 1359.4 873.452 1362.64 875.655C1365.88 877.858 1370.16 867.49 1378.84 862.695C1387.52 857.77 1398.28 854.53 1399.96 858.418C1401.52 862.177 1407.48 865.417 1411.89 863.343C1413.7 862.436 1418.63 861.14 1424.07 859.844C1432.1 858.03 1441.31 856.474 1443.77 856.733C1448.05 857.252 1459.97 839.885 1475.65 839.885C1491.33 839.885 1495.61 842.607 1502.74 834.961C1509.74 827.314 1562.87 773.789 1567.67 770.031C1572.59 766.272 1564.43 764.587 1558.98 764.587C1553.54 764.587 1542.78 764.069 1525.42 756.941C1508.05 749.942 1481.09 740.741 1476.17 739.574C1471.24 738.538 1464.25 727.133 1459.97 724.93C1455.69 722.726 1447.01 707.563 1444.81 702.768C1444.03 701.083 1445.71 697.584 1448.56 693.696C1443.25 688.641 1440.66 687.345 1437.03 689.678C1432.49 692.659 1424.85 693.437 1423.29 690.456C1421.74 687.475 1418.76 675.94 1424.07 669.849C1429.38 663.758 1436.25 652.353 1436.25 652.353C1436.25 652.353 1389.85 602.846 1384.54 602.068C1379.23 601.29 1364.06 603.623 1360.18 602.068C1356.42 600.513 1357.2 598.31 1349.55 602.068C1341.9 605.827 1338.92 599.735 1334.39 595.977C1329.85 592.218 1325.31 591.441 1322.98 598.958C1320.65 606.604 1319.22 610.362 1315.33 606.604C1313.52 604.79 1304.06 604.919 1294.86 605.567V605.826C1296.41 616.324 1285.79 628.377 1285.79 634.468C1285.79 640.56 1279.82 646.521 1275.29 646.521C1270.75 646.521 1266.22 658.574 1260.25 664.536C1254.16 670.627 1258.7 684.235 1252.74 688.641C1246.65 693.177 1237.7 694.732 1242.11 699.139C1246.65 703.675 1234.59 712.747 1234.59 721.819C1234.59 730.891 1233.04 747.48 1231.61 749.035C1230.06 750.59 1212.04 746.054 1212.04 753.571C1212.04 761.088 1204.53 761.088 1207.51 767.179C1210.49 773.141 1227.08 771.715 1230.19 779.232L1230.06 779.621Z" fill="#C7DCFF"/>
<path d="M1318.96 535.195C1314.43 539.731 1303.93 541.286 1305.35 548.803C1306.78 556.32 1303.8 563.836 1296.28 572.908C1288.77 581.851 1293.17 595.329 1294.73 605.956C1303.8 605.308 1313.26 605.179 1315.2 606.993C1318.96 610.752 1320.52 606.993 1322.85 599.347C1325.18 591.7 1329.72 592.478 1334.25 596.366C1338.79 600.125 1341.9 606.216 1349.42 602.457C1357.06 598.699 1356.29 600.902 1360.05 602.457C1363.8 604.013 1379.1 601.68 1384.41 602.457C1389.72 603.235 1436.12 652.742 1436.12 652.742C1436.12 652.742 1436.12 652.872 1435.86 653.261C1441.69 653.909 1445.71 654.816 1447.53 652.354C1448.3 651.317 1450.9 649.632 1454.14 647.818C1448.17 642.245 1439.62 633.173 1428.09 618.657C1414.35 601.291 1398.15 591.96 1389.46 591.96C1380.78 591.96 1379.36 577.185 1373.91 576.407C1368.47 575.63 1356.29 554.375 1355.9 540.638C1355.64 532.862 1349.29 522.235 1342.16 513.551C1333.61 527.289 1322.07 532.084 1318.83 535.324L1318.96 535.195Z" fill="#82B8F5"/>
<path d="M698.954 937.993C698.954 937.993 701.027 924.256 699.99 906.5L694.029 908.185H660.203C660.203 908.185 660.333 908.703 660.462 908.963C664.091 914.406 662.277 922.312 654.63 924.774C647.113 927.236 647.373 934.105 653.593 934.494C657.352 934.753 656.445 937.734 654.501 940.845C660.333 939.937 664.48 939.289 665.776 939.289C671.867 939.289 698.954 937.734 698.954 937.734V937.993Z" fill="#82B8F5"/>
<path d="M1256.5 207.434L1239 164.406C1237.7 166.35 1236.8 167.776 1236.28 168.294C1233.43 171.146 1221.5 164.018 1210.36 166.869C1199.21 169.72 1190.53 165.832 1179.64 160.389C1168.76 154.946 1133.5 161.814 1128.71 168.683C1124.04 175.552 1112.12 175.552 1101.36 171.275C1090.48 166.998 1076.48 160.389 1056.65 158.704C1038.12 157.019 1023.21 154.298 1019.84 149.891C1019.07 151.965 1018.29 154.038 1017.64 155.982C1011.68 172.571 1022.18 176.978 1014.66 186.05C1007.14 195.122 1014.66 205.619 1014.66 222.208V410.129H1163.57C1163.57 410.129 1167.85 407.278 1172.25 404.427C1176.53 401.576 1183.79 408.704 1183.79 408.704H1215.54C1215.54 408.704 1221.37 415.961 1228.5 415.961C1235.63 415.961 1231.35 404.427 1242.89 404.427C1254.42 404.427 1251.57 387.06 1258.7 387.06C1265.83 387.06 1264.53 388.486 1271.66 378.377C1271.92 378.118 1272.18 377.729 1272.44 377.34C1271.92 374.23 1271.79 370.99 1272.44 367.491C1274.25 355.956 1266.34 356.604 1261.29 340.404C1256.24 324.204 1236.02 299.969 1235.37 290.638C1234.59 281.306 1223.45 275.863 1223.84 265.754C1224.22 255.645 1218.39 254.608 1207.25 238.668C1196.1 222.856 1192.86 194.992 1196.1 193.955C1199.34 192.918 1208.67 217.413 1212.3 225.319C1215.93 233.224 1228.24 257.46 1236.8 257.46C1245.35 257.46 1248.72 221.042 1251.57 222.856C1251.83 222.986 1251.96 223.375 1252.22 223.893L1253.13 217.283L1256.75 207.434H1256.5Z" fill="#8EBDF4"/>
<path d="M1435.86 653.133C1434.44 655.465 1428.61 664.797 1424.07 670.11C1418.76 676.202 1421.74 687.606 1423.29 690.717C1424.85 693.698 1432.49 693.05 1437.03 689.939C1440.53 687.607 1443.25 688.902 1448.56 693.957C1451.29 689.939 1455.17 685.533 1458.67 681.904C1452.58 678.405 1447.01 677.757 1445.58 676.331C1443.12 673.739 1452.84 666.611 1459.71 665.186C1466.58 663.76 1463.34 655.854 1457.51 650.8C1456.6 649.893 1455.43 648.985 1454.27 647.819C1451.03 649.634 1448.43 651.448 1447.66 652.355C1445.84 654.817 1441.82 653.91 1435.99 653.262L1435.86 653.133Z" fill="#8EBDF4"/>
<path d="M349.939 826.926C346.699 822.649 339.052 804.246 339.7 799.84C340.219 795.563 349.42 782.473 348.902 775.993C348.383 769.513 358.103 765.107 358.103 759.793C358.103 755.646 355.641 735.169 349.55 721.82C348.254 721.82 346.828 721.302 345.014 719.487C340.737 715.211 322.593 715.859 316.113 723.116C309.633 730.374 296.673 716.636 294.47 713.007C292.266 709.379 282.935 701.473 275.677 706.527C268.42 711.582 266.346 710.156 266.994 703.676C267.771 697.196 256.237 699.399 254.682 705.102C253.256 710.804 243.796 715.988 240.944 711.582C238.093 707.305 231.613 701.473 228.632 707.953C226.559 712.489 223.189 712.1 220.338 709.897C218.524 717.932 216.32 727.134 220.338 729.337C225.263 732.059 225.781 737.502 224.615 740.742C223.578 743.982 232.78 752.147 228.892 755.905C225.133 759.664 220.208 752.147 217.487 757.59C214.765 763.033 222.93 767.828 219.69 772.235C216.45 776.512 211.525 777.16 212.692 785.713C213.728 794.397 213.21 800.358 209.97 803.08C206.73 805.801 210.488 805.801 218.135 810.726C225.651 815.651 238.223 820.965 237.056 829.13C236.019 836.517 232.909 838.202 229.799 851.939C244.443 852.199 270.753 841.571 301.727 836.258C321.038 832.888 337.497 835.739 349.031 838.979C350.327 834.314 351.105 829.259 349.42 827.056L349.939 826.926Z" fill="#82B8F5"/>
<path d="M736.669 1073.82C741.205 1075.37 744.186 1082.89 753.258 1075.37C762.33 1067.85 772.827 1069.28 772.827 1076.93C772.827 1084.57 775.809 1083.02 783.325 1075.37C790.842 1067.85 798.359 1076.93 798.359 1061.76C798.359 1046.6 807.431 1060.21 807.431 1043.62C807.431 1027.03 808.986 1010.44 808.986 1002.92C808.986 995.407 830.111 987.89 830.111 975.708C830.111 963.525 848.255 939.549 848.255 924.386C848.255 909.223 852.791 906.242 857.327 898.725C860.438 893.541 862.771 883.302 860.956 873.453V873.712L839.831 870.731L829.334 873.712L815.855 876.693C815.855 876.693 817.41 887.19 811.319 894.707C805.357 902.224 803.802 918.813 803.802 918.813C803.802 918.813 776.715 905.205 769.199 906.76C765.959 907.408 753.776 907.149 740.816 906.76C739.65 916.869 738.224 928.663 738.224 931.903C738.224 937.994 754.813 925.812 762.33 931.903C769.847 937.994 768.292 946.936 759.349 951.472C750.277 956.008 756.368 966.506 763.885 971.042C771.402 975.578 769.977 984.65 769.977 996.703C769.977 1008.76 769.976 1023.79 762.459 1025.34C754.943 1026.9 750.407 1020.81 744.315 1022.36C738.224 1023.92 736.798 1007.33 730.707 1007.33C724.616 1007.33 727.726 1020.94 720.21 1020.94C712.693 1020.94 700.64 1019.38 705.176 1031.44C709.712 1043.49 714.248 1051.01 702.195 1051.01C696.493 1051.01 692.864 1054.38 690.531 1058C691.309 1058.65 692.216 1059.3 693.123 1060.08C703.232 1067.85 709.712 1076.8 713.989 1085.87C723.968 1079 734.336 1072.91 736.798 1073.69L736.669 1073.82Z" fill="#C7E1FF"/>
<path d="M991.85 474.282L805.614 374.1L783.841 385.894C784.489 397.688 785.267 413.758 785.267 417.257C785.267 422.96 796.153 430.218 795.375 439.678C794.598 449.01 802.633 448.362 799.652 458.471C796.801 468.579 795.375 477.263 795.375 484.391C795.375 491.519 795.375 542.84 792.524 545.044C789.673 547.247 755.717 581.073 753.514 594.163C751.311 607.123 748.46 602.068 748.46 615.158C748.46 617.491 748.46 620.212 748.46 623.063C750.274 623.711 751.181 625.655 753.644 628.247C757.273 631.876 757.273 638.356 764.53 638.356C771.788 638.356 780.342 654.945 779.694 661.425C778.916 667.905 783.322 671.534 782.545 683.069C781.897 694.603 789.025 711.192 792.654 713.395C796.283 715.598 791.228 717.672 782.545 717.024C773.861 716.246 761.679 716.246 761.679 719.875C761.679 723.504 758.05 728.558 767.511 737.242C776.843 745.925 784.878 748.776 787.729 758.237C790.58 767.568 794.209 776.252 797.06 778.455C799.911 780.658 805.743 779.88 810.798 772.623C815.852 765.365 821.684 779.103 826.739 772.623C831.793 766.143 849.159 766.92 853.436 764.717C857.713 762.514 870.803 756.811 875.08 753.182C879.357 749.554 870.025 743.851 876.505 740.222C882.985 736.594 903.203 743.074 911.109 732.965C919.014 722.856 931.326 712.099 934.955 708.47C938.584 704.841 934.955 701.99 940.01 696.936C945.064 691.881 955.173 686.049 960.227 689.03C961.394 689.678 962.819 689.937 964.504 689.937C963.986 689.419 963.727 689.03 963.727 689.03L966.708 678.533C966.708 678.533 954.655 672.571 954.655 663.499C954.655 654.427 957.635 645.484 950.119 645.484C942.602 645.484 941.046 637.967 947.138 631.876C953.229 625.915 938.066 613.862 948.693 613.862C959.32 613.862 951.674 597.273 959.19 595.847C966.707 594.292 968.263 588.33 968.263 580.814C968.263 573.297 984.852 568.761 989.388 567.206C993.924 565.65 992.368 541.544 992.368 541.544V474.671L991.85 474.282Z" fill="#C7E1FF"/>
<path d="M1047.58 805.931C1047.58 801.395 1047.58 796.859 1038.64 789.342C1029.57 781.825 1023.6 780.27 1023.6 775.734C1023.6 771.198 1020.62 769.643 1013.11 760.7C1005.59 751.628 993.538 751.628 993.538 751.628L990.557 744.112L980.059 742.556C980.059 742.556 974.097 738.02 983.04 733.484C991.982 728.948 983.04 716.895 981.485 712.359C980.189 708.471 967.488 693.049 964.248 689.161C962.693 689.161 961.137 688.902 959.971 688.254C954.916 685.402 944.808 691.105 939.753 696.159C934.699 701.214 938.328 704.065 934.699 707.694C931.07 711.323 918.758 722.079 910.852 732.188C902.947 742.297 882.729 735.817 876.249 739.446C869.769 743.075 879.1 748.907 874.823 752.406C870.547 756.035 857.457 761.867 853.18 763.94C848.903 766.144 831.537 765.366 826.482 771.846C821.428 778.326 815.596 764.588 810.541 771.846C805.487 779.104 799.784 779.752 796.803 777.678C796.155 777.16 795.378 776.253 794.601 775.086C789.935 779.363 784.232 784.288 782.288 790.249C779.048 800.488 770.365 809.69 770.365 814.614C770.365 819.539 773.605 826.019 773.605 834.573C773.605 843.126 775.808 847.533 780.603 854.013C785.528 860.493 784.362 868.658 784.362 868.658C784.362 868.658 785.917 871.898 789.805 876.823C793.564 881.748 804.45 888.746 805.487 892.504C806.005 894.189 807.82 895.615 809.764 896.652C810.282 895.874 810.671 895.096 811.189 894.319C817.151 886.802 815.725 876.304 815.725 876.304L829.204 873.323L839.701 870.343L860.826 873.323V856.735C860.826 856.735 875.86 837.165 886.358 837.165C896.855 837.165 905.927 850.773 905.927 850.773L952.584 859.845C952.584 859.845 955.564 846.367 960.101 843.256C964.637 840.275 973.709 846.237 979.67 843.256C985.632 840.275 994.704 835.739 1005.2 835.739C1015.7 835.739 1020.24 841.701 1024.77 832.758C1029.31 823.686 1051.86 835.739 1051.86 835.739L1069.87 832.758L1063.91 817.725C1063.91 817.725 1047.32 810.208 1047.32 805.672L1047.58 805.931Z" fill="#82B8F5"/>
<path d="M704.526 905.205C704.526 905.205 761.68 908.185 769.196 906.76C776.713 905.205 803.8 918.813 803.8 918.813C803.8 918.813 805.096 905.205 809.891 897.04C808.077 896.003 806.133 894.707 805.615 892.893C804.578 889.134 793.691 882.006 789.933 877.211C786.174 872.286 784.49 869.046 784.49 869.046C784.49 869.046 785.526 860.881 780.731 854.401C775.806 847.921 773.733 843.515 773.733 834.961C773.733 826.408 770.493 819.798 770.493 815.003C770.493 810.207 779.176 800.876 782.416 790.638C784.36 784.676 790.062 779.751 794.728 775.474C792.395 771.716 789.673 764.977 787.47 757.849C784.619 748.388 776.584 745.537 767.253 736.853C757.921 728.17 761.421 723.116 761.421 719.487C761.421 715.858 773.733 715.858 782.286 716.636C790.969 717.413 796.024 715.21 792.395 713.007C788.766 710.804 781.638 694.215 782.286 682.68C783.064 671.146 778.657 667.517 779.435 661.037C780.083 654.557 771.53 637.968 764.272 637.968C763.754 637.968 763.365 637.968 762.846 637.838C761.55 643.022 761.291 648.984 761.291 650.928C761.291 654.557 767.123 659.611 771.4 661.037C775.677 662.462 773.603 669.72 772.825 676.2C772.048 682.68 760.513 681.255 758.44 684.106C756.237 686.957 743.277 707.175 744.054 710.804C744.832 714.432 741.851 725.189 738.352 726.744C734.723 728.17 735.501 736.076 735.501 739.705C735.501 743.333 723.966 748.388 723.966 754.09C723.966 759.793 710.228 783.639 705.952 791.674C701.675 799.58 697.268 809.689 695.843 802.561C694.417 795.303 683.53 786.75 678.476 790.249C673.421 793.878 666.942 791.674 664.09 792.452C661.239 793.23 636.097 819.15 636.097 819.15C636.097 819.15 634.153 831.462 628.969 845.329C632.209 847.273 635.578 853.753 639.078 858.937C644.132 866.195 653.852 860.752 657.869 862.955C661.887 865.158 666.164 882.006 664.738 886.801C663.313 891.337 657.351 902.742 660.073 908.445H693.898L704.396 905.464L704.526 905.205Z" fill="#8EBDF4"/>
<path d="M1114.71 1046.21C1116.66 1050.49 1118.6 1060.47 1120.8 1071.61C1125.6 1068.5 1129.62 1066.04 1131.17 1065.39C1137.39 1062.93 1151.13 1036.62 1151.13 1036.62L1144.91 1032.86C1144.91 1032.86 1145.56 1027.42 1143.87 1020.03C1138.3 1020.68 1132.34 1020.42 1132.34 1020.42C1132.34 1020.42 1133.63 1030.4 1119.9 1027.94C1117.69 1027.55 1114.84 1027.29 1111.86 1027.16C1112.77 1027.55 1113.42 1027.68 1113.42 1027.68L1114.58 1046.21H1114.71Z" fill="#C7DCFF"/>
<path d="M482.132 667.387C478.503 664.017 473.578 662.98 472.282 662.98C470.079 662.98 471.764 651.057 470.597 649.502C469.561 647.946 462.432 652.742 458.155 651.186C453.879 649.502 452.194 642.503 448.435 642.503C444.677 642.503 444.159 638.226 444.159 633.301C444.159 628.377 437.16 623.581 432.754 620.341C428.477 617.101 427.31 607.9 424.589 606.344C423.034 605.437 423.682 598.698 424.46 593.255C417.72 593.255 411.11 592.477 409.296 590.663C405.667 587.034 400.613 592.089 391.282 598.569C381.951 605.049 370.416 602.845 370.416 607.252C370.416 611.658 366.139 613.732 361.085 612.306C356.03 610.881 351.754 610.103 349.55 618.138C347.347 626.044 339.441 620.989 338.664 629.673C338.016 638.356 329.981 632.524 323.5 628.895C317.02 625.266 315.595 646.91 315.595 646.91C315.595 646.91 311.318 651.964 307.689 662.073C304.06 672.182 291.748 669.33 288.249 670.756C284.62 672.182 291.878 682.291 289.674 686.567C288.378 689.159 285.398 696.936 282.806 705.36C288.119 706.267 293.174 710.803 294.729 713.265C296.932 716.894 309.893 730.632 316.373 723.374C322.853 716.116 340.867 715.468 345.273 719.745C349.55 724.022 352.531 721.948 353.179 717.542C353.827 713.265 345.921 697.324 348.902 693.047C351.753 688.771 408 690.844 410.203 694.473C412.407 698.102 412.407 687.215 419.535 687.993C426.792 688.771 437.549 692.27 441.955 690.844C446.232 689.419 451.287 681.513 455.693 681.513C460.1 681.513 473.06 680.735 475.911 677.236C478.762 673.607 483.817 673.607 482.391 667.905V667.646L482.132 667.387Z" fill="#C7DCFF"/>
<path d="M1093.07 1501.24C1085.68 1501.5 1075.96 1491.52 1075.96 1484.13C1075.96 1476.74 1066.24 1470.65 1066.24 1465.86C1066.24 1461.06 1050.43 1452.51 1041.88 1448.75C1033.32 1445.12 1032.16 1419.46 1028.53 1419.46C1025.81 1419.46 1018.29 1411.94 1014.66 1405.59C1008.7 1407.02 1002.22 1408.7 998.202 1408.7C990.945 1408.7 983.817 1415.96 980.836 1419.59C977.985 1423.22 972.153 1413.11 967.876 1410.26C963.599 1407.41 945.455 1416.74 940.401 1418.16C935.346 1419.59 917.332 1421.02 917.332 1421.02V1504.74C917.332 1514.07 892.837 1508.37 892.837 1514.07V1585.87C898.151 1587.81 903.205 1590.4 904.372 1593.51C907.223 1600.77 913.703 1616.58 912.277 1620.86C910.851 1625.14 907.223 1622.29 907.223 1626.69C907.223 1631.1 904.371 1637.58 911.499 1637.58C918.627 1637.58 930.94 1641.86 935.994 1636.15C941.049 1630.32 957.637 1617.36 958.415 1610.88C959.192 1604.4 962.692 1590.01 975.004 1597.92C987.316 1605.83 987.964 1607.25 1003.9 1607.25C1019.85 1607.25 1024.12 1606.47 1026.97 1596.37C1029.82 1586.26 1026.97 1578.35 1036.31 1578.35C1045.64 1578.35 1057.17 1569.67 1057.17 1563.19C1057.17 1556.71 1061.45 1546.6 1067.28 1546.6C1073.11 1546.6 1085.29 1539.34 1086.72 1532.21C1088.15 1524.96 1098.25 1527.94 1101.88 1523.53C1103.7 1521.46 1107.2 1516.4 1110.31 1511.74C1110.31 1507.33 1108.62 1500.85 1093.07 1501.37V1501.24Z" fill="#8EBDF4"/>
<path d="M486.927 751.11C488.611 739.187 497.165 733.226 497.165 733.226C497.165 733.226 500.923 724.542 506.367 719.099C511.81 713.656 509.607 689.291 509.089 684.496C508.829 681.645 507.533 673.998 506.626 668.036C504.941 669.073 502.349 669.073 498.85 667.518C492.37 664.667 498.202 658.187 490.944 655.983C483.687 653.78 480.836 661.686 482.261 667.518C483.687 673.22 478.632 673.22 475.781 676.849C472.93 680.478 459.84 681.126 455.563 681.126C451.287 681.126 446.232 689.032 441.826 690.457C440.789 690.846 439.493 690.846 437.938 690.717C438.974 709.768 442.085 708.342 451.157 713.526C461.395 719.488 451.675 727.653 456.082 731.929C460.359 736.206 458.803 747.093 459.84 760.571C460.488 768.736 461.395 789.991 461.914 805.543C467.875 804.376 474.096 804.117 478.244 804.117C486.02 804.117 490.685 793.879 494.962 798.803C492.241 790.768 487.445 786.103 487.445 779.623C487.445 770.421 485.242 762.774 486.927 750.981V751.11Z" fill="#82B8F5"/>
<path d="M720.986 1385.25C727.078 1385.25 723.449 1393.8 732.003 1390.17C740.556 1386.54 747.814 1386.54 755.201 1391.34C762.459 1396.26 768.68 1397.43 777.104 1397.43H861.344L869.898 1405.98C869.898 1405.98 916.295 1402.35 923.552 1405.98C930.81 1409.61 954.009 1405.98 961.396 1403.52C962.692 1403.13 965.025 1402.48 968.135 1401.96L940.271 1363.99L942.733 1282.73L978.892 1284.03L985.113 1277.81L990.297 1229.34C988.353 1228.43 986.15 1228.04 983.687 1229.08C976.17 1232.32 969.69 1231.28 962.044 1231.28C954.397 1231.28 953.361 1238.93 949.084 1237.76C944.807 1236.72 948.047 1223.76 949.084 1218.32C950.121 1212.88 942.604 1203.16 937.161 1198.88C931.717 1194.6 943.641 1167.52 940.401 1164.28C937.161 1161.04 936.124 1152.35 936.124 1144.84C936.124 1137.32 930.68 1141.6 919.924 1141.6C909.167 1141.6 908.001 1136.15 908.001 1136.15C908.001 1136.15 895.04 1132.91 888.56 1136.15C882.08 1139.39 883.117 1158.83 878.84 1157.8C874.564 1156.76 861.474 1158.83 850.717 1162.07C839.83 1165.31 835.554 1159.87 830.11 1146.91C824.667 1133.95 818.187 1138.23 820.39 1128.51C822.594 1118.79 816.114 1107.9 816.114 1107.9C816.114 1107.9 744.704 1106.86 737.057 1107.9C733.947 1108.29 728.633 1111.66 723.19 1115.42C727.596 1132.01 741.463 1159.87 744.574 1166.35C747.814 1173.22 740.556 1179.31 740.556 1192.01C740.556 1204.71 754.294 1227.78 755.72 1243.2C757.145 1258.76 747.036 1268.48 738.353 1278.58C729.67 1288.69 720.727 1311.37 720.727 1325.5C720.727 1339.63 707.767 1353.23 708.156 1359.84C708.545 1366.32 706.342 1385.51 704.916 1392.63C704.916 1392.89 704.916 1393.28 704.916 1393.54L712.562 1391.6C712.562 1391.6 715.025 1385.5 721.116 1385.5L720.986 1385.25Z" fill="#C7E1FF"/>
<path d="M379.099 97.8985C379.099 107.489 375.859 119.412 380.654 120.19C385.45 120.967 389.338 132.891 390.245 136.908C391.022 140.926 389.467 146.499 384.672 146.499C379.877 146.499 348.902 143.259 348.902 148.054C348.902 152.849 341.774 156.867 334.517 156.867C327.259 156.867 327.388 155.312 326.611 163.217C325.833 171.123 328.166 178.381 323.371 178.381C318.575 178.381 319.353 184.731 312.225 185.509C305.097 186.286 293.951 184.731 293.951 191.859C293.951 198.987 289.156 204.56 281.25 206.245C273.345 207.8 259.737 204.689 259.737 211.04C259.737 217.39 249.369 212.595 243.796 215.835C238.223 219.075 205.564 238.127 204.786 241.367C204.397 242.922 204.916 258.603 205.305 274.674C206.082 276.099 207.508 277.525 210.1 279.08C222.153 285.949 440.011 430.065 446.88 436.934C453.749 443.803 462.303 459.225 462.303 459.225C462.303 459.225 477.725 460.91 489.778 467.779C501.831 474.648 501.831 493.569 501.831 493.569C501.831 493.569 517.253 490.07 525.807 488.386C534.361 486.701 563.521 476.333 563.521 476.333L608.104 440.304L712.821 375.114H713.08C709.84 363.58 706.341 354.378 700.768 354.378C694.418 354.378 690.011 348.935 682.754 348.935C675.496 348.935 666.553 345.306 665.646 339.085C664.739 332.735 668.368 328.328 662.925 320.164C657.482 311.999 652.168 308.5 652.168 304.871C652.168 301.242 661.369 294.243 662.795 292.818C664.221 291.392 659.166 285.56 659.166 281.672C659.166 277.784 655.537 270.786 659.166 266.509C662.795 262.232 664.869 257.826 660.981 249.92C656.963 242.014 666.424 234.757 661.758 224.259C657.093 213.762 649.835 205.467 650.613 201.838C650.872 200.283 653.205 198.598 656.056 196.654C654.76 194.969 653.853 192.896 653.853 190.174C653.853 180.065 646.595 152.72 642.318 146.888C638.042 141.056 623.526 136.779 623.526 132.502C623.526 128.225 623.526 120.967 613.417 116.691C603.308 112.414 597.606 90.7704 603.308 90.7704C609.011 90.7704 613.417 77.8103 619.249 74.9591C624.952 72.1079 632.209 57.5926 626.507 49.039C622.619 43.2069 624.563 25.322 626.766 10.9363C617.176 10.9363 606.678 7.43715 603.827 6.52995C599.55 5.10434 586.849 8.73319 578.943 8.99239C571.038 9.3812 551.468 21.9524 544.988 15.8612C538.508 9.76998 472.152 20.5268 453.36 21.3044C434.568 22.082 426.663 41.5221 415.517 41.5221C404.371 41.5221 386.616 50.8535 377.285 61.3512C374.693 64.332 371.453 65.3687 368.083 65.4983C369.509 68.7383 370.934 71.46 372.101 73.0152C377.674 80.1432 379.229 88.9561 379.229 98.5465L379.099 97.8985Z" fill="#C7DCFF"/>
</svg>
